<?xml version="1.0" encoding="utf-8" standalone="no"?>
<!DOCTYPE svg PUBLIC "-//W3C//DTD SVG 1.1//EN"
  "http://www.w3.org/Graphics/SVG/1.1/DTD/svg11.dtd">
<!-- Created with matplotlib (https://matplotlib.org/) -->
<svg height="343.382634pt" version="1.1" viewBox="0 0 455.321141 343.382634" width="455.321141pt" xmlns="http://www.w3.org/2000/svg" xmlns:xlink="http://www.w3.org/1999/xlink">
 <metadata>
  <rdf:RDF xmlns:cc="http://creativecommons.org/ns#" xmlns:dc="http://purl.org/dc/elements/1.1/" xmlns:rdf="http://www.w3.org/1999/02/22-rdf-syntax-ns#">
   <cc:Work>
    <dc:type rdf:resource="http://purl.org/dc/dcmitype/StillImage"/>
    <dc:date>2024-07-30T12:49:12.065885</dc:date>
    <dc:format>image/svg+xml</dc:format>
    <dc:creator>
     <cc:Agent>
      <dc:title>Matplotlib v3.3.4, https://matplotlib.org/</dc:title>
     </cc:Agent>
    </dc:creator>
   </cc:Work>
  </rdf:RDF>
 </metadata>
 <defs>
  <style type="text/css">*{stroke-linecap:butt;stroke-linejoin:round;}</style>
 </defs>
 <g id="figure_1">
  <g id="patch_1">
   <path d="M 0 343.382634 
L 455.321141 343.382634 
L 455.321141 0 
L 0 0 
z
" style="fill:#ffffff;"/>
  </g>
  <g id="axes_1">
   <g id="patch_2">
    <path d="M 48.828997 325.157538 
L 434.201141 325.157538 
L 434.201141 31.2 
L 48.828997 31.2 
z
" style="fill:#ffffff;"/>
   </g>
   <g id="matplotlib.axis_1">
    <g id="xtick_1">
     <g id="line2d_1">
      <defs>
       <path d="M 0 0 
L 0 3.5 
" id="m2338457305" style="stroke:#000000;stroke-width:0.8;"/>
      </defs>
      <g>
       <use style="stroke:#000000;stroke-width:0.8;" x="56.24" xlink:href="#m2338457305" y="319.504509"/>
      </g>
     </g>
    </g>
    <g id="xtick_2">
     <g id="line2d_2">
      <g>
       <use style="stroke:#000000;stroke-width:0.8;" x="130.350028" xlink:href="#m2338457305" y="319.504509"/>
      </g>
     </g>
     <g id="text_1">
      <!-- 2 -->
      <g transform="translate(127.168778 334.102946)scale(0.1 -0.1)">
       <defs>
        <path d="M 19.1875 8.296875 
L 53.609375 8.296875 
L 53.609375 0 
L 7.328125 0 
L 7.328125 8.296875 
Q 12.9375 14.109375 22.625 23.890625 
Q 32.328125 33.6875 34.8125 36.53125 
Q 39.546875 41.84375 41.421875 45.53125 
Q 43.3125 49.21875 43.3125 52.78125 
Q 43.3125 58.59375 39.234375 62.25 
Q 35.15625 65.921875 28.609375 65.921875 
Q 23.96875 65.921875 18.8125 64.3125 
Q 13.671875 62.703125 7.8125 59.421875 
L 7.8125 69.390625 
Q 13.765625 71.78125 18.9375 73 
Q 24.125 74.21875 28.421875 74.21875 
Q 39.75 74.21875 46.484375 68.546875 
Q 53.21875 62.890625 53.21875 53.421875 
Q 53.21875 48.921875 51.53125 44.890625 
Q 49.859375 40.875 45.40625 35.40625 
Q 44.1875 33.984375 37.640625 27.21875 
Q 31.109375 20.453125 19.1875 8.296875 
z
" id="DejaVuSans-50"/>
       </defs>
       <use xlink:href="#DejaVuSans-50"/>
      </g>
     </g>
    </g>
    <g id="xtick_3">
     <g id="line2d_3">
      <g>
       <use style="stroke:#000000;stroke-width:0.8;" x="204.460055" xlink:href="#m2338457305" y="319.504509"/>
      </g>
     </g>
     <g id="text_2">
      <!-- 4 -->
      <g transform="translate(201.278805 334.102946)scale(0.1 -0.1)">
       <defs>
        <path d="M 37.796875 64.3125 
L 12.890625 25.390625 
L 37.796875 25.390625 
z
M 35.203125 72.90625 
L 47.609375 72.90625 
L 47.609375 25.390625 
L 58.015625 25.390625 
L 58.015625 17.1875 
L 47.609375 17.1875 
L 47.609375 0 
L 37.796875 0 
L 37.796875 17.1875 
L 4.890625 17.1875 
L 4.890625 26.703125 
z
" id="DejaVuSans-52"/>
       </defs>
       <use xlink:href="#DejaVuSans-52"/>
      </g>
     </g>
    </g>
    <g id="xtick_4">
     <g id="line2d_4">
      <g>
       <use style="stroke:#000000;stroke-width:0.8;" x="278.570083" xlink:href="#m2338457305" y="319.504509"/>
      </g>
     </g>
     <g id="text_3">
      <!-- 6 -->
      <g transform="translate(275.388833 334.102946)scale(0.1 -0.1)">
       <defs>
        <path d="M 33.015625 40.375 
Q 26.375 40.375 22.484375 35.828125 
Q 18.609375 31.296875 18.609375 23.390625 
Q 18.609375 15.53125 22.484375 10.953125 
Q 26.375 6.390625 33.015625 6.390625 
Q 39.65625 6.390625 43.53125 10.953125 
Q 47.40625 15.53125 47.40625 23.390625 
Q 47.40625 31.296875 43.53125 35.828125 
Q 39.65625 40.375 33.015625 40.375 
z
M 52.59375 71.296875 
L 52.59375 62.3125 
Q 48.875 64.0625 45.09375 64.984375 
Q 41.3125 65.921875 37.59375 65.921875 
Q 27.828125 65.921875 22.671875 59.328125 
Q 17.53125 52.734375 16.796875 39.40625 
Q 19.671875 43.65625 24.015625 45.921875 
Q 28.375 48.1875 33.59375 48.1875 
Q 44.578125 48.1875 50.953125 41.515625 
Q 57.328125 34.859375 57.328125 23.390625 
Q 57.328125 12.15625 50.6875 5.359375 
Q 44.046875 -1.421875 33.015625 -1.421875 
Q 20.359375 -1.421875 13.671875 8.265625 
Q 6.984375 17.96875 6.984375 36.375 
Q 6.984375 53.65625 15.1875 63.9375 
Q 23.390625 74.21875 37.203125 74.21875 
Q 40.921875 74.21875 44.703125 73.484375 
Q 48.484375 72.75 52.59375 71.296875 
z
" id="DejaVuSans-54"/>
       </defs>
       <use xlink:href="#DejaVuSans-54"/>
      </g>
     </g>
    </g>
    <g id="xtick_5">
     <g id="line2d_5">
      <g>
       <use style="stroke:#000000;stroke-width:0.8;" x="352.680111" xlink:href="#m2338457305" y="319.504509"/>
      </g>
     </g>
     <g id="text_4">
      <!-- 8 -->
      <g transform="translate(349.498861 334.102946)scale(0.1 -0.1)">
       <defs>
        <path d="M 31.78125 34.625 
Q 24.75 34.625 20.71875 30.859375 
Q 16.703125 27.09375 16.703125 20.515625 
Q 16.703125 13.921875 20.71875 10.15625 
Q 24.75 6.390625 31.78125 6.390625 
Q 38.8125 6.390625 42.859375 10.171875 
Q 46.921875 13.96875 46.921875 20.515625 
Q 46.921875 27.09375 42.890625 30.859375 
Q 38.875 34.625 31.78125 34.625 
z
M 21.921875 38.8125 
Q 15.578125 40.375 12.03125 44.71875 
Q 8.5 49.078125 8.5 55.328125 
Q 8.5 64.0625 14.71875 69.140625 
Q 20.953125 74.21875 31.78125 74.21875 
Q 42.671875 74.21875 48.875 69.140625 
Q 55.078125 64.0625 55.078125 55.328125 
Q 55.078125 49.078125 51.53125 44.71875 
Q 48 40.375 41.703125 38.8125 
Q 48.828125 37.15625 52.796875 32.3125 
Q 56.78125 27.484375 56.78125 20.515625 
Q 56.78125 9.90625 50.3125 4.234375 
Q 43.84375 -1.421875 31.78125 -1.421875 
Q 19.734375 -1.421875 13.25 4.234375 
Q 6.78125 9.90625 6.78125 20.515625 
Q 6.78125 27.484375 10.78125 32.3125 
Q 14.796875 37.15625 21.921875 38.8125 
z
M 18.3125 54.390625 
Q 18.3125 48.734375 21.84375 45.5625 
Q 25.390625 42.390625 31.78125 42.390625 
Q 38.140625 42.390625 41.71875 45.5625 
Q 45.3125 48.734375 45.3125 54.390625 
Q 45.3125 60.0625 41.71875 63.234375 
Q 38.140625 66.40625 31.78125 66.40625 
Q 25.390625 66.40625 21.84375 63.234375 
Q 18.3125 60.0625 18.3125 54.390625 
z
" id="DejaVuSans-56"/>
       </defs>
       <use xlink:href="#DejaVuSans-56"/>
      </g>
     </g>
    </g>
    <g id="xtick_6">
     <g id="line2d_6">
      <g>
       <use style="stroke:#000000;stroke-width:0.8;" x="426.790139" xlink:href="#m2338457305" y="319.504509"/>
      </g>
     </g>
     <g id="text_5">
      <!-- 10 -->
      <g transform="translate(420.427639 334.102946)scale(0.1 -0.1)">
       <defs>
        <path d="M 12.40625 8.296875 
L 28.515625 8.296875 
L 28.515625 63.921875 
L 10.984375 60.40625 
L 10.984375 69.390625 
L 28.421875 72.90625 
L 38.28125 72.90625 
L 38.28125 8.296875 
L 54.390625 8.296875 
L 54.390625 0 
L 12.40625 0 
z
" id="DejaVuSans-49"/>
        <path d="M 31.78125 66.40625 
Q 24.171875 66.40625 20.328125 58.90625 
Q 16.5 51.421875 16.5 36.375 
Q 16.5 21.390625 20.328125 13.890625 
Q 24.171875 6.390625 31.78125 6.390625 
Q 39.453125 6.390625 43.28125 13.890625 
Q 47.125 21.390625 47.125 36.375 
Q 47.125 51.421875 43.28125 58.90625 
Q 39.453125 66.40625 31.78125 66.40625 
z
M 31.78125 74.21875 
Q 44.046875 74.21875 50.515625 64.515625 
Q 56.984375 54.828125 56.984375 36.375 
Q 56.984375 17.96875 50.515625 8.265625 
Q 44.046875 -1.421875 31.78125 -1.421875 
Q 19.53125 -1.421875 13.0625 8.265625 
Q 6.59375 17.96875 6.59375 36.375 
Q 6.59375 54.828125 13.0625 64.515625 
Q 19.53125 74.21875 31.78125 74.21875 
z
" id="DejaVuSans-48"/>
       </defs>
       <use xlink:href="#DejaVuSans-49"/>
       <use x="63.623047" xlink:href="#DejaVuSans-48"/>
      </g>
     </g>
    </g>
    <g id="xtick_7">
     <g id="line2d_7">
      <defs>
       <path d="M 0 0 
L 0 2 
" id="m33f015063a" style="stroke:#000000;stroke-width:0.6;"/>
      </defs>
      <g>
       <use style="stroke:#000000;stroke-width:0.6;" x="74.767507" xlink:href="#m33f015063a" y="319.504509"/>
      </g>
     </g>
    </g>
    <g id="xtick_8">
     <g id="line2d_8">
      <g>
       <use style="stroke:#000000;stroke-width:0.6;" x="93.295014" xlink:href="#m33f015063a" y="319.504509"/>
      </g>
     </g>
    </g>
    <g id="xtick_9">
     <g id="line2d_9">
      <g>
       <use style="stroke:#000000;stroke-width:0.6;" x="111.822521" xlink:href="#m33f015063a" y="319.504509"/>
      </g>
     </g>
    </g>
    <g id="xtick_10">
     <g id="line2d_10">
      <g>
       <use style="stroke:#000000;stroke-width:0.6;" x="148.877535" xlink:href="#m33f015063a" y="319.504509"/>
      </g>
     </g>
    </g>
    <g id="xtick_11">
     <g id="line2d_11">
      <g>
       <use style="stroke:#000000;stroke-width:0.6;" x="167.405042" xlink:href="#m33f015063a" y="319.504509"/>
      </g>
     </g>
    </g>
    <g id="xtick_12">
     <g id="line2d_12">
      <g>
       <use style="stroke:#000000;stroke-width:0.6;" x="185.932548" xlink:href="#m33f015063a" y="319.504509"/>
      </g>
     </g>
    </g>
    <g id="xtick_13">
     <g id="line2d_13">
      <g>
       <use style="stroke:#000000;stroke-width:0.6;" x="222.987562" xlink:href="#m33f015063a" y="319.504509"/>
      </g>
     </g>
    </g>
    <g id="xtick_14">
     <g id="line2d_14">
      <g>
       <use style="stroke:#000000;stroke-width:0.6;" x="241.515069" xlink:href="#m33f015063a" y="319.504509"/>
      </g>
     </g>
    </g>
    <g id="xtick_15">
     <g id="line2d_15">
      <g>
       <use style="stroke:#000000;stroke-width:0.6;" x="260.042576" xlink:href="#m33f015063a" y="319.504509"/>
      </g>
     </g>
    </g>
    <g id="xtick_16">
     <g id="line2d_16">
      <g>
       <use style="stroke:#000000;stroke-width:0.6;" x="297.09759" xlink:href="#m33f015063a" y="319.504509"/>
      </g>
     </g>
    </g>
    <g id="xtick_17">
     <g id="line2d_17">
      <g>
       <use style="stroke:#000000;stroke-width:0.6;" x="315.625097" xlink:href="#m33f015063a" y="319.504509"/>
      </g>
     </g>
    </g>
    <g id="xtick_18">
     <g id="line2d_18">
      <g>
       <use style="stroke:#000000;stroke-width:0.6;" x="334.152604" xlink:href="#m33f015063a" y="319.504509"/>
      </g>
     </g>
    </g>
    <g id="xtick_19">
     <g id="line2d_19">
      <g>
       <use style="stroke:#000000;stroke-width:0.6;" x="371.207618" xlink:href="#m33f015063a" y="319.504509"/>
      </g>
     </g>
    </g>
    <g id="xtick_20">
     <g id="line2d_20">
      <g>
       <use style="stroke:#000000;stroke-width:0.6;" x="389.735125" xlink:href="#m33f015063a" y="319.504509"/>
      </g>
     </g>
    </g>
    <g id="xtick_21">
     <g id="line2d_21">
      <g>
       <use style="stroke:#000000;stroke-width:0.6;" x="408.262632" xlink:href="#m33f015063a" y="319.504509"/>
      </g>
     </g>
    </g>
    <g id="text_6">
     <!-- $t$ -->
     <g transform="translate(442.201141 319.504509)scale(0.16 -0.16)">
      <defs>
       <path d="M 6.203125 8.109375 
Q 6.203125 9.578125 6.5 10.890625 
L 13.71875 39.59375 
L 3.21875 39.59375 
Q 2.203125 39.59375 2.203125 40.921875 
Q 2.59375 43.109375 3.515625 43.109375 
L 14.59375 43.109375 
L 18.609375 59.421875 
Q 19 60.75 20.171875 61.671875 
Q 21.34375 62.59375 22.796875 62.59375 
Q 24.078125 62.59375 24.921875 61.828125 
Q 25.78125 61.078125 25.78125 59.8125 
Q 25.78125 59.515625 25.75 59.34375 
Q 25.734375 59.1875 25.6875 58.984375 
L 21.6875 43.109375 
L 31.984375 43.109375 
Q 33.015625 43.109375 33.015625 41.796875 
Q 32.953125 41.546875 32.8125 40.953125 
Q 32.671875 40.375 32.421875 39.984375 
Q 32.171875 39.59375 31.6875 39.59375 
L 20.796875 39.59375 
L 13.625 10.6875 
Q 12.890625 7.859375 12.890625 5.8125 
Q 12.890625 1.515625 15.828125 1.515625 
Q 20.21875 1.515625 23.609375 5.640625 
Q 27 9.765625 28.8125 14.703125 
Q 29.203125 15.28125 29.59375 15.28125 
L 30.8125 15.28125 
Q 31.203125 15.28125 31.4375 15.015625 
Q 31.6875 14.75 31.6875 14.40625 
Q 31.6875 14.203125 31.59375 14.109375 
Q 29.390625 8.0625 25.1875 3.46875 
Q 21 -1.125 15.578125 -1.125 
Q 11.625 -1.125 8.90625 1.453125 
Q 6.203125 4.046875 6.203125 8.109375 
z
" id="Cmmi10-116"/>
      </defs>
      <use transform="translate(0 0.40625)" xlink:href="#Cmmi10-116"/>
     </g>
    </g>
   </g>
   <g id="matplotlib.axis_2">
    <g id="ytick_1">
     <g id="line2d_22">
      <defs>
       <path d="M 0 0 
L -3.5 0 
" id="m204aa60591" style="stroke:#000000;stroke-width:0.8;"/>
      </defs>
      <g>
       <use style="stroke:#000000;stroke-width:0.8;" x="56.24" xlink:href="#m204aa60591" y="319.504509"/>
      </g>
     </g>
    </g>
    <g id="ytick_2">
     <g id="line2d_23">
      <g>
       <use style="stroke:#000000;stroke-width:0.8;" x="56.24" xlink:href="#m204aa60591" y="262.917626"/>
      </g>
     </g>
     <g id="text_7">
      <!-- 0.2 -->
      <g transform="translate(33.336875 266.716845)scale(0.1 -0.1)">
       <defs>
        <path d="M 10.6875 12.40625 
L 21 12.40625 
L 21 0 
L 10.6875 0 
z
" id="DejaVuSans-46"/>
       </defs>
       <use xlink:href="#DejaVuSans-48"/>
       <use x="63.623047" xlink:href="#DejaVuSans-46"/>
       <use x="95.410156" xlink:href="#DejaVuSans-50"/>
      </g>
     </g>
    </g>
    <g id="ytick_3">
     <g id="line2d_24">
      <g>
       <use style="stroke:#000000;stroke-width:0.8;" x="56.24" xlink:href="#m204aa60591" y="206.330743"/>
      </g>
     </g>
     <g id="text_8">
      <!-- 0.4 -->
      <g transform="translate(33.336875 210.129962)scale(0.1 -0.1)">
       <use xlink:href="#DejaVuSans-48"/>
       <use x="63.623047" xlink:href="#DejaVuSans-46"/>
       <use x="95.410156" xlink:href="#DejaVuSans-52"/>
      </g>
     </g>
    </g>
    <g id="ytick_4">
     <g id="line2d_25">
      <g>
       <use style="stroke:#000000;stroke-width:0.8;" x="56.24" xlink:href="#m204aa60591" y="149.743861"/>
      </g>
     </g>
     <g id="text_9">
      <!-- 0.6 -->
      <g transform="translate(33.336875 153.543079)scale(0.1 -0.1)">
       <use xlink:href="#DejaVuSans-48"/>
       <use x="63.623047" xlink:href="#DejaVuSans-46"/>
       <use x="95.410156" xlink:href="#DejaVuSans-54"/>
      </g>
     </g>
    </g>
    <g id="ytick_5">
     <g id="line2d_26">
      <g>
       <use style="stroke:#000000;stroke-width:0.8;" x="56.24" xlink:href="#m204aa60591" y="93.156978"/>
      </g>
     </g>
     <g id="text_10">
      <!-- 0.8 -->
      <g transform="translate(33.336875 96.956197)scale(0.1 -0.1)">
       <use xlink:href="#DejaVuSans-48"/>
       <use x="63.623047" xlink:href="#DejaVuSans-46"/>
       <use x="95.410156" xlink:href="#DejaVuSans-56"/>
      </g>
     </g>
    </g>
    <g id="ytick_6">
     <g id="line2d_27">
      <g>
       <use style="stroke:#000000;stroke-width:0.8;" x="56.24" xlink:href="#m204aa60591" y="36.570095"/>
      </g>
     </g>
     <g id="text_11">
      <!-- 1.0 -->
      <g transform="translate(33.336875 40.369314)scale(0.1 -0.1)">
       <use xlink:href="#DejaVuSans-49"/>
       <use x="63.623047" xlink:href="#DejaVuSans-46"/>
       <use x="95.410156" xlink:href="#DejaVuSans-48"/>
      </g>
     </g>
    </g>
    <g id="ytick_7">
     <g id="line2d_28">
      <defs>
       <path d="M 0 0 
L -2 0 
" id="mab3c595af0" style="stroke:#000000;stroke-width:0.6;"/>
      </defs>
      <g>
       <use style="stroke:#000000;stroke-width:0.6;" x="56.24" xlink:href="#mab3c595af0" y="305.357788"/>
      </g>
     </g>
    </g>
    <g id="ytick_8">
     <g id="line2d_29">
      <g>
       <use style="stroke:#000000;stroke-width:0.6;" x="56.24" xlink:href="#mab3c595af0" y="291.211068"/>
      </g>
     </g>
    </g>
    <g id="ytick_9">
     <g id="line2d_30">
      <g>
       <use style="stroke:#000000;stroke-width:0.6;" x="56.24" xlink:href="#mab3c595af0" y="277.064347"/>
      </g>
     </g>
    </g>
    <g id="ytick_10">
     <g id="line2d_31">
      <g>
       <use style="stroke:#000000;stroke-width:0.6;" x="56.24" xlink:href="#mab3c595af0" y="248.770905"/>
      </g>
     </g>
    </g>
    <g id="ytick_11">
     <g id="line2d_32">
      <g>
       <use style="stroke:#000000;stroke-width:0.6;" x="56.24" xlink:href="#mab3c595af0" y="234.624185"/>
      </g>
     </g>
    </g>
    <g id="ytick_12">
     <g id="line2d_33">
      <g>
       <use style="stroke:#000000;stroke-width:0.6;" x="56.24" xlink:href="#mab3c595af0" y="220.477464"/>
      </g>
     </g>
    </g>
    <g id="ytick_13">
     <g id="line2d_34">
      <g>
       <use style="stroke:#000000;stroke-width:0.6;" x="56.24" xlink:href="#mab3c595af0" y="192.184023"/>
      </g>
     </g>
    </g>
    <g id="ytick_14">
     <g id="line2d_35">
      <g>
       <use style="stroke:#000000;stroke-width:0.6;" x="56.24" xlink:href="#mab3c595af0" y="178.037302"/>
      </g>
     </g>
    </g>
    <g id="ytick_15">
     <g id="line2d_36">
      <g>
       <use style="stroke:#000000;stroke-width:0.6;" x="56.24" xlink:href="#mab3c595af0" y="163.890581"/>
      </g>
     </g>
    </g>
    <g id="ytick_16">
     <g id="line2d_37">
      <g>
       <use style="stroke:#000000;stroke-width:0.6;" x="56.24" xlink:href="#mab3c595af0" y="135.59714"/>
      </g>
     </g>
    </g>
    <g id="ytick_17">
     <g id="line2d_38">
      <g>
       <use style="stroke:#000000;stroke-width:0.6;" x="56.24" xlink:href="#mab3c595af0" y="121.450419"/>
      </g>
     </g>
    </g>
    <g id="ytick_18">
     <g id="line2d_39">
      <g>
       <use style="stroke:#000000;stroke-width:0.6;" x="56.24" xlink:href="#mab3c595af0" y="107.303699"/>
      </g>
     </g>
    </g>
    <g id="ytick_19">
     <g id="line2d_40">
      <g>
       <use style="stroke:#000000;stroke-width:0.6;" x="56.24" xlink:href="#mab3c595af0" y="79.010257"/>
      </g>
     </g>
    </g>
    <g id="ytick_20">
     <g id="line2d_41">
      <g>
       <use style="stroke:#000000;stroke-width:0.6;" x="56.24" xlink:href="#mab3c595af0" y="64.863537"/>
      </g>
     </g>
    </g>
    <g id="ytick_21">
     <g id="line2d_42">
      <g>
       <use style="stroke:#000000;stroke-width:0.6;" x="56.24" xlink:href="#mab3c595af0" y="50.716816"/>
      </g>
     </g>
    </g>
    <g id="text_12">
     <!-- $S(t),I(t),R(t)$ -->
     <g transform="translate(7.2 19.2)scale(0.16 -0.16)">
      <defs>
       <path d="M 6.109375 -2.203125 
Q 5.8125 -2.203125 5.5625 -1.859375 
Q 5.328125 -1.515625 5.328125 -1.21875 
L 11.078125 22.125 
Q 11.28125 22.703125 11.921875 22.703125 
L 13.09375 22.703125 
Q 13.484375 22.703125 13.703125 22.40625 
Q 13.921875 22.125 13.921875 21.6875 
Q 13.09375 18.265625 13.09375 15.578125 
Q 13.09375 8.34375 18.0625 4.828125 
Q 23.046875 1.3125 30.609375 1.3125 
Q 33.890625 1.3125 37.0625 2.921875 
Q 40.234375 4.546875 42.59375 7.125 
Q 44.96875 9.71875 46.375 12.90625 
Q 47.796875 16.109375 47.796875 19.390625 
Q 47.796875 22.90625 45.9375 25.65625 
Q 44.09375 28.421875 40.828125 29.203125 
L 28.609375 32.421875 
Q 23.6875 33.734375 20.75 37.71875 
Q 17.828125 41.703125 17.828125 46.6875 
Q 17.828125 52.6875 21.390625 58.25 
Q 24.953125 63.8125 30.6875 67.15625 
Q 36.421875 70.515625 42.390625 70.515625 
Q 46.96875 70.515625 50.796875 68.828125 
Q 54.640625 67.140625 56.6875 63.484375 
L 62.40625 70.21875 
Q 62.984375 70.515625 63.09375 70.515625 
L 63.71875 70.515625 
Q 64.109375 70.515625 64.34375 70.171875 
Q 64.59375 69.828125 64.59375 69.484375 
L 58.796875 46.296875 
Q 58.640625 45.609375 58.015625 45.609375 
L 56.78125 45.609375 
Q 55.90625 45.609375 55.90625 46.6875 
Q 56.390625 49.859375 56.390625 52.203125 
Q 56.390625 56.84375 54.796875 60.28125 
Q 53.21875 63.71875 50.015625 65.5 
Q 46.828125 67.28125 42.09375 67.28125 
Q 38.09375 67.28125 34.125 64.984375 
Q 30.171875 62.703125 27.734375 58.890625 
Q 25.296875 55.078125 25.296875 50.984375 
Q 25.296875 47.75 27.171875 45.265625 
Q 29.046875 42.78125 32.171875 41.890625 
L 44.390625 38.71875 
Q 47.703125 37.84375 50.171875 35.625 
Q 52.640625 33.40625 53.90625 30.34375 
Q 55.171875 27.296875 55.171875 23.6875 
Q 55.171875 18.953125 53.171875 14.328125 
Q 51.171875 9.71875 47.578125 5.90625 
Q 44 2.09375 39.453125 -0.046875 
Q 34.90625 -2.203125 30.171875 -2.203125 
Q 18.265625 -2.203125 13.09375 4.78125 
L 7.515625 -1.90625 
Q 6.9375 -2.203125 6.78125 -2.203125 
z
" id="Cmmi10-83"/>
       <path d="M 31 -24.8125 
Q 25.4375 -20.40625 21.40625 -14.71875 
Q 17.390625 -9.03125 14.8125 -2.578125 
Q 12.25 3.859375 10.984375 10.890625 
Q 9.71875 17.921875 9.71875 25 
Q 9.71875 32.171875 10.984375 39.203125 
Q 12.25 46.234375 14.859375 52.734375 
Q 17.484375 59.234375 21.53125 64.890625 
Q 25.59375 70.5625 31 74.8125 
Q 31 75 31.5 75 
L 32.421875 75 
Q 32.71875 75 32.953125 74.734375 
Q 33.203125 74.46875 33.203125 74.125 
Q 33.203125 73.6875 33.015625 73.484375 
Q 28.125 68.703125 24.875 63.234375 
Q 21.625 57.765625 19.640625 51.578125 
Q 17.671875 45.40625 16.796875 38.78125 
Q 15.921875 32.171875 15.921875 25 
Q 15.921875 -6.78125 32.90625 -23.296875 
Q 33.203125 -23.578125 33.203125 -24.125 
Q 33.203125 -24.359375 32.9375 -24.671875 
Q 32.671875 -25 32.421875 -25 
L 31.5 -25 
Q 31 -25 31 -24.8125 
z
" id="Cmr10-40"/>
       <path d="M 6.5 -25 
Q 5.609375 -25 5.609375 -24.125 
Q 5.609375 -23.6875 5.8125 -23.484375 
Q 22.90625 -6.78125 22.90625 25 
Q 22.90625 56.78125 6 73.296875 
Q 5.609375 73.53125 5.609375 74.125 
Q 5.609375 74.46875 5.875 74.734375 
Q 6.15625 75 6.5 75 
L 7.421875 75 
Q 7.71875 75 7.90625 74.8125 
Q 15.09375 69.140625 19.875 61.03125 
Q 24.65625 52.9375 26.875 43.75 
Q 29.109375 34.578125 29.109375 25 
Q 29.109375 17.921875 27.90625 11.0625 
Q 26.703125 4.203125 24.09375 -2.453125 
Q 21.484375 -9.125 17.484375 -14.765625 
Q 13.484375 -20.40625 7.90625 -24.8125 
Q 7.71875 -25 7.421875 -25 
z
" id="Cmr10-41"/>
       <path d="M 9.90625 -18.015625 
Q 9.90625 -17.578125 10.296875 -17.1875 
Q 13.921875 -13.71875 15.921875 -9.171875 
Q 17.921875 -4.640625 17.921875 0.390625 
L 17.921875 1.609375 
Q 16.3125 0 13.921875 0 
Q 11.625 0 10.015625 1.609375 
Q 8.40625 3.21875 8.40625 5.515625 
Q 8.40625 7.859375 10.015625 9.421875 
Q 11.625 10.984375 13.921875 10.984375 
Q 17.484375 10.984375 19 7.6875 
Q 20.515625 4.390625 20.515625 0.390625 
Q 20.515625 -5.171875 18.28125 -10.171875 
Q 16.0625 -15.1875 12.015625 -19.1875 
Q 11.625 -19.390625 11.375 -19.390625 
Q 10.890625 -19.390625 10.390625 -18.9375 
Q 9.90625 -18.5 9.90625 -18.015625 
z
" id="Cmmi10-59"/>
       <path d="M 4.203125 0 
Q 3.21875 0 3.21875 1.3125 
Q 3.609375 3.515625 4.5 3.515625 
Q 10.40625 3.515625 12.5 3.90625 
Q 14.796875 4.4375 15.375 6.890625 
L 29.109375 61.8125 
Q 29.296875 62.796875 29.296875 63.09375 
Q 29.296875 63.71875 28.96875 63.984375 
Q 28.65625 64.265625 27.984375 64.40625 
Q 25.984375 64.796875 20.40625 64.796875 
Q 19.390625 64.796875 19.390625 66.109375 
Q 19.734375 67.390625 19.921875 67.84375 
Q 20.125 68.3125 21.09375 68.3125 
L 49.03125 68.3125 
Q 50 68.3125 50 67 
Q 49.953125 66.75 49.796875 66.15625 
Q 49.65625 65.578125 49.40625 65.1875 
Q 49.171875 64.796875 48.6875 64.796875 
Q 42.828125 64.796875 40.578125 64.40625 
Q 38.375 63.875 37.796875 61.375 
L 24.125 6.5 
Q 23.875 5.28125 23.875 5.171875 
Q 23.875 4.9375 23.953125 4.71875 
Q 24.03125 4.5 24.25 4.328125 
Q 24.46875 4.15625 24.6875 4.078125 
Q 24.90625 4 25.203125 3.90625 
Q 27.09375 3.515625 32.8125 3.515625 
Q 33.796875 3.515625 33.796875 2.203125 
Q 33.453125 0.78125 33.25 0.390625 
Q 33.0625 0 32.078125 0 
z
" id="Cmmi10-73"/>
       <path d="M 4.890625 0 
Q 3.90625 0 3.90625 1.3125 
Q 3.953125 1.5625 4.09375 2.171875 
Q 4.25 2.78125 4.515625 3.140625 
Q 4.78125 3.515625 5.171875 3.515625 
Q 11.28125 3.515625 13.71875 4.203125 
Q 14.984375 4.640625 15.578125 6.890625 
L 29.296875 61.8125 
Q 29.5 62.796875 29.5 63.1875 
Q 29.5 64.265625 28.328125 64.40625 
Q 26.421875 64.796875 21.09375 64.796875 
Q 20.125 64.796875 20.125 66.109375 
Q 20.171875 66.359375 20.3125 66.96875 
Q 20.453125 67.578125 20.71875 67.9375 
Q 21 68.3125 21.390625 68.3125 
L 51.703125 68.3125 
Q 55.328125 68.3125 59.234375 67.484375 
Q 63.140625 66.65625 66.40625 64.875 
Q 69.671875 63.09375 71.765625 60.125 
Q 73.875 57.171875 73.875 53.21875 
Q 73.875 48.1875 70.546875 44.234375 
Q 67.234375 40.28125 62.15625 37.625 
Q 57.078125 34.96875 52.296875 33.890625 
Q 56.203125 32.46875 58.6875 29.359375 
Q 61.1875 26.265625 61.1875 22.21875 
Q 61.1875 21.6875 61.15625 21.40625 
Q 61.140625 21.140625 61.078125 20.796875 
L 60.296875 11.921875 
Q 60.203125 9.96875 60.109375 8.59375 
Q 60.015625 7.234375 60.015625 6.390625 
Q 60.015625 3.65625 60.8125 2.015625 
Q 61.625 0.390625 64.015625 0.390625 
Q 67.140625 0.390625 69.5 3.296875 
Q 71.875 6.203125 72.609375 9.625 
Q 73.046875 10.5 73.578125 10.5 
L 74.515625 10.5 
Q 75.484375 10.5 75.484375 9.1875 
Q 74.75 6.296875 73.15625 3.703125 
Q 71.578125 1.125 69.15625 -0.53125 
Q 66.75 -2.203125 63.921875 -2.203125 
Q 58.0625 -2.203125 53.9375 0.40625 
Q 49.8125 3.03125 49.8125 8.59375 
Q 49.8125 10.6875 50.203125 12.3125 
L 52.390625 21.1875 
Q 52.78125 22.40625 52.78125 24.03125 
Q 52.78125 28.171875 49.96875 30.53125 
Q 47.171875 32.90625 42.921875 32.90625 
L 30.609375 32.90625 
L 24.03125 6.5 
Q 23.78125 5.671875 23.78125 5.078125 
Q 23.78125 4.046875 25 3.90625 
Q 26.90625 3.515625 32.171875 3.515625 
Q 33.203125 3.515625 33.203125 2.203125 
Q 32.859375 0.78125 32.65625 0.390625 
Q 32.46875 0 31.5 0 
z
M 31.203125 35.5 
L 42.28125 35.5 
Q 53.171875 35.5 58.6875 41.015625 
Q 61.234375 43.5625 62.71875 47.484375 
Q 64.203125 51.421875 64.203125 55.328125 
Q 64.203125 59.03125 62.03125 61.125 
Q 59.859375 63.234375 56.65625 64.015625 
Q 53.46875 64.796875 49.609375 64.796875 
L 42.921875 64.796875 
Q 40.1875 64.796875 39.296875 64.328125 
Q 38.421875 63.875 37.703125 61.375 
z
" id="Cmmi10-82"/>
      </defs>
      <use xlink:href="#Cmmi10-83"/>
      <use transform="translate(61.279297 0)" xlink:href="#Cmr10-40"/>
      <use transform="translate(100.097656 0)" xlink:href="#Cmmi10-116"/>
      <use transform="translate(136.181641 0)" xlink:href="#Cmr10-41"/>
      <use transform="translate(175 0)" xlink:href="#Cmmi10-59"/>
      <use transform="translate(220.244141 0)" xlink:href="#Cmmi10-73"/>
      <use transform="translate(264.140625 0)" xlink:href="#Cmr10-40"/>
      <use transform="translate(302.958984 0)" xlink:href="#Cmmi10-116"/>
      <use transform="translate(339.042969 0)" xlink:href="#Cmr10-41"/>
      <use transform="translate(377.861328 0)" xlink:href="#Cmmi10-59"/>
      <use transform="translate(423.105469 0)" xlink:href="#Cmmi10-82"/>
      <use transform="translate(498.984375 0)" xlink:href="#Cmr10-40"/>
      <use transform="translate(537.802734 0)" xlink:href="#Cmmi10-116"/>
      <use transform="translate(573.886719 0)" xlink:href="#Cmr10-41"/>
     </g>
    </g>
   </g>
   <g id="line2d_43">
    <path clip-path="url(#pca5160506c)" d="M 56.24 36.85303 
L 59.945501 36.968345 
L 63.651003 37.123849 
L 67.356504 37.333472 
L 71.062006 37.615913 
L 74.767507 37.996214 
L 78.473008 38.507829 
L 82.17851 39.195279 
L 85.884011 40.117522 
L 89.589512 41.352094 
L 93.295014 43.000034 
L 97.000515 45.191343 
L 100.706017 48.090404 
L 104.411518 51.900135 
L 108.117019 56.862694 
L 111.822521 63.25338 
L 115.528022 71.363201 
L 119.233524 81.465429 
L 122.939025 93.763606 
L 126.644526 108.324752 
L 130.350028 125.01185 
L 134.055529 143.440487 
L 137.76103 162.987246 
L 141.466532 182.863884 
L 145.172033 202.243246 
L 148.877535 220.396295 
L 152.583036 236.794031 
L 156.288537 251.147617 
L 159.994039 263.389516 
L 163.69954 273.618606 
L 167.405042 282.035612 
L 171.110543 288.887071 
L 174.816044 294.425439 
L 178.521546 298.885269 
L 182.227047 302.471824 
L 185.932548 305.357866 
L 189.63805 307.685072 
L 193.343551 309.567644 
L 197.049053 311.096619 
L 200.754554 312.344073 
L 204.460055 313.36687 
L 208.165557 314.209812 
L 211.871058 314.908216 
L 215.57656 315.489964 
L 219.282061 315.977129 
L 222.987562 316.387241 
L 226.693064 316.734277 
L 230.398565 317.029423 
L 234.104067 317.281672 
L 237.809568 317.498287 
L 241.515069 317.685156 
L 245.220571 317.847082 
L 248.926072 317.987992 
L 252.631573 318.111119 
L 256.337075 318.219129 
L 260.042576 318.314237 
L 263.748078 318.398287 
L 267.453579 318.472822 
L 271.15908 318.539138 
L 274.864582 318.598328 
L 278.570083 318.651318 
L 282.275585 318.698894 
L 285.981086 318.741726 
L 289.686587 318.78039 
L 293.392089 318.815379 
L 297.09759 318.847117 
L 300.803091 318.875973 
L 304.508593 318.902266 
L 308.214094 318.926272 
L 311.919596 318.948234 
L 315.625097 318.968364 
L 319.330598 318.986848 
L 323.0361 319.003849 
L 326.741601 319.019513 
L 330.447103 319.033966 
L 334.152604 319.047321 
L 337.858105 319.059681 
L 341.563607 319.071133 
L 345.269108 319.081759 
L 348.974609 319.09163 
L 352.680111 319.10081 
L 356.385612 319.109358 
L 360.091114 319.117324 
L 363.796615 319.124756 
L 367.502116 319.131696 
L 371.207618 319.138183 
L 374.913119 319.144252 
L 378.618621 319.149934 
L 382.324122 319.155258 
L 386.029623 319.16025 
L 389.735125 319.164935 
L 393.440626 319.169334 
L 397.146127 319.173466 
L 400.851629 319.177352 
L 404.55713 319.181008 
L 408.262632 319.184448 
L 411.968133 319.187688 
L 415.673634 319.190741 
L 419.379136 319.193618 
L 423.084637 319.196332 
L 426.790139 319.198893 
" style="fill:none;stroke:#0000ff;stroke-linecap:square;stroke-width:2;"/>
   </g>
   <g id="line2d_44">
    <path clip-path="url(#pca5160506c)" d="M 56.24 319.221574 
L 59.945501 319.122753 
L 63.651003 318.989501 
L 67.356504 318.809894 
L 71.062006 318.567931 
L 74.767507 318.242197 
L 78.473008 317.804108 
L 82.17851 317.215662 
L 85.884011 316.426622 
L 89.589512 315.371053 
L 93.295014 313.963293 
L 97.000515 312.093585 
L 100.706017 309.623967 
L 104.411518 306.385607 
L 108.117019 302.179639 
L 111.822521 296.784618 
L 115.528022 289.974672 
L 119.233524 281.552426 
L 122.939025 271.398387 
L 126.644526 259.532347 
L 130.350028 246.172394 
L 134.055529 231.767377 
L 137.76103 216.977216 
L 141.466532 202.589992 
L 145.172033 189.392741 
L 148.877535 178.037896 
L 152.583036 168.950657 
L 156.288537 162.301196 
L 159.994039 158.035694 
L 163.69954 155.940889 
L 167.405042 155.714836 
L 171.110543 157.025824 
L 174.816044 159.552674 
L 178.521546 163.007406 
L 182.227047 167.144679 
L 185.932548 171.762825 
L 189.63805 176.700317 
L 193.343551 181.83029 
L 197.049053 187.054644 
L 200.754554 192.298542 
L 204.460055 197.505618 
L 208.165557 202.634013 
L 211.871058 207.653151 
L 215.57656 212.541189 
L 219.282061 217.283012 
L 222.987562 221.868668 
L 226.693064 226.292153 
L 230.398565 230.550476 
L 234.104067 234.642927 
L 237.809568 238.57052 
L 241.515069 242.335552 
L 245.220571 245.941275 
L 248.926072 249.391629 
L 252.631573 252.691043 
L 256.337075 255.844276 
L 260.042576 258.856301 
L 263.748078 261.732207 
L 267.453579 264.477129 
L 271.15908 267.096191 
L 274.864582 269.594467 
L 278.570083 271.976945 
L 282.275585 274.248507 
L 285.981086 276.413906 
L 289.686587 278.477762 
L 293.392089 280.444546 
L 297.09759 282.318577 
L 300.803091 284.104021 
L 304.508593 285.804887 
L 308.214094 287.42503 
L 311.919596 288.96815 
L 315.625097 290.437798 
L 319.330598 291.837375 
L 323.0361 293.170139 
L 326.741601 294.439209 
L 330.447103 295.647565 
L 334.152604 296.798058 
L 337.858105 297.893413 
L 341.563607 298.936231 
L 345.269108 299.928997 
L 348.974609 300.87408 
L 352.680111 301.773745 
L 356.385612 302.63015 
L 360.091114 303.445354 
L 363.796615 304.221321 
L 367.502116 304.959923 
L 371.207618 305.662945 
L 374.913119 306.332088 
L 378.618621 306.968974 
L 382.324122 307.575148 
L 386.029623 308.152081 
L 389.735125 308.701177 
L 393.440626 309.223773 
L 397.146127 309.72114 
L 400.851629 310.194491 
L 404.55713 310.644981 
L 408.262632 311.073711 
L 411.968133 311.481726 
L 415.673634 311.870025 
L 419.379136 312.239557 
L 423.084637 312.591226 
L 426.790139 312.925894 
" style="fill:none;stroke:#ff0000;stroke-linecap:square;stroke-width:2;"/>
   </g>
   <g id="line2d_45">
    <path clip-path="url(#pca5160506c)" d="M 56.24 319.504509 
L 59.945501 319.488015 
L 63.651003 319.465763 
L 67.356504 319.435747 
L 71.062006 319.395269 
L 74.767507 319.340702 
L 78.473008 319.267177 
L 82.17851 319.168171 
L 85.884011 319.034969 
L 89.589512 318.855966 
L 93.295014 318.615786 
L 97.000515 318.294185 
L 100.706017 317.864742 
L 104.411518 317.293371 
L 108.117019 316.53678 
L 111.822521 315.541116 
L 115.528022 314.24124 
L 119.233524 312.561258 
L 122.939025 310.41712 
L 126.644526 307.722014 
L 130.350028 304.39487 
L 134.055529 300.371249 
L 137.76103 295.614651 
L 141.466532 290.125236 
L 145.172033 283.943125 
L 148.877535 277.144922 
L 152.583036 269.834425 
L 156.288537 262.1303 
L 159.994039 254.153904 
L 163.69954 246.019617 
L 167.405042 237.828664 
L 171.110543 229.666218 
L 174.816044 221.601 
L 178.521546 213.686438 
L 182.227047 205.962609 
L 185.932548 198.458422 
L 189.63805 191.193724 
L 193.343551 184.181179 
L 197.049053 177.42785 
L 200.754554 170.936499 
L 204.460055 164.706625 
L 208.165557 158.735287 
L 211.871058 153.017746 
L 215.57656 147.54796 
L 219.282061 142.318972 
L 222.987562 137.323204 
L 226.693064 132.552682 
L 230.398565 127.999214 
L 234.104067 123.654513 
L 237.809568 119.510307 
L 241.515069 115.558404 
L 245.220571 111.790756 
L 248.926072 108.199491 
L 252.631573 104.776952 
L 256.337075 101.515708 
L 260.042576 98.408575 
L 263.748078 95.448619 
L 267.453579 92.629162 
L 271.15908 89.943783 
L 274.864582 87.386317 
L 278.570083 84.95085 
L 282.275585 82.631713 
L 285.981086 80.42348 
L 289.686587 78.32096 
L 293.392089 76.319188 
L 297.09759 74.413418 
L 300.803091 72.599119 
L 304.508593 70.87196 
L 308.214094 69.227811 
L 311.919596 67.662729 
L 315.625097 66.172951 
L 319.330598 64.75489 
L 323.0361 63.405124 
L 326.741601 62.120392 
L 330.447103 60.897583 
L 334.152604 59.733733 
L 337.858105 58.626019 
L 341.563607 57.571748 
L 345.269108 56.568357 
L 348.974609 55.613402 
L 352.680111 54.704557 
L 356.385612 53.839605 
L 360.091114 53.016435 
L 363.796615 52.233036 
L 367.502116 51.487494 
L 371.207618 50.777984 
L 374.913119 50.102773 
L 378.618621 49.460205 
L 382.324122 48.848707 
L 386.029623 48.266781 
L 389.735125 47.713001 
L 393.440626 47.186007 
L 397.146127 46.684507 
L 400.851629 46.20727 
L 404.55713 45.753124 
L 408.262632 45.320954 
L 411.968133 44.909699 
L 415.673634 44.518347 
L 419.379136 44.145938 
L 423.084637 43.791555 
L 426.790139 43.454326 
" style="fill:none;stroke:#006400;stroke-linecap:square;stroke-width:2;"/>
   </g>
   <g id="patch_3">
    <path d="M 56.24 325.157538 
L 56.24 31.2 
" style="fill:none;stroke:#000000;stroke-linecap:square;stroke-linejoin:miter;stroke-width:0.8;"/>
   </g>
   <g id="patch_4">
    <path d="M 48.828997 319.504509 
L 434.201141 319.504509 
" style="fill:none;stroke:#000000;stroke-linecap:square;stroke-linejoin:miter;stroke-width:0.8;"/>
   </g>
   <g id="legend_1">
    <g id="patch_5">
     <path d="M 394.701141 201.526425 
L 431.201141 201.526425 
L 431.201141 158.831113 
L 394.701141 158.831113 
z
" style="fill:#4c4c4c;opacity:0.5;stroke:#4c4c4c;stroke-linejoin:miter;"/>
    </g>
    <g id="patch_6">
     <path d="M 392.701141 199.526425 
L 429.201141 199.526425 
L 429.201141 156.831113 
L 392.701141 156.831113 
z
" style="fill:#ffffff;stroke:#cccccc;stroke-linejoin:miter;"/>
    </g>
    <g id="line2d_46">
     <path d="M 401.701141 166.92955 
L 396.201141 166.92955 
" style="fill:none;stroke:#0000ff;stroke-linecap:square;stroke-width:2;"/>
    </g>
    <g id="line2d_47"/>
    <g id="text_13">
     <!-- $S(t)$ -->
     <g style="fill:#0000ff;" transform="translate(404.201141 170.42955)scale(0.1 -0.1)">
      <use xlink:href="#Cmmi10-83"/>
      <use transform="translate(61.279297 0)" xlink:href="#Cmr10-40"/>
      <use transform="translate(100.097656 0)" xlink:href="#Cmmi10-116"/>
      <use transform="translate(136.181641 0)" xlink:href="#Cmr10-41"/>
     </g>
    </g>
    <g id="line2d_48">
     <path d="M 401.701141 177.227988 
L 396.201141 177.227988 
" style="fill:none;stroke:#ff0000;stroke-linecap:square;stroke-width:2;"/>
    </g>
    <g id="line2d_49"/>
    <g id="text_14">
     <!-- $I(t)$ -->
     <g style="fill:#ff0000;" transform="translate(404.201141 180.727988)scale(0.1 -0.1)">
      <use xlink:href="#Cmmi10-73"/>
      <use transform="translate(43.896484 0)" xlink:href="#Cmr10-40"/>
      <use transform="translate(82.714844 0)" xlink:href="#Cmmi10-116"/>
      <use transform="translate(118.798828 0)" xlink:href="#Cmr10-41"/>
     </g>
    </g>
    <g id="line2d_50">
     <path d="M 401.701141 187.526425 
L 396.201141 187.526425 
" style="fill:none;stroke:#006400;stroke-linecap:square;stroke-width:2;"/>
    </g>
    <g id="line2d_51"/>
    <g id="text_15">
     <!-- $R(t)$ -->
     <g style="fill:#006400;" transform="translate(404.201141 191.026425)scale(0.1 -0.1)">
      <use xlink:href="#Cmmi10-82"/>
      <use transform="translate(75.878906 0)" xlink:href="#Cmr10-40"/>
      <use transform="translate(114.697266 0)" xlink:href="#Cmmi10-116"/>
      <use transform="translate(150.78125 0)" xlink:href="#Cmr10-41"/>
     </g>
    </g>
   </g>
  </g>
 </g>
 <defs>
  <clipPath id="pca5160506c">
   <rect height="293.957538" width="385.372144" x="48.828997" y="31.2"/>
  </clipPath>
 </defs>
</svg>
