<?xml version="1.0" encoding="utf-8" standalone="no"?>
<!DOCTYPE svg PUBLIC "-//W3C//DTD SVG 1.1//EN"
  "http://www.w3.org/Graphics/SVG/1.1/DTD/svg11.dtd">
<!-- Created with matplotlib (https://matplotlib.org/) -->
<svg height="343.918125pt" version="1.1" viewBox="0 0 455.022525 343.918125" width="455.022525pt" xmlns="http://www.w3.org/2000/svg" xmlns:xlink="http://www.w3.org/1999/xlink">
 <metadata>
  <rdf:RDF xmlns:cc="http://creativecommons.org/ns#" xmlns:dc="http://purl.org/dc/elements/1.1/" xmlns:rdf="http://www.w3.org/1999/02/22-rdf-syntax-ns#">
   <cc:Work>
    <dc:type rdf:resource="http://purl.org/dc/dcmitype/StillImage"/>
    <dc:date>2024-07-29T14:45:44.941854</dc:date>
    <dc:format>image/svg+xml</dc:format>
    <dc:creator>
     <cc:Agent>
      <dc:title>Matplotlib v3.3.4, https://matplotlib.org/</dc:title>
     </cc:Agent>
    </dc:creator>
   </cc:Work>
  </rdf:RDF>
 </metadata>
 <defs>
  <style type="text/css">*{stroke-linecap:butt;stroke-linejoin:round;}</style>
 </defs>
 <g id="figure_1">
  <g id="patch_1">
   <path d="M 0 343.918125 
L 455.022525 343.918125 
L 455.022525 0 
L 0 0 
z
" style="fill:#ffffff;"/>
  </g>
  <g id="axes_1">
   <g id="patch_2">
    <path d="M 33.418382 310.04 
L 433.902525 310.04 
L 433.902525 31.2 
L 33.418382 31.2 
z
" style="fill:#ffffff;"/>
   </g>
   <g id="matplotlib.axis_1">
    <g id="xtick_1">
     <g id="line2d_1">
      <defs>
       <path d="M 0 0 
L 0 3.5 
" id="m50c411791a" style="stroke:#000000;stroke-width:0.8;"/>
      </defs>
      <g>
       <use style="stroke:#000000;stroke-width:0.8;" x="41.12" xlink:href="#m50c411791a" y="320.04"/>
      </g>
     </g>
     <g id="text_1">
      <!-- 0 -->
      <g transform="translate(37.93875 334.638437)scale(0.1 -0.1)">
       <defs>
        <path d="M 31.78125 66.40625 
Q 24.171875 66.40625 20.328125 58.90625 
Q 16.5 51.421875 16.5 36.375 
Q 16.5 21.390625 20.328125 13.890625 
Q 24.171875 6.390625 31.78125 6.390625 
Q 39.453125 6.390625 43.28125 13.890625 
Q 47.125 21.390625 47.125 36.375 
Q 47.125 51.421875 43.28125 58.90625 
Q 39.453125 66.40625 31.78125 66.40625 
z
M 31.78125 74.21875 
Q 44.046875 74.21875 50.515625 64.515625 
Q 56.984375 54.828125 56.984375 36.375 
Q 56.984375 17.96875 50.515625 8.265625 
Q 44.046875 -1.421875 31.78125 -1.421875 
Q 19.53125 -1.421875 13.0625 8.265625 
Q 6.59375 17.96875 6.59375 36.375 
Q 6.59375 54.828125 13.0625 64.515625 
Q 19.53125 74.21875 31.78125 74.21875 
z
" id="DejaVuSans-48"/>
       </defs>
       <use xlink:href="#DejaVuSans-48"/>
      </g>
     </g>
    </g>
    <g id="xtick_2">
     <g id="line2d_2">
      <g>
       <use style="stroke:#000000;stroke-width:0.8;" x="118.136181" xlink:href="#m50c411791a" y="320.04"/>
      </g>
     </g>
     <g id="text_2">
      <!-- 20 -->
      <g transform="translate(111.773681 334.638437)scale(0.1 -0.1)">
       <defs>
        <path d="M 19.1875 8.296875 
L 53.609375 8.296875 
L 53.609375 0 
L 7.328125 0 
L 7.328125 8.296875 
Q 12.9375 14.109375 22.625 23.890625 
Q 32.328125 33.6875 34.8125 36.53125 
Q 39.546875 41.84375 41.421875 45.53125 
Q 43.3125 49.21875 43.3125 52.78125 
Q 43.3125 58.59375 39.234375 62.25 
Q 35.15625 65.921875 28.609375 65.921875 
Q 23.96875 65.921875 18.8125 64.3125 
Q 13.671875 62.703125 7.8125 59.421875 
L 7.8125 69.390625 
Q 13.765625 71.78125 18.9375 73 
Q 24.125 74.21875 28.421875 74.21875 
Q 39.75 74.21875 46.484375 68.546875 
Q 53.21875 62.890625 53.21875 53.421875 
Q 53.21875 48.921875 51.53125 44.890625 
Q 49.859375 40.875 45.40625 35.40625 
Q 44.1875 33.984375 37.640625 27.21875 
Q 31.109375 20.453125 19.1875 8.296875 
z
" id="DejaVuSans-50"/>
       </defs>
       <use xlink:href="#DejaVuSans-50"/>
       <use x="63.623047" xlink:href="#DejaVuSans-48"/>
      </g>
     </g>
    </g>
    <g id="xtick_3">
     <g id="line2d_3">
      <g>
       <use style="stroke:#000000;stroke-width:0.8;" x="195.152363" xlink:href="#m50c411791a" y="320.04"/>
      </g>
     </g>
     <g id="text_3">
      <!-- 40 -->
      <g transform="translate(188.789863 334.638437)scale(0.1 -0.1)">
       <defs>
        <path d="M 37.796875 64.3125 
L 12.890625 25.390625 
L 37.796875 25.390625 
z
M 35.203125 72.90625 
L 47.609375 72.90625 
L 47.609375 25.390625 
L 58.015625 25.390625 
L 58.015625 17.1875 
L 47.609375 17.1875 
L 47.609375 0 
L 37.796875 0 
L 37.796875 17.1875 
L 4.890625 17.1875 
L 4.890625 26.703125 
z
" id="DejaVuSans-52"/>
       </defs>
       <use xlink:href="#DejaVuSans-52"/>
       <use x="63.623047" xlink:href="#DejaVuSans-48"/>
      </g>
     </g>
    </g>
    <g id="xtick_4">
     <g id="line2d_4">
      <g>
       <use style="stroke:#000000;stroke-width:0.8;" x="272.168544" xlink:href="#m50c411791a" y="320.04"/>
      </g>
     </g>
     <g id="text_4">
      <!-- 60 -->
      <g transform="translate(265.806044 334.638437)scale(0.1 -0.1)">
       <defs>
        <path d="M 33.015625 40.375 
Q 26.375 40.375 22.484375 35.828125 
Q 18.609375 31.296875 18.609375 23.390625 
Q 18.609375 15.53125 22.484375 10.953125 
Q 26.375 6.390625 33.015625 6.390625 
Q 39.65625 6.390625 43.53125 10.953125 
Q 47.40625 15.53125 47.40625 23.390625 
Q 47.40625 31.296875 43.53125 35.828125 
Q 39.65625 40.375 33.015625 40.375 
z
M 52.59375 71.296875 
L 52.59375 62.3125 
Q 48.875 64.0625 45.09375 64.984375 
Q 41.3125 65.921875 37.59375 65.921875 
Q 27.828125 65.921875 22.671875 59.328125 
Q 17.53125 52.734375 16.796875 39.40625 
Q 19.671875 43.65625 24.015625 45.921875 
Q 28.375 48.1875 33.59375 48.1875 
Q 44.578125 48.1875 50.953125 41.515625 
Q 57.328125 34.859375 57.328125 23.390625 
Q 57.328125 12.15625 50.6875 5.359375 
Q 44.046875 -1.421875 33.015625 -1.421875 
Q 20.359375 -1.421875 13.671875 8.265625 
Q 6.984375 17.96875 6.984375 36.375 
Q 6.984375 53.65625 15.1875 63.9375 
Q 23.390625 74.21875 37.203125 74.21875 
Q 40.921875 74.21875 44.703125 73.484375 
Q 48.484375 72.75 52.59375 71.296875 
z
" id="DejaVuSans-54"/>
       </defs>
       <use xlink:href="#DejaVuSans-54"/>
       <use x="63.623047" xlink:href="#DejaVuSans-48"/>
      </g>
     </g>
    </g>
    <g id="xtick_5">
     <g id="line2d_5">
      <g>
       <use style="stroke:#000000;stroke-width:0.8;" x="349.184725" xlink:href="#m50c411791a" y="320.04"/>
      </g>
     </g>
     <g id="text_5">
      <!-- 80 -->
      <g transform="translate(342.822225 334.638437)scale(0.1 -0.1)">
       <defs>
        <path d="M 31.78125 34.625 
Q 24.75 34.625 20.71875 30.859375 
Q 16.703125 27.09375 16.703125 20.515625 
Q 16.703125 13.921875 20.71875 10.15625 
Q 24.75 6.390625 31.78125 6.390625 
Q 38.8125 6.390625 42.859375 10.171875 
Q 46.921875 13.96875 46.921875 20.515625 
Q 46.921875 27.09375 42.890625 30.859375 
Q 38.875 34.625 31.78125 34.625 
z
M 21.921875 38.8125 
Q 15.578125 40.375 12.03125 44.71875 
Q 8.5 49.078125 8.5 55.328125 
Q 8.5 64.0625 14.71875 69.140625 
Q 20.953125 74.21875 31.78125 74.21875 
Q 42.671875 74.21875 48.875 69.140625 
Q 55.078125 64.0625 55.078125 55.328125 
Q 55.078125 49.078125 51.53125 44.71875 
Q 48 40.375 41.703125 38.8125 
Q 48.828125 37.15625 52.796875 32.3125 
Q 56.78125 27.484375 56.78125 20.515625 
Q 56.78125 9.90625 50.3125 4.234375 
Q 43.84375 -1.421875 31.78125 -1.421875 
Q 19.734375 -1.421875 13.25 4.234375 
Q 6.78125 9.90625 6.78125 20.515625 
Q 6.78125 27.484375 10.78125 32.3125 
Q 14.796875 37.15625 21.921875 38.8125 
z
M 18.3125 54.390625 
Q 18.3125 48.734375 21.84375 45.5625 
Q 25.390625 42.390625 31.78125 42.390625 
Q 38.140625 42.390625 41.71875 45.5625 
Q 45.3125 48.734375 45.3125 54.390625 
Q 45.3125 60.0625 41.71875 63.234375 
Q 38.140625 66.40625 31.78125 66.40625 
Q 25.390625 66.40625 21.84375 63.234375 
Q 18.3125 60.0625 18.3125 54.390625 
z
" id="DejaVuSans-56"/>
       </defs>
       <use xlink:href="#DejaVuSans-56"/>
       <use x="63.623047" xlink:href="#DejaVuSans-48"/>
      </g>
     </g>
    </g>
    <g id="xtick_6">
     <g id="line2d_6">
      <g>
       <use style="stroke:#000000;stroke-width:0.8;" x="426.200906" xlink:href="#m50c411791a" y="320.04"/>
      </g>
     </g>
     <g id="text_6">
      <!-- 100 -->
      <g transform="translate(416.657156 334.638437)scale(0.1 -0.1)">
       <defs>
        <path d="M 12.40625 8.296875 
L 28.515625 8.296875 
L 28.515625 63.921875 
L 10.984375 60.40625 
L 10.984375 69.390625 
L 28.421875 72.90625 
L 38.28125 72.90625 
L 38.28125 8.296875 
L 54.390625 8.296875 
L 54.390625 0 
L 12.40625 0 
z
" id="DejaVuSans-49"/>
       </defs>
       <use xlink:href="#DejaVuSans-49"/>
       <use x="63.623047" xlink:href="#DejaVuSans-48"/>
       <use x="127.246094" xlink:href="#DejaVuSans-48"/>
      </g>
     </g>
    </g>
    <g id="xtick_7">
     <g id="line2d_7">
      <defs>
       <path d="M 0 0 
L 0 2 
" id="m53d30d01be" style="stroke:#000000;stroke-width:0.6;"/>
      </defs>
      <g>
       <use style="stroke:#000000;stroke-width:0.6;" x="60.374045" xlink:href="#m53d30d01be" y="320.04"/>
      </g>
     </g>
    </g>
    <g id="xtick_8">
     <g id="line2d_8">
      <g>
       <use style="stroke:#000000;stroke-width:0.6;" x="79.628091" xlink:href="#m53d30d01be" y="320.04"/>
      </g>
     </g>
    </g>
    <g id="xtick_9">
     <g id="line2d_9">
      <g>
       <use style="stroke:#000000;stroke-width:0.6;" x="98.882136" xlink:href="#m53d30d01be" y="320.04"/>
      </g>
     </g>
    </g>
    <g id="xtick_10">
     <g id="line2d_10">
      <g>
       <use style="stroke:#000000;stroke-width:0.6;" x="137.390227" xlink:href="#m53d30d01be" y="320.04"/>
      </g>
     </g>
    </g>
    <g id="xtick_11">
     <g id="line2d_11">
      <g>
       <use style="stroke:#000000;stroke-width:0.6;" x="156.644272" xlink:href="#m53d30d01be" y="320.04"/>
      </g>
     </g>
    </g>
    <g id="xtick_12">
     <g id="line2d_12">
      <g>
       <use style="stroke:#000000;stroke-width:0.6;" x="175.898317" xlink:href="#m53d30d01be" y="320.04"/>
      </g>
     </g>
    </g>
    <g id="xtick_13">
     <g id="line2d_13">
      <g>
       <use style="stroke:#000000;stroke-width:0.6;" x="214.406408" xlink:href="#m53d30d01be" y="320.04"/>
      </g>
     </g>
    </g>
    <g id="xtick_14">
     <g id="line2d_14">
      <g>
       <use style="stroke:#000000;stroke-width:0.6;" x="233.660453" xlink:href="#m53d30d01be" y="320.04"/>
      </g>
     </g>
    </g>
    <g id="xtick_15">
     <g id="line2d_15">
      <g>
       <use style="stroke:#000000;stroke-width:0.6;" x="252.914499" xlink:href="#m53d30d01be" y="320.04"/>
      </g>
     </g>
    </g>
    <g id="xtick_16">
     <g id="line2d_16">
      <g>
       <use style="stroke:#000000;stroke-width:0.6;" x="291.422589" xlink:href="#m53d30d01be" y="320.04"/>
      </g>
     </g>
    </g>
    <g id="xtick_17">
     <g id="line2d_17">
      <g>
       <use style="stroke:#000000;stroke-width:0.6;" x="310.676635" xlink:href="#m53d30d01be" y="320.04"/>
      </g>
     </g>
    </g>
    <g id="xtick_18">
     <g id="line2d_18">
      <g>
       <use style="stroke:#000000;stroke-width:0.6;" x="329.93068" xlink:href="#m53d30d01be" y="320.04"/>
      </g>
     </g>
    </g>
    <g id="xtick_19">
     <g id="line2d_19">
      <g>
       <use style="stroke:#000000;stroke-width:0.6;" x="368.438771" xlink:href="#m53d30d01be" y="320.04"/>
      </g>
     </g>
    </g>
    <g id="xtick_20">
     <g id="line2d_20">
      <g>
       <use style="stroke:#000000;stroke-width:0.6;" x="387.692816" xlink:href="#m53d30d01be" y="320.04"/>
      </g>
     </g>
    </g>
    <g id="xtick_21">
     <g id="line2d_21">
      <g>
       <use style="stroke:#000000;stroke-width:0.6;" x="406.946861" xlink:href="#m53d30d01be" y="320.04"/>
      </g>
     </g>
    </g>
    <g id="text_7">
     <!-- $t$ -->
     <g transform="translate(441.902525 320.04)scale(0.16 -0.16)">
      <defs>
       <path d="M 6.203125 8.109375 
Q 6.203125 9.578125 6.5 10.890625 
L 13.71875 39.59375 
L 3.21875 39.59375 
Q 2.203125 39.59375 2.203125 40.921875 
Q 2.59375 43.109375 3.515625 43.109375 
L 14.59375 43.109375 
L 18.609375 59.421875 
Q 19 60.75 20.171875 61.671875 
Q 21.34375 62.59375 22.796875 62.59375 
Q 24.078125 62.59375 24.921875 61.828125 
Q 25.78125 61.078125 25.78125 59.8125 
Q 25.78125 59.515625 25.75 59.34375 
Q 25.734375 59.1875 25.6875 58.984375 
L 21.6875 43.109375 
L 31.984375 43.109375 
Q 33.015625 43.109375 33.015625 41.796875 
Q 32.953125 41.546875 32.8125 40.953125 
Q 32.671875 40.375 32.421875 39.984375 
Q 32.171875 39.59375 31.6875 39.59375 
L 20.796875 39.59375 
L 13.625 10.6875 
Q 12.890625 7.859375 12.890625 5.8125 
Q 12.890625 1.515625 15.828125 1.515625 
Q 20.21875 1.515625 23.609375 5.640625 
Q 27 9.765625 28.8125 14.703125 
Q 29.203125 15.28125 29.59375 15.28125 
L 30.8125 15.28125 
Q 31.203125 15.28125 31.4375 15.015625 
Q 31.6875 14.75 31.6875 14.40625 
Q 31.6875 14.203125 31.59375 14.109375 
Q 29.390625 8.0625 25.1875 3.46875 
Q 21 -1.125 15.578125 -1.125 
Q 11.625 -1.125 8.90625 1.453125 
Q 6.203125 4.046875 6.203125 8.109375 
z
" id="Cmmi10-116"/>
      </defs>
      <use transform="translate(0 0.40625)" xlink:href="#Cmmi10-116"/>
     </g>
    </g>
   </g>
   <g id="matplotlib.axis_2">
    <g id="ytick_1">
     <g id="line2d_22">
      <defs>
       <path d="M 0 0 
L -3.5 0 
" id="m6e23871283" style="stroke:#000000;stroke-width:0.8;"/>
      </defs>
      <g>
       <use style="stroke:#000000;stroke-width:0.8;" x="41.12" xlink:href="#m6e23871283" y="305.606131"/>
      </g>
     </g>
     <g id="text_8">
      <!-- 30 -->
      <g transform="translate(21.395 309.40535)scale(0.1 -0.1)">
       <defs>
        <path d="M 40.578125 39.3125 
Q 47.65625 37.796875 51.625 33 
Q 55.609375 28.21875 55.609375 21.1875 
Q 55.609375 10.40625 48.1875 4.484375 
Q 40.765625 -1.421875 27.09375 -1.421875 
Q 22.515625 -1.421875 17.65625 -0.515625 
Q 12.796875 0.390625 7.625 2.203125 
L 7.625 11.71875 
Q 11.71875 9.328125 16.59375 8.109375 
Q 21.484375 6.890625 26.8125 6.890625 
Q 36.078125 6.890625 40.9375 10.546875 
Q 45.796875 14.203125 45.796875 21.1875 
Q 45.796875 27.640625 41.28125 31.265625 
Q 36.765625 34.90625 28.71875 34.90625 
L 20.21875 34.90625 
L 20.21875 43.015625 
L 29.109375 43.015625 
Q 36.375 43.015625 40.234375 45.921875 
Q 44.09375 48.828125 44.09375 54.296875 
Q 44.09375 59.90625 40.109375 62.90625 
Q 36.140625 65.921875 28.71875 65.921875 
Q 24.65625 65.921875 20.015625 65.03125 
Q 15.375 64.15625 9.8125 62.3125 
L 9.8125 71.09375 
Q 15.4375 72.65625 20.34375 73.4375 
Q 25.25 74.21875 29.59375 74.21875 
Q 40.828125 74.21875 47.359375 69.109375 
Q 53.90625 64.015625 53.90625 55.328125 
Q 53.90625 49.265625 50.4375 45.09375 
Q 46.96875 40.921875 40.578125 39.3125 
z
" id="DejaVuSans-51"/>
       </defs>
       <use xlink:href="#DejaVuSans-51"/>
       <use x="63.623047" xlink:href="#DejaVuSans-48"/>
      </g>
     </g>
    </g>
    <g id="ytick_2">
     <g id="line2d_23">
      <g>
       <use style="stroke:#000000;stroke-width:0.8;" x="41.12" xlink:href="#m6e23871283" y="252.471142"/>
      </g>
     </g>
     <g id="text_9">
      <!-- 40 -->
      <g transform="translate(21.395 256.270361)scale(0.1 -0.1)">
       <use xlink:href="#DejaVuSans-52"/>
       <use x="63.623047" xlink:href="#DejaVuSans-48"/>
      </g>
     </g>
    </g>
    <g id="ytick_3">
     <g id="line2d_24">
      <g>
       <use style="stroke:#000000;stroke-width:0.8;" x="41.12" xlink:href="#m6e23871283" y="199.336153"/>
      </g>
     </g>
     <g id="text_10">
      <!-- 50 -->
      <g transform="translate(21.395 203.135371)scale(0.1 -0.1)">
       <defs>
        <path d="M 10.796875 72.90625 
L 49.515625 72.90625 
L 49.515625 64.59375 
L 19.828125 64.59375 
L 19.828125 46.734375 
Q 21.96875 47.46875 24.109375 47.828125 
Q 26.265625 48.1875 28.421875 48.1875 
Q 40.625 48.1875 47.75 41.5 
Q 54.890625 34.8125 54.890625 23.390625 
Q 54.890625 11.625 47.5625 5.09375 
Q 40.234375 -1.421875 26.90625 -1.421875 
Q 22.3125 -1.421875 17.546875 -0.640625 
Q 12.796875 0.140625 7.71875 1.703125 
L 7.71875 11.625 
Q 12.109375 9.234375 16.796875 8.0625 
Q 21.484375 6.890625 26.703125 6.890625 
Q 35.15625 6.890625 40.078125 11.328125 
Q 45.015625 15.765625 45.015625 23.390625 
Q 45.015625 31 40.078125 35.4375 
Q 35.15625 39.890625 26.703125 39.890625 
Q 22.75 39.890625 18.8125 39.015625 
Q 14.890625 38.140625 10.796875 36.28125 
z
" id="DejaVuSans-53"/>
       </defs>
       <use xlink:href="#DejaVuSans-53"/>
       <use x="63.623047" xlink:href="#DejaVuSans-48"/>
      </g>
     </g>
    </g>
    <g id="ytick_4">
     <g id="line2d_25">
      <g>
       <use style="stroke:#000000;stroke-width:0.8;" x="41.12" xlink:href="#m6e23871283" y="146.201163"/>
      </g>
     </g>
     <g id="text_11">
      <!-- 60 -->
      <g transform="translate(21.395 150.000382)scale(0.1 -0.1)">
       <use xlink:href="#DejaVuSans-54"/>
       <use x="63.623047" xlink:href="#DejaVuSans-48"/>
      </g>
     </g>
    </g>
    <g id="ytick_5">
     <g id="line2d_26">
      <g>
       <use style="stroke:#000000;stroke-width:0.8;" x="41.12" xlink:href="#m6e23871283" y="93.066174"/>
      </g>
     </g>
     <g id="text_12">
      <!-- 70 -->
      <g transform="translate(21.395 96.865393)scale(0.1 -0.1)">
       <defs>
        <path d="M 8.203125 72.90625 
L 55.078125 72.90625 
L 55.078125 68.703125 
L 28.609375 0 
L 18.3125 0 
L 43.21875 64.59375 
L 8.203125 64.59375 
z
" id="DejaVuSans-55"/>
       </defs>
       <use xlink:href="#DejaVuSans-55"/>
       <use x="63.623047" xlink:href="#DejaVuSans-48"/>
      </g>
     </g>
    </g>
    <g id="ytick_6">
     <g id="line2d_27">
      <g>
       <use style="stroke:#000000;stroke-width:0.8;" x="41.12" xlink:href="#m6e23871283" y="39.931184"/>
      </g>
     </g>
     <g id="text_13">
      <!-- 80 -->
      <g transform="translate(21.395 43.730403)scale(0.1 -0.1)">
       <use xlink:href="#DejaVuSans-56"/>
       <use x="63.623047" xlink:href="#DejaVuSans-48"/>
      </g>
     </g>
    </g>
    <g id="ytick_7">
     <g id="line2d_28">
      <defs>
       <path d="M 0 0 
L -2 0 
" id="m178596c3f6" style="stroke:#000000;stroke-width:0.6;"/>
      </defs>
      <g>
       <use style="stroke:#000000;stroke-width:0.6;" x="41.12" xlink:href="#m178596c3f6" y="294.979134"/>
      </g>
     </g>
    </g>
    <g id="ytick_8">
     <g id="line2d_29">
      <g>
       <use style="stroke:#000000;stroke-width:0.6;" x="41.12" xlink:href="#m178596c3f6" y="284.352136"/>
      </g>
     </g>
    </g>
    <g id="ytick_9">
     <g id="line2d_30">
      <g>
       <use style="stroke:#000000;stroke-width:0.6;" x="41.12" xlink:href="#m178596c3f6" y="273.725138"/>
      </g>
     </g>
    </g>
    <g id="ytick_10">
     <g id="line2d_31">
      <g>
       <use style="stroke:#000000;stroke-width:0.6;" x="41.12" xlink:href="#m178596c3f6" y="263.09814"/>
      </g>
     </g>
    </g>
    <g id="ytick_11">
     <g id="line2d_32">
      <g>
       <use style="stroke:#000000;stroke-width:0.6;" x="41.12" xlink:href="#m178596c3f6" y="241.844144"/>
      </g>
     </g>
    </g>
    <g id="ytick_12">
     <g id="line2d_33">
      <g>
       <use style="stroke:#000000;stroke-width:0.6;" x="41.12" xlink:href="#m178596c3f6" y="231.217146"/>
      </g>
     </g>
    </g>
    <g id="ytick_13">
     <g id="line2d_34">
      <g>
       <use style="stroke:#000000;stroke-width:0.6;" x="41.12" xlink:href="#m178596c3f6" y="220.590148"/>
      </g>
     </g>
    </g>
    <g id="ytick_14">
     <g id="line2d_35">
      <g>
       <use style="stroke:#000000;stroke-width:0.6;" x="41.12" xlink:href="#m178596c3f6" y="209.96315"/>
      </g>
     </g>
    </g>
    <g id="ytick_15">
     <g id="line2d_36">
      <g>
       <use style="stroke:#000000;stroke-width:0.6;" x="41.12" xlink:href="#m178596c3f6" y="188.709155"/>
      </g>
     </g>
    </g>
    <g id="ytick_16">
     <g id="line2d_37">
      <g>
       <use style="stroke:#000000;stroke-width:0.6;" x="41.12" xlink:href="#m178596c3f6" y="178.082157"/>
      </g>
     </g>
    </g>
    <g id="ytick_17">
     <g id="line2d_38">
      <g>
       <use style="stroke:#000000;stroke-width:0.6;" x="41.12" xlink:href="#m178596c3f6" y="167.455159"/>
      </g>
     </g>
    </g>
    <g id="ytick_18">
     <g id="line2d_39">
      <g>
       <use style="stroke:#000000;stroke-width:0.6;" x="41.12" xlink:href="#m178596c3f6" y="156.828161"/>
      </g>
     </g>
    </g>
    <g id="ytick_19">
     <g id="line2d_40">
      <g>
       <use style="stroke:#000000;stroke-width:0.6;" x="41.12" xlink:href="#m178596c3f6" y="135.574165"/>
      </g>
     </g>
    </g>
    <g id="ytick_20">
     <g id="line2d_41">
      <g>
       <use style="stroke:#000000;stroke-width:0.6;" x="41.12" xlink:href="#m178596c3f6" y="124.947167"/>
      </g>
     </g>
    </g>
    <g id="ytick_21">
     <g id="line2d_42">
      <g>
       <use style="stroke:#000000;stroke-width:0.6;" x="41.12" xlink:href="#m178596c3f6" y="114.32017"/>
      </g>
     </g>
    </g>
    <g id="ytick_22">
     <g id="line2d_43">
      <g>
       <use style="stroke:#000000;stroke-width:0.6;" x="41.12" xlink:href="#m178596c3f6" y="103.693172"/>
      </g>
     </g>
    </g>
    <g id="ytick_23">
     <g id="line2d_44">
      <g>
       <use style="stroke:#000000;stroke-width:0.6;" x="41.12" xlink:href="#m178596c3f6" y="82.439176"/>
      </g>
     </g>
    </g>
    <g id="ytick_24">
     <g id="line2d_45">
      <g>
       <use style="stroke:#000000;stroke-width:0.6;" x="41.12" xlink:href="#m178596c3f6" y="71.812178"/>
      </g>
     </g>
    </g>
    <g id="ytick_25">
     <g id="line2d_46">
      <g>
       <use style="stroke:#000000;stroke-width:0.6;" x="41.12" xlink:href="#m178596c3f6" y="61.18518"/>
      </g>
     </g>
    </g>
    <g id="ytick_26">
     <g id="line2d_47">
      <g>
       <use style="stroke:#000000;stroke-width:0.6;" x="41.12" xlink:href="#m178596c3f6" y="50.558182"/>
      </g>
     </g>
    </g>
    <g id="text_14">
     <!-- $H(t), L(t)$ -->
     <g transform="translate(7.2 19.2)scale(0.16 -0.16)">
      <defs>
       <path d="M 4.6875 0 
Q 3.71875 0 3.71875 1.3125 
Q 3.765625 1.5625 3.90625 2.171875 
Q 4.046875 2.78125 4.3125 3.140625 
Q 4.59375 3.515625 4.984375 3.515625 
Q 11.078125 3.515625 13.484375 4.203125 
Q 14.796875 4.640625 15.375 6.890625 
L 29.109375 61.8125 
Q 29.296875 62.796875 29.296875 63.1875 
Q 29.296875 64.265625 28.078125 64.40625 
Q 26.21875 64.796875 20.90625 64.796875 
Q 19.921875 64.796875 19.921875 66.109375 
Q 20.265625 67.390625 20.453125 67.84375 
Q 20.65625 68.3125 21.578125 68.3125 
L 48.484375 68.3125 
Q 49.515625 68.3125 49.515625 67 
Q 49.46875 66.75 49.3125 66.15625 
Q 49.171875 65.578125 48.921875 65.1875 
Q 48.6875 64.796875 48.1875 64.796875 
Q 42.09375 64.796875 39.703125 64.109375 
Q 38.375 63.625 37.796875 61.375 
L 31.78125 37.3125 
L 61.8125 37.3125 
L 67.921875 61.8125 
Q 68.109375 62.796875 68.109375 63.1875 
Q 68.109375 64.265625 66.890625 64.40625 
Q 64.984375 64.796875 59.71875 64.796875 
Q 58.6875 64.796875 58.6875 66.109375 
Q 59.03125 67.390625 59.21875 67.84375 
Q 59.421875 68.3125 60.40625 68.3125 
L 87.3125 68.3125 
Q 88.28125 68.3125 88.28125 67 
Q 88.234375 66.75 88.078125 66.140625 
Q 87.9375 65.53125 87.671875 65.15625 
Q 87.40625 64.796875 87.015625 64.796875 
Q 80.90625 64.796875 78.515625 64.109375 
Q 77.203125 63.671875 76.609375 61.375 
L 62.890625 6.5 
Q 62.703125 5.515625 62.703125 5.078125 
Q 62.703125 4.046875 63.921875 3.90625 
Q 65.828125 3.515625 71.09375 3.515625 
Q 72.125 3.515625 72.125 2.203125 
Q 71.828125 1.03125 71.53125 0.515625 
Q 71.234375 0 70.40625 0 
L 43.5 0 
Q 42.484375 0 42.484375 1.3125 
Q 42.671875 2.046875 42.765625 2.390625 
Q 42.875 2.734375 43.140625 3.125 
Q 43.40625 3.515625 43.796875 3.515625 
Q 49.90625 3.515625 52.296875 4.203125 
Q 53.609375 4.640625 54.203125 6.890625 
L 60.890625 33.796875 
L 30.90625 33.796875 
L 24.125 6.5 
Q 23.875 5.28125 23.875 5.078125 
Q 23.875 4.046875 25.09375 3.90625 
Q 27 3.515625 32.328125 3.515625 
Q 33.296875 3.515625 33.296875 2.203125 
Q 32.953125 0.875 32.734375 0.4375 
Q 32.515625 0 31.59375 0 
z
" id="Cmmi10-72"/>
       <path d="M 31 -24.8125 
Q 25.4375 -20.40625 21.40625 -14.71875 
Q 17.390625 -9.03125 14.8125 -2.578125 
Q 12.25 3.859375 10.984375 10.890625 
Q 9.71875 17.921875 9.71875 25 
Q 9.71875 32.171875 10.984375 39.203125 
Q 12.25 46.234375 14.859375 52.734375 
Q 17.484375 59.234375 21.53125 64.890625 
Q 25.59375 70.5625 31 74.8125 
Q 31 75 31.5 75 
L 32.421875 75 
Q 32.71875 75 32.953125 74.734375 
Q 33.203125 74.46875 33.203125 74.125 
Q 33.203125 73.6875 33.015625 73.484375 
Q 28.125 68.703125 24.875 63.234375 
Q 21.625 57.765625 19.640625 51.578125 
Q 17.671875 45.40625 16.796875 38.78125 
Q 15.921875 32.171875 15.921875 25 
Q 15.921875 -6.78125 32.90625 -23.296875 
Q 33.203125 -23.578125 33.203125 -24.125 
Q 33.203125 -24.359375 32.9375 -24.671875 
Q 32.671875 -25 32.421875 -25 
L 31.5 -25 
Q 31 -25 31 -24.8125 
z
" id="Cmr10-40"/>
       <path d="M 6.5 -25 
Q 5.609375 -25 5.609375 -24.125 
Q 5.609375 -23.6875 5.8125 -23.484375 
Q 22.90625 -6.78125 22.90625 25 
Q 22.90625 56.78125 6 73.296875 
Q 5.609375 73.53125 5.609375 74.125 
Q 5.609375 74.46875 5.875 74.734375 
Q 6.15625 75 6.5 75 
L 7.421875 75 
Q 7.71875 75 7.90625 74.8125 
Q 15.09375 69.140625 19.875 61.03125 
Q 24.65625 52.9375 26.875 43.75 
Q 29.109375 34.578125 29.109375 25 
Q 29.109375 17.921875 27.90625 11.0625 
Q 26.703125 4.203125 24.09375 -2.453125 
Q 21.484375 -9.125 17.484375 -14.765625 
Q 13.484375 -20.40625 7.90625 -24.8125 
Q 7.71875 -25 7.421875 -25 
z
" id="Cmr10-41"/>
       <path d="M 9.90625 -18.015625 
Q 9.90625 -17.578125 10.296875 -17.1875 
Q 13.921875 -13.71875 15.921875 -9.171875 
Q 17.921875 -4.640625 17.921875 0.390625 
L 17.921875 1.609375 
Q 16.3125 0 13.921875 0 
Q 11.625 0 10.015625 1.609375 
Q 8.40625 3.21875 8.40625 5.515625 
Q 8.40625 7.859375 10.015625 9.421875 
Q 11.625 10.984375 13.921875 10.984375 
Q 17.484375 10.984375 19 7.6875 
Q 20.515625 4.390625 20.515625 0.390625 
Q 20.515625 -5.171875 18.28125 -10.171875 
Q 16.0625 -15.1875 12.015625 -19.1875 
Q 11.625 -19.390625 11.375 -19.390625 
Q 10.890625 -19.390625 10.390625 -18.9375 
Q 9.90625 -18.5 9.90625 -18.015625 
z
" id="Cmmi10-59"/>
       <path d="M 4.6875 0 
Q 3.71875 0 3.71875 1.3125 
Q 3.765625 1.5625 3.90625 2.171875 
Q 4.046875 2.78125 4.3125 3.140625 
Q 4.59375 3.515625 4.984375 3.515625 
Q 11.078125 3.515625 13.484375 4.203125 
Q 14.796875 4.640625 15.375 6.890625 
L 29.109375 61.8125 
Q 29.296875 62.796875 29.296875 63.1875 
Q 29.296875 64.265625 28.078125 64.40625 
Q 26.21875 64.796875 20.90625 64.796875 
Q 19.921875 64.796875 19.921875 66.109375 
Q 20.265625 67.390625 20.453125 67.84375 
Q 20.65625 68.3125 21.578125 68.3125 
L 51.125 68.3125 
Q 52 68.3125 52 67 
Q 51.859375 65.96875 51.65625 65.375 
Q 51.46875 64.796875 50.6875 64.796875 
Q 43.3125 64.796875 40.828125 64.3125 
Q 38.375 63.875 37.796875 61.375 
L 24.125 6.5 
Q 23.6875 5.28125 23.6875 4.296875 
Q 23.6875 3.515625 27.09375 3.515625 
L 36.375 3.515625 
Q 44.234375 3.515625 49.109375 6.640625 
Q 54 9.765625 56.34375 13.6875 
Q 58.6875 17.625 60.265625 21.84375 
Q 61.859375 26.078125 62.59375 26.21875 
L 63.484375 26.21875 
Q 64.5 26.21875 64.5 24.90625 
L 55.609375 0.6875 
Q 55.46875 0 54.6875 0 
z
" id="Cmmi10-76"/>
      </defs>
      <use xlink:href="#Cmmi10-72"/>
      <use transform="translate(83.105469 0)" xlink:href="#Cmr10-40"/>
      <use transform="translate(121.923828 0)" xlink:href="#Cmmi10-116"/>
      <use transform="translate(158.007812 0)" xlink:href="#Cmr10-41"/>
      <use transform="translate(196.826172 0)" xlink:href="#Cmmi10-59"/>
      <use transform="translate(242.070312 0)" xlink:href="#Cmmi10-76"/>
      <use transform="translate(310.087891 0)" xlink:href="#Cmr10-40"/>
      <use transform="translate(348.90625 0)" xlink:href="#Cmmi10-116"/>
      <use transform="translate(384.990234 0)" xlink:href="#Cmr10-41"/>
     </g>
    </g>
   </g>
   <g id="line2d_48">
    <path clip-path="url(#pf65651a4ce)" d="M 41.12 93.066174 
L 44.585728 127.799375 
L 47.666375 157.934885 
L 49.976861 178.224647 
L 51.902265 193.003395 
L 53.442589 203.262418 
L 54.982913 212.072723 
L 56.523236 219.423465 
L 57.678479 223.988001 
L 58.833722 227.754386 
L 59.988964 230.739855 
L 61.144207 232.963497 
L 61.914369 234.032441 
L 62.684531 234.777401 
L 63.454693 235.204069 
L 64.224854 235.317941 
L 64.995016 235.124278 
L 65.765178 234.628081 
L 66.53534 233.834078 
L 67.305502 232.74673 
L 68.460744 230.574844 
L 69.615987 227.765683 
L 70.77123 224.331756 
L 71.926473 220.285171 
L 73.466796 213.957882 
L 75.00712 206.594342 
L 76.547443 198.230833 
L 78.472848 186.439644 
L 80.398252 173.272941 
L 82.708738 155.886028 
L 85.789385 130.68021 
L 92.335761 76.222564 
L 94.261165 62.422001 
L 95.801489 52.97529 
L 96.956731 47.071366 
L 98.111974 42.35236 
L 98.882136 39.935226 
L 99.652298 38.145114 
L 100.42246 37.014136 
L 100.807541 36.70425 
L 101.192621 36.568434 
L 101.577702 36.608877 
L 101.962783 36.82729 
L 102.347864 37.224883 
L 103.118026 38.559837 
L 103.888188 40.612773 
L 104.65835 43.373838 
L 105.428511 46.824169 
L 106.583754 53.229008 
L 107.738997 60.991472 
L 109.27932 73.161414 
L 111.204725 90.622334 
L 114.285372 121.320927 
L 117.7511 155.556535 
L 120.061586 176.119509 
L 121.98699 191.173049 
L 123.527314 201.667644 
L 125.067638 210.718795 
L 126.607961 218.309967 
L 127.763204 223.052218 
L 128.918447 226.992923 
L 130.073689 230.148708 
L 131.228932 232.538372 
L 131.999094 233.715574 
L 132.769256 234.56688 
L 133.539418 235.098033 
L 134.309579 235.3146 
L 135.079741 235.221924 
L 135.849903 234.825091 
L 136.620065 234.12892 
L 137.390227 233.137961 
L 138.160388 231.856506 
L 139.315631 229.398471 
L 140.470874 226.308825 
L 141.626117 222.599841 
L 143.16644 216.71204 
L 144.706764 209.774616 
L 146.247087 201.821332 
L 148.172492 190.514342 
L 150.097897 177.789156 
L 152.408382 160.852733 
L 155.103948 139.255437 
L 163.575728 69.530937 
L 165.116052 59.077931 
L 166.656376 50.20229 
L 167.811618 44.808979 
L 168.966861 40.665781 
L 169.737023 38.664801 
L 170.507185 37.312967 
L 170.892265 36.889543 
L 171.277346 36.638492 
L 171.662427 36.562308 
L 172.047508 36.663018 
L 172.432589 36.942166 
L 172.81767 37.400788 
L 173.587832 38.857956 
L 174.357994 41.032065 
L 175.128155 43.911736 
L 176.283398 49.507146 
L 177.438641 56.5365 
L 178.593884 64.853451 
L 180.134207 77.629511 
L 182.059612 95.60467 
L 190.146311 173.980653 
L 192.071715 189.304831 
L 193.612039 200.033428 
L 195.152363 209.325004 
L 196.692686 217.156981 
L 197.847929 222.077575 
L 199.003172 226.193412 
L 200.158414 229.520431 
L 201.313657 232.077074 
L 202.083819 233.363173 
L 202.853981 234.321452 
L 203.624143 234.957698 
L 204.394304 235.277542 
L 205.164466 235.286406 
L 205.934628 234.989463 
L 206.70479 234.391621 
L 207.474952 233.497518 
L 208.245113 232.311528 
L 209.400356 229.994241 
L 210.555599 227.042569 
L 211.710842 223.468891 
L 212.866084 219.28529 
L 214.406408 212.779761 
L 215.946732 205.243692 
L 217.487055 196.714562 
L 219.41246 184.728901 
L 221.337864 171.386542 
L 223.64835 153.823733 
L 226.728997 128.469741 
L 232.505211 80.152422 
L 234.430615 65.878432 
L 235.970939 55.910803 
L 237.126181 49.533681 
L 238.281424 44.274608 
L 239.051586 41.463462 
L 239.821748 39.255317 
L 240.59191 37.68571 
L 241.362071 36.784829 
L 241.747152 36.592902 
L 242.132233 36.576584 
L 242.517314 36.737739 
L 242.902395 37.077742 
L 243.672557 38.297197 
L 244.442719 40.235381 
L 245.21288 42.88388 
L 245.983042 46.225277 
L 247.138285 52.476576 
L 248.293528 60.101179 
L 249.833851 72.117929 
L 251.759256 89.444576 
L 254.454822 116.159782 
L 258.305631 154.39212 
L 260.616117 175.084572 
L 262.541521 190.270135 
L 264.081845 200.878623 
L 265.622168 210.046641 
L 267.162492 217.75476 
L 268.317735 222.583579 
L 269.472978 226.609267 
L 270.62822 229.848128 
L 271.783463 232.318794 
L 272.553625 233.548821 
L 273.323787 234.452018 
L 274.093948 235.034151 
L 274.86411 235.300819 
L 275.634272 235.257403 
L 276.404434 234.909033 
L 277.174596 234.26057 
L 277.944757 233.316606 
L 278.714919 232.081475 
L 279.870162 229.69174 
L 281.025405 226.66905 
L 282.180647 223.025728 
L 283.720971 217.223446 
L 285.261295 210.369039 
L 286.801618 202.495849 
L 288.727023 191.283776 
L 290.652427 178.64577 
L 292.962913 161.799567 
L 295.658479 140.278811 
L 304.130259 70.426167 
L 305.670583 59.863316 
L 307.210906 50.846993 
L 308.366149 45.328615 
L 309.521392 41.045009 
L 310.291554 38.942911 
L 311.061715 37.484879 
L 311.831877 36.7001 
L 312.216958 36.567566 
L 312.602039 36.611329 
L 312.98712 36.833088 
L 313.372201 37.234045 
L 314.142363 38.57574 
L 314.912525 40.635367 
L 315.682686 43.402987 
L 316.452848 46.859654 
L 317.608091 53.273411 
L 318.763334 61.043862 
L 320.303657 73.222652 
L 322.229062 90.691277 
L 325.309709 121.394106 
L 328.775437 155.624323 
L 331.085923 176.179673 
L 333.011327 191.225476 
L 334.551651 201.713411 
L 336.091974 210.757738 
L 337.632298 218.342085 
L 338.787541 223.079288 
L 339.942783 227.015038 
L 341.098026 230.165982 
L 342.253269 232.550924 
L 343.023431 233.725048 
L 343.793592 234.57333 
L 344.563754 235.101511 
L 345.333916 235.315158 
L 346.104078 235.21961 
L 346.87424 234.819952 
L 347.644402 234.121001 
L 348.414563 233.127302 
L 349.184725 231.843146 
L 350.339968 229.381129 
L 351.495211 226.287579 
L 352.650453 222.574767 
L 354.190777 216.681981 
L 355.731101 209.739717 
L 357.271424 201.781766 
L 359.196829 190.46925 
L 361.122233 177.738992 
L 363.432719 160.797334 
L 366.128285 139.195624 
L 374.600065 69.478918 
L 376.140389 59.032401 
L 377.680712 50.165046 
L 378.835955 44.779089 
L 379.991198 40.644134 
L 380.76136 38.649084 
L 381.531521 37.303471 
L 381.916602 36.883249 
L 382.301683 36.635452 
L 382.686764 36.562564 
L 383.071845 36.666603 
L 383.456926 36.949105 
L 383.842007 37.411094 
L 384.612169 38.875 
L 385.38233 41.055784 
L 386.152492 43.941978 
L 387.307735 49.546712 
L 388.462978 56.584598 
L 389.61822 64.909051 
L 391.158544 77.693194 
L 393.083949 95.675009 
L 401.170648 174.041762 
L 403.096052 189.358326 
L 404.636376 200.080311 
L 406.176699 209.365077 
L 407.717023 217.190221 
L 408.872266 222.10575 
L 410.027508 226.216609 
L 411.182751 229.53876 
L 412.337994 232.090654 
L 413.108156 233.373657 
L 413.878317 234.328894 
L 414.648479 234.962151 
L 415.418641 235.279059 
L 416.188803 235.285035 
L 416.958965 234.985252 
L 417.729127 234.384615 
L 418.499288 233.487759 
L 419.26945 232.299056 
L 420.424693 229.977769 
L 421.579936 227.022176 
L 422.735178 223.444654 
L 423.890421 219.257283 
L 425.430745 212.746852 
L 426.200906 209.103071 
L 426.200906 209.103071 
" style="fill:none;stroke:#ff0000;stroke-linecap:square;stroke-width:2;"/>
   </g>
   <g id="line2d_49">
    <path clip-path="url(#pf65651a4ce)" d="M 41.12 199.336153 
L 42.275243 195.751058 
L 43.430485 193.004282 
L 44.200647 191.659369 
L 44.970809 190.710924 
L 45.740971 190.160073 
L 46.511133 190.003475 
L 47.281295 190.233625 
L 48.051456 190.839233 
L 48.821618 191.805653 
L 49.59178 193.115358 
L 50.747023 195.679462 
L 51.902265 198.895906 
L 53.442589 204.058896 
L 54.982913 210.038645 
L 56.908317 218.362242 
L 59.988964 232.804592 
L 65.380097 258.202609 
L 68.075663 269.751734 
L 70.386149 278.634677 
L 72.311553 285.19093 
L 74.236958 290.897049 
L 75.777282 294.807688 
L 77.317605 298.106015 
L 78.472848 300.161932 
L 79.628091 301.847504 
L 80.783333 303.15167 
L 81.938576 304.063117 
L 82.708738 304.44682 
L 83.4789 304.647234 
L 84.249062 304.660719 
L 85.019223 304.483567 
L 85.789385 304.112026 
L 86.559547 303.542328 
L 87.329709 302.770741 
L 88.484951 301.226886 
L 89.640194 299.209092 
L 90.795437 296.707381 
L 91.95068 293.71424 
L 93.491003 288.952865 
L 95.031327 283.316625 
L 96.571651 276.833155 
L 98.497055 267.628452 
L 100.807541 255.240802 
L 104.65835 232.877518 
L 107.353916 217.719669 
L 109.27932 208.144448 
L 110.819644 201.658658 
L 111.974887 197.635233 
L 113.13013 194.418048 
L 113.900291 192.748178 
L 114.670453 191.470303 
L 115.440615 190.589411 
L 116.210777 190.105853 
L 116.980939 190.015559 
L 117.7511 190.310351 
L 118.521262 190.978338 
L 119.291424 192.004351 
L 120.061586 193.370422 
L 121.216829 196.012263 
L 122.372071 199.297529 
L 123.912395 204.537622 
L 125.452719 210.577538 
L 127.763204 220.709436 
L 131.614013 238.984074 
L 135.849903 258.787737 
L 138.545469 270.281599 
L 140.855955 279.105413 
L 142.781359 285.606128 
L 144.706764 291.25214 
L 146.247087 295.111861 
L 147.787411 298.35697 
L 148.942654 300.371517 
L 150.097897 302.014475 
L 151.253139 303.274763 
L 152.408382 304.141029 
L 153.178544 304.493865 
L 153.948706 304.662799 
L 154.718867 304.64418 
L 155.489029 304.434288 
L 156.259191 304.029367 
L 157.029353 303.425653 
L 158.184596 302.139224 
L 159.339838 300.385094 
L 160.495081 298.152329 
L 161.650324 295.431925 
L 162.805566 292.217823 
L 164.34589 287.161919 
L 165.886214 281.237545 
L 167.426537 274.481498 
L 169.351942 264.975965 
L 171.662427 252.322761 
L 178.593884 213.064985 
L 180.134207 205.841087 
L 181.674531 199.766788 
L 182.829774 196.095367 
L 183.985016 193.25662 
L 184.755178 191.84852 
L 185.52534 190.836277 
L 186.295502 190.221754 
L 187.065664 190.002309 
L 187.835825 190.171083 
L 188.605987 190.717362 
L 189.376149 191.62701 
L 190.146311 192.882929 
L 191.301554 195.372699 
L 192.456796 198.52316 
L 193.99712 203.611976 
L 195.537444 209.533568 
L 197.462848 217.806232 
L 200.543495 232.212144 
L 205.934628 257.647711 
L 208.630194 269.248283 
L 210.94068 278.18661 
L 212.866084 284.795022 
L 214.791489 290.557672 
L 216.331812 294.516235 
L 217.872136 297.86467 
L 219.027379 299.959546 
L 220.182622 301.68525 
L 221.337864 303.030742 
L 222.493107 303.984741 
L 223.263269 304.397514 
L 224.033431 304.627575 
L 224.803592 304.671297 
L 225.573754 304.52498 
L 226.343916 304.184876 
L 227.114078 303.647221 
L 227.88424 302.90827 
L 229.039482 301.41444 
L 230.194725 299.447844 
L 231.349968 296.998299 
L 232.505211 294.057977 
L 234.045534 289.36725 
L 235.585858 283.80051 
L 237.126181 277.383322 
L 239.051586 268.252817 
L 241.362071 255.932893 
L 244.8278 235.853255 
L 247.908447 218.378522 
L 249.833851 208.714311 
L 251.374175 202.133753 
L 252.529418 198.028179 
L 253.68466 194.721836 
L 254.454822 192.989864 
L 255.224984 191.648644 
L 255.995146 190.703924 
L 256.765308 190.156787 
L 257.535469 190.003851 
L 258.305631 190.237576 
L 259.075793 190.846635 
L 259.845955 191.816355 
L 260.616117 193.129183 
L 261.771359 195.6976 
L 262.926602 198.917866 
L 264.466926 204.085146 
L 266.007249 210.068251 
L 267.932654 218.394774 
L 271.013301 232.839187 
L 276.404434 258.234937 
L 279.1 269.781036 
L 281.410486 278.660732 
L 283.33589 285.213931 
L 285.261295 290.916742 
L 286.801618 294.824579 
L 288.341942 298.119975 
L 289.497185 300.173615 
L 290.652427 301.856839 
L 291.80767 303.15859 
L 292.962913 304.067549 
L 293.733075 304.449552 
L 294.503236 304.648233 
L 295.273398 304.65995 
L 296.04356 304.480996 
L 296.813722 304.107616 
L 297.583884 303.536045 
L 298.354046 302.76255 
L 299.509288 301.215771 
L 300.664531 299.194985 
L 301.819774 296.690226 
L 302.975016 293.694001 
L 304.51534 288.928503 
L 306.055664 283.288212 
L 307.595987 276.800884 
L 309.521392 267.591875 
L 311.831877 255.200319 
L 315.682686 232.835455 
L 318.378253 217.681354 
L 320.303657 208.111398 
L 321.843981 201.631185 
L 322.999224 197.612582 
L 324.154466 194.40062 
L 324.924628 192.734383 
L 325.69479 191.460209 
L 326.464952 190.583044 
L 327.235114 190.103194 
L 328.005275 190.016549 
L 328.775437 190.314897 
L 329.545599 190.986311 
L 330.315761 192.015596 
L 331.085923 193.384758 
L 332.241165 196.030858 
L 333.396408 199.31989 
L 334.936732 204.564193 
L 336.477055 210.607385 
L 338.787541 220.742526 
L 342.63835 239.018715 
L 346.87424 258.819942 
L 349.569806 270.310731 
L 351.880292 279.13127 
L 353.805696 285.628912 
L 355.731101 291.2716 
L 357.271424 295.128507 
L 358.811748 298.370675 
L 359.966991 300.382938 
L 361.122233 302.023541 
L 362.277476 303.281405 
L 363.432719 304.145175 
L 364.202881 304.496305 
L 364.973042 304.6635 
L 365.743204 304.643107 
L 366.513366 304.431407 
L 367.283528 304.024641 
L 368.05369 303.419048 
L 369.208932 302.129737 
L 370.364175 300.372651 
L 371.519418 298.136867 
L 372.67466 295.413396 
L 373.829903 292.196201 
L 375.370227 287.136187 
L 376.91055 281.207811 
L 378.450874 274.448004 
L 380.376279 264.938374 
L 382.686764 252.281662 
L 389.61822 213.028877 
L 391.158544 205.809781 
L 392.698868 199.74141 
L 393.85411 196.075007 
L 395.009353 193.241616 
L 395.779515 191.837199 
L 396.549677 190.828679 
L 397.319839 190.217874 
L 398.09 190.002103 
L 398.860162 190.174467 
L 399.630324 190.72422 
L 400.400486 191.637194 
L 401.170648 192.896266 
L 402.32589 195.390398 
L 403.481133 198.544736 
L 405.021457 203.637917 
L 406.56178 209.562938 
L 408.487185 217.838616 
L 411.567832 232.246712 
L 416.958965 257.680154 
L 419.654531 269.277744 
L 421.965017 278.212851 
L 423.890421 284.818227 
L 425.815826 290.577584 
L 426.200906 291.622228 
L 426.200906 291.622228 
" style="fill:none;stroke:#0000ff;stroke-linecap:square;stroke-width:2;"/>
   </g>
   <g id="patch_3">
    <path d="M 41.12 310.04 
L 41.12 31.2 
" style="fill:none;stroke:#000000;stroke-linecap:square;stroke-linejoin:miter;stroke-width:0.8;"/>
   </g>
   <g id="patch_4">
    <path d="M 33.418382 320.04 
L 433.902525 320.04 
" style="fill:none;stroke:#000000;stroke-linecap:square;stroke-linejoin:miter;stroke-width:0.8;"/>
   </g>
   <g id="legend_1">
    <g id="patch_5">
     <path d="M 393.702525 70.596875 
L 430.902525 70.596875 
L 430.902525 38.2 
L 393.702525 38.2 
z
" style="fill:#4c4c4c;opacity:0.5;stroke:#4c4c4c;stroke-linejoin:miter;"/>
    </g>
    <g id="patch_6">
     <path d="M 391.702525 68.596875 
L 428.902525 68.596875 
L 428.902525 36.2 
L 391.702525 36.2 
z
" style="fill:#ffffff;stroke:#cccccc;stroke-linejoin:miter;"/>
    </g>
    <g id="line2d_50">
     <path d="M 400.702525 46.298437 
L 395.202525 46.298437 
" style="fill:none;stroke:#ff0000;stroke-linecap:square;stroke-width:2;"/>
    </g>
    <g id="line2d_51"/>
    <g id="text_15">
     <!-- $H(t)$ -->
     <g style="fill:#ff0000;" transform="translate(403.202525 49.798437)scale(0.1 -0.1)">
      <use xlink:href="#Cmmi10-72"/>
      <use transform="translate(83.105469 0)" xlink:href="#Cmr10-40"/>
      <use transform="translate(121.923828 0)" xlink:href="#Cmmi10-116"/>
      <use transform="translate(158.007812 0)" xlink:href="#Cmr10-41"/>
     </g>
    </g>
    <g id="line2d_52">
     <path d="M 400.702525 56.596875 
L 395.202525 56.596875 
" style="fill:none;stroke:#0000ff;stroke-linecap:square;stroke-width:2;"/>
    </g>
    <g id="line2d_53"/>
    <g id="text_16">
     <!-- $L(t)$ -->
     <g style="fill:#0000ff;" transform="translate(403.202525 60.096875)scale(0.1 -0.1)">
      <use xlink:href="#Cmmi10-76"/>
      <use transform="translate(68.017578 0)" xlink:href="#Cmr10-40"/>
      <use transform="translate(106.835938 0)" xlink:href="#Cmmi10-116"/>
      <use transform="translate(142.919922 0)" xlink:href="#Cmr10-41"/>
     </g>
    </g>
   </g>
  </g>
 </g>
 <defs>
  <clipPath id="pf65651a4ce">
   <rect height="278.84" width="400.484143" x="33.418382" y="31.2"/>
  </clipPath>
 </defs>
</svg>
