<?xml version="1.0" encoding="utf-8" standalone="no"?>
<!DOCTYPE svg PUBLIC "-//W3C//DTD SVG 1.1//EN"
  "http://www.w3.org/Graphics/SVG/1.1/DTD/svg11.dtd">
<!-- Created with matplotlib (https://matplotlib.org/) -->
<svg height="344.279942pt" version="1.1" viewBox="0 0 334.759031 344.279942" width="334.759031pt" xmlns="http://www.w3.org/2000/svg" xmlns:xlink="http://www.w3.org/1999/xlink">
 <metadata>
  <rdf:RDF xmlns:cc="http://creativecommons.org/ns#" xmlns:dc="http://purl.org/dc/elements/1.1/" xmlns:rdf="http://www.w3.org/1999/02/22-rdf-syntax-ns#">
   <cc:Work>
    <dc:type rdf:resource="http://purl.org/dc/dcmitype/StillImage"/>
    <dc:date>2024-07-30T13:01:31.325327</dc:date>
    <dc:format>image/svg+xml</dc:format>
    <dc:creator>
     <cc:Agent>
      <dc:title>Matplotlib v3.3.4, https://matplotlib.org/</dc:title>
     </cc:Agent>
    </dc:creator>
   </cc:Work>
  </rdf:RDF>
 </metadata>
 <defs>
  <style type="text/css">*{stroke-linecap:butt;stroke-linejoin:round;}</style>
 </defs>
 <g id="figure_1">
  <g id="patch_1">
   <path d="M 0 344.279942 
L 334.759031 344.279942 
L 334.759031 0 
L 0 0 
z
" style="fill:#ffffff;"/>
  </g>
  <g id="axes_1">
   <g id="patch_2">
    <path d="M 14.896337 326.082538 
L 310.279031 326.082538 
L 310.279031 30.685 
L 14.896337 30.685 
z
" style="fill:#ffffff;"/>
   </g>
   <g id="patch_3">
    <path clip-path="url(#pede8ba709a)" d="M 77.369719 320.401817 
L 77.369719 263.594598 
L 78.025617 264.88402 
L 78.681516 266.130034 
L 79.394258 267.437066 
L 80.374563 269.158997 
L 81.354868 270.7983 
L 81.834793 271.572313 
L 82.39709 272.456343 
L 82.959386 273.316581 
L 83.824061 274.59493 
L 84.452473 275.491597 
L 85.080885 276.362192 
L 85.740555 277.249135 
L 86.400225 278.109551 
L 87.116842 279.015403 
L 88.199007 280.32915 
L 89.281172 281.581322 
L 90.192116 282.590432 
L 91.595375 284.069607 
L 92.034842 284.515031 
L 92.930206 285.39755 
L 93.825569 286.247911 
L 94.314723 286.699453 
L 95.896212 288.099635 
L 97.269207 289.245658 
L 98.312103 290.07588 
L 98.799786 290.452768 
L 99.812777 291.213503 
L 100.863924 291.972652 
L 101.915071 292.702566 
L 102.072688 292.809587 
L 103.421081 293.70032 
L 105.24514 294.838229 
L 105.669596 295.09258 
L 107.200255 295.978974 
L 108.155465 296.508737 
L 109.813607 297.38828 
L 110.351602 297.663237 
L 111.771918 298.365895 
L 112.798866 298.853854 
L 114.431927 299.597079 
L 115.210663 299.93802 
L 115.668074 300.134388 
L 116.824931 300.618599 
L 118.918885 301.45198 
L 119.59634 301.710351 
L 120.203622 301.937494 
L 121.472522 302.398937 
L 123.500048 303.101146 
L 124.235244 303.345651 
L 125.502499 303.755104 
L 126.699705 304.128529 
L 128.087647 304.545931 
L 128.349209 304.622792 
L 130.087533 305.11969 
L 130.742541 305.300851 
L 132.628762 305.80491 
L 133.803109 306.106091 
L 134.245927 306.217243 
L 135.659536 306.56353 
L 137.071802 306.896978 
L 137.991253 307.107632 
L 138.68995 307.264431 
L 140.575854 307.674072 
L 140.76112 307.713277 
L 142.050724 307.981227 
L 143.107929 308.194608 
L 144.317042 308.431978 
L 145.985855 308.748387 
L 146.559921 308.854335 
L 148.614907 309.221989 
L 148.790374 309.252565 
L 150.654697 309.569831 
L 151.797498 309.75766 
L 153.244051 309.98849 
L 153.733549 310.064902 
L 154.967739 310.25387 
L 156.348119 310.459146 
L 157.730056 310.658478 
L 158.225698 310.728512 
L 159.860405 310.954218 
L 160.582377 311.051395 
L 162.283103 311.274469 
L 163.304719 311.404651 
L 163.863052 311.474625 
L 165.12917 311.630309 
L 166.185309 311.75708 
L 167.575241 311.91977 
L 168.968919 312.078331 
L 169.982918 312.190918 
L 170.463467 312.243478 
L 172.381597 312.448326 
L 173.391731 312.553117 
L 174.14057 312.62947 
L 175.011214 312.71685 
L 176.315159 312.844987 
L 177.569983 312.965294 
L 178.589337 313.060924 
L 180.02845 313.192823 
L 181.654364 313.33761 
L 182.177183 313.383241 
L 183.731474 313.516318 
L 184.656492 313.593728 
L 186.129112 313.714297 
L 186.853083 313.772401 
L 188.46819 313.899326 
L 189.235719 313.958369 
L 190.572599 314.059307 
L 191.867169 314.154807 
L 193.100502 314.243797 
L 193.566749 314.276944 
L 195.258333 314.394984 
L 196.606382 314.486626 
L 197.606221 314.553249 
L 198.615949 314.619394 
L 199.399709 314.669967 
L 200.643288 314.748858 
L 202.075753 314.83773 
L 202.653276 314.872968 
L 204.175208 314.964243 
L 205.338218 315.032478 
L 206.855705 315.119596 
L 207.88543 315.177509 
L 208.895754 315.233411 
L 209.469865 315.264778 
L 210.438026 315.317031 
L 212.237579 315.412061 
L 212.953993 315.449153 
L 214.248901 315.515154 
L 215.731475 315.589114 
L 217.1882 315.660161 
L 218.321728 315.714362 
L 218.513369 315.723434 
L 219.599676 315.774362 
L 221.383147 315.856189 
L 221.933288 315.880992 
L 223.412257 315.946674 
L 224.120913 315.97764 
L 225.75975 316.048026 
L 227.455988 316.119124 
L 228.492021 316.161695 
L 229.133271 316.187728 
L 230.774669 316.25328 
L 231.206837 316.270286 
L 233.165648 316.346066 
L 233.864781 316.37261 
L 235.138408 316.420299 
L 236.456027 316.46875 
L 236.789709 316.480879 
L 238.92432 316.557163 
L 239.652227 316.582668 
L 240.236557 316.602959 
L 242.324977 316.674172 
L 243.294944 316.706568 
L 244.023473 316.730624 
L 245.350116 316.773829 
L 246.232698 316.802151 
L 247.731972 316.849508 
L 248.352509 316.868836 
L 250.185052 316.925002 
L 251.170136 316.954642 
L 252.410883 316.991439 
L 252.692822 316.999718 
L 254.83027 317.061516 
L 255.173 317.071269 
L 257.053217 317.124017 
L 258.330825 317.159148 
L 258.631249 317.167327 
L 260.56541 317.219249 
L 260.849773 317.226778 
L 262.748474 317.276366 
L 263.679674 317.300263 
L 264.567027 317.32278 
L 265.606025 317.348835 
L 266.59301 317.373281 
L 268.114442 317.410393 
L 269.148975 317.43524 
L 270.177595 317.459639 
L 271.960852 317.501231 
L 272.143646 317.505444 
L 273.671538 317.540307 
L 275.459525 317.58031 
L 276.25604 317.597861 
L 276.941166 317.612827 
L 277.853918 317.63258 
L 279.206288 317.661464 
L 280.400811 317.686602 
L 281.344283 317.706213 
L 282.604144 317.73207 
L 283.70867 317.754435 
L 285.12432 317.782691 
L 285.775722 317.795542 
L 287.791017 317.834704 
L 288.59742 317.850127 
L 290.220655 317.880755 
L 290.930723 317.89398 
L 291.711524 317.908402 
L 293.681419 317.94424 
L 294.713534 317.96271 
L 294.973231 317.967324 
L 296.939007 318.001833 
L 297.230588 318.006889 
L 298.564502 318.029816 
L 300.127476 318.056265 
L 300.711814 318.066039 
L 301.970136 318.086881 
L 303.040983 318.1044 
L 304.598595 318.129528 
L 304.598595 320.401817 
z
" style="fill:#006400;opacity:0.5;"/>
   </g>
   <g id="matplotlib.axis_1">
    <g id="xtick_1">
     <g id="line2d_1">
      <defs>
       <path d="M 0 0 
L 0 3.5 
" id="mcfbff7e56a" style="stroke:#000000;stroke-width:0.8;"/>
      </defs>
      <g>
       <use style="stroke:#000000;stroke-width:0.8;" x="20.5625" xlink:href="#mcfbff7e56a" y="320.401817"/>
      </g>
     </g>
    </g>
    <g id="xtick_2">
     <g id="line2d_2">
      <g>
       <use style="stroke:#000000;stroke-width:0.8;" x="77.369719" xlink:href="#mcfbff7e56a" y="320.401817"/>
      </g>
     </g>
     <g id="text_1">
      <!-- 1 -->
      <g transform="translate(74.188469 335.000254)scale(0.1 -0.1)">
       <defs>
        <path d="M 12.40625 8.296875 
L 28.515625 8.296875 
L 28.515625 63.921875 
L 10.984375 60.40625 
L 10.984375 69.390625 
L 28.421875 72.90625 
L 38.28125 72.90625 
L 38.28125 8.296875 
L 54.390625 8.296875 
L 54.390625 0 
L 12.40625 0 
z
" id="DejaVuSans-49"/>
       </defs>
       <use xlink:href="#DejaVuSans-49"/>
      </g>
     </g>
    </g>
    <g id="xtick_3">
     <g id="line2d_3">
      <g>
       <use style="stroke:#000000;stroke-width:0.8;" x="134.176938" xlink:href="#mcfbff7e56a" y="320.401817"/>
      </g>
     </g>
     <g id="text_2">
      <!-- 2 -->
      <g transform="translate(130.995688 335.000254)scale(0.1 -0.1)">
       <defs>
        <path d="M 19.1875 8.296875 
L 53.609375 8.296875 
L 53.609375 0 
L 7.328125 0 
L 7.328125 8.296875 
Q 12.9375 14.109375 22.625 23.890625 
Q 32.328125 33.6875 34.8125 36.53125 
Q 39.546875 41.84375 41.421875 45.53125 
Q 43.3125 49.21875 43.3125 52.78125 
Q 43.3125 58.59375 39.234375 62.25 
Q 35.15625 65.921875 28.609375 65.921875 
Q 23.96875 65.921875 18.8125 64.3125 
Q 13.671875 62.703125 7.8125 59.421875 
L 7.8125 69.390625 
Q 13.765625 71.78125 18.9375 73 
Q 24.125 74.21875 28.421875 74.21875 
Q 39.75 74.21875 46.484375 68.546875 
Q 53.21875 62.890625 53.21875 53.421875 
Q 53.21875 48.921875 51.53125 44.890625 
Q 49.859375 40.875 45.40625 35.40625 
Q 44.1875 33.984375 37.640625 27.21875 
Q 31.109375 20.453125 19.1875 8.296875 
z
" id="DejaVuSans-50"/>
       </defs>
       <use xlink:href="#DejaVuSans-50"/>
      </g>
     </g>
    </g>
    <g id="xtick_4">
     <g id="line2d_4">
      <g>
       <use style="stroke:#000000;stroke-width:0.8;" x="190.984157" xlink:href="#mcfbff7e56a" y="320.401817"/>
      </g>
     </g>
     <g id="text_3">
      <!-- 3 -->
      <g transform="translate(187.802907 335.000254)scale(0.1 -0.1)">
       <defs>
        <path d="M 40.578125 39.3125 
Q 47.65625 37.796875 51.625 33 
Q 55.609375 28.21875 55.609375 21.1875 
Q 55.609375 10.40625 48.1875 4.484375 
Q 40.765625 -1.421875 27.09375 -1.421875 
Q 22.515625 -1.421875 17.65625 -0.515625 
Q 12.796875 0.390625 7.625 2.203125 
L 7.625 11.71875 
Q 11.71875 9.328125 16.59375 8.109375 
Q 21.484375 6.890625 26.8125 6.890625 
Q 36.078125 6.890625 40.9375 10.546875 
Q 45.796875 14.203125 45.796875 21.1875 
Q 45.796875 27.640625 41.28125 31.265625 
Q 36.765625 34.90625 28.71875 34.90625 
L 20.21875 34.90625 
L 20.21875 43.015625 
L 29.109375 43.015625 
Q 36.375 43.015625 40.234375 45.921875 
Q 44.09375 48.828125 44.09375 54.296875 
Q 44.09375 59.90625 40.109375 62.90625 
Q 36.140625 65.921875 28.71875 65.921875 
Q 24.65625 65.921875 20.015625 65.03125 
Q 15.375 64.15625 9.8125 62.3125 
L 9.8125 71.09375 
Q 15.4375 72.65625 20.34375 73.4375 
Q 25.25 74.21875 29.59375 74.21875 
Q 40.828125 74.21875 47.359375 69.109375 
Q 53.90625 64.015625 53.90625 55.328125 
Q 53.90625 49.265625 50.4375 45.09375 
Q 46.96875 40.921875 40.578125 39.3125 
z
" id="DejaVuSans-51"/>
       </defs>
       <use xlink:href="#DejaVuSans-51"/>
      </g>
     </g>
    </g>
    <g id="xtick_5">
     <g id="line2d_5">
      <g>
       <use style="stroke:#000000;stroke-width:0.8;" x="247.791376" xlink:href="#mcfbff7e56a" y="320.401817"/>
      </g>
     </g>
     <g id="text_4">
      <!-- 4 -->
      <g transform="translate(244.610126 335.000254)scale(0.1 -0.1)">
       <defs>
        <path d="M 37.796875 64.3125 
L 12.890625 25.390625 
L 37.796875 25.390625 
z
M 35.203125 72.90625 
L 47.609375 72.90625 
L 47.609375 25.390625 
L 58.015625 25.390625 
L 58.015625 17.1875 
L 47.609375 17.1875 
L 47.609375 0 
L 37.796875 0 
L 37.796875 17.1875 
L 4.890625 17.1875 
L 4.890625 26.703125 
z
" id="DejaVuSans-52"/>
       </defs>
       <use xlink:href="#DejaVuSans-52"/>
      </g>
     </g>
    </g>
    <g id="xtick_6">
     <g id="line2d_6">
      <g>
       <use style="stroke:#000000;stroke-width:0.8;" x="304.598595" xlink:href="#mcfbff7e56a" y="320.401817"/>
      </g>
     </g>
     <g id="text_5">
      <!-- 5 -->
      <g transform="translate(301.417345 335.000254)scale(0.1 -0.1)">
       <defs>
        <path d="M 10.796875 72.90625 
L 49.515625 72.90625 
L 49.515625 64.59375 
L 19.828125 64.59375 
L 19.828125 46.734375 
Q 21.96875 47.46875 24.109375 47.828125 
Q 26.265625 48.1875 28.421875 48.1875 
Q 40.625 48.1875 47.75 41.5 
Q 54.890625 34.8125 54.890625 23.390625 
Q 54.890625 11.625 47.5625 5.09375 
Q 40.234375 -1.421875 26.90625 -1.421875 
Q 22.3125 -1.421875 17.546875 -0.640625 
Q 12.796875 0.140625 7.71875 1.703125 
L 7.71875 11.625 
Q 12.109375 9.234375 16.796875 8.0625 
Q 21.484375 6.890625 26.703125 6.890625 
Q 35.15625 6.890625 40.078125 11.328125 
Q 45.015625 15.765625 45.015625 23.390625 
Q 45.015625 31 40.078125 35.4375 
Q 35.15625 39.890625 26.703125 39.890625 
Q 22.75 39.890625 18.8125 39.015625 
Q 14.890625 38.140625 10.796875 36.28125 
z
" id="DejaVuSans-53"/>
       </defs>
       <use xlink:href="#DejaVuSans-53"/>
      </g>
     </g>
    </g>
    <g id="xtick_7">
     <g id="line2d_7">
      <defs>
       <path d="M 0 0 
L 0 2 
" id="m594f4818c2" style="stroke:#000000;stroke-width:0.6;"/>
      </defs>
      <g>
       <use style="stroke:#000000;stroke-width:0.6;" x="31.923944" xlink:href="#m594f4818c2" y="320.401817"/>
      </g>
     </g>
    </g>
    <g id="xtick_8">
     <g id="line2d_8">
      <g>
       <use style="stroke:#000000;stroke-width:0.6;" x="43.285388" xlink:href="#m594f4818c2" y="320.401817"/>
      </g>
     </g>
    </g>
    <g id="xtick_9">
     <g id="line2d_9">
      <g>
       <use style="stroke:#000000;stroke-width:0.6;" x="54.646831" xlink:href="#m594f4818c2" y="320.401817"/>
      </g>
     </g>
    </g>
    <g id="xtick_10">
     <g id="line2d_10">
      <g>
       <use style="stroke:#000000;stroke-width:0.6;" x="66.008275" xlink:href="#m594f4818c2" y="320.401817"/>
      </g>
     </g>
    </g>
    <g id="xtick_11">
     <g id="line2d_11">
      <g>
       <use style="stroke:#000000;stroke-width:0.6;" x="88.731163" xlink:href="#m594f4818c2" y="320.401817"/>
      </g>
     </g>
    </g>
    <g id="xtick_12">
     <g id="line2d_12">
      <g>
       <use style="stroke:#000000;stroke-width:0.6;" x="100.092607" xlink:href="#m594f4818c2" y="320.401817"/>
      </g>
     </g>
    </g>
    <g id="xtick_13">
     <g id="line2d_13">
      <g>
       <use style="stroke:#000000;stroke-width:0.6;" x="111.45405" xlink:href="#m594f4818c2" y="320.401817"/>
      </g>
     </g>
    </g>
    <g id="xtick_14">
     <g id="line2d_14">
      <g>
       <use style="stroke:#000000;stroke-width:0.6;" x="122.815494" xlink:href="#m594f4818c2" y="320.401817"/>
      </g>
     </g>
    </g>
    <g id="xtick_15">
     <g id="line2d_15">
      <g>
       <use style="stroke:#000000;stroke-width:0.6;" x="145.538382" xlink:href="#m594f4818c2" y="320.401817"/>
      </g>
     </g>
    </g>
    <g id="xtick_16">
     <g id="line2d_16">
      <g>
       <use style="stroke:#000000;stroke-width:0.6;" x="156.899825" xlink:href="#m594f4818c2" y="320.401817"/>
      </g>
     </g>
    </g>
    <g id="xtick_17">
     <g id="line2d_17">
      <g>
       <use style="stroke:#000000;stroke-width:0.6;" x="168.261269" xlink:href="#m594f4818c2" y="320.401817"/>
      </g>
     </g>
    </g>
    <g id="xtick_18">
     <g id="line2d_18">
      <g>
       <use style="stroke:#000000;stroke-width:0.6;" x="179.622713" xlink:href="#m594f4818c2" y="320.401817"/>
      </g>
     </g>
    </g>
    <g id="xtick_19">
     <g id="line2d_19">
      <g>
       <use style="stroke:#000000;stroke-width:0.6;" x="202.345601" xlink:href="#m594f4818c2" y="320.401817"/>
      </g>
     </g>
    </g>
    <g id="xtick_20">
     <g id="line2d_20">
      <g>
       <use style="stroke:#000000;stroke-width:0.6;" x="213.707044" xlink:href="#m594f4818c2" y="320.401817"/>
      </g>
     </g>
    </g>
    <g id="xtick_21">
     <g id="line2d_21">
      <g>
       <use style="stroke:#000000;stroke-width:0.6;" x="225.068488" xlink:href="#m594f4818c2" y="320.401817"/>
      </g>
     </g>
    </g>
    <g id="xtick_22">
     <g id="line2d_22">
      <g>
       <use style="stroke:#000000;stroke-width:0.6;" x="236.429932" xlink:href="#m594f4818c2" y="320.401817"/>
      </g>
     </g>
    </g>
    <g id="xtick_23">
     <g id="line2d_23">
      <g>
       <use style="stroke:#000000;stroke-width:0.6;" x="259.15282" xlink:href="#m594f4818c2" y="320.401817"/>
      </g>
     </g>
    </g>
    <g id="xtick_24">
     <g id="line2d_24">
      <g>
       <use style="stroke:#000000;stroke-width:0.6;" x="270.514263" xlink:href="#m594f4818c2" y="320.401817"/>
      </g>
     </g>
    </g>
    <g id="xtick_25">
     <g id="line2d_25">
      <g>
       <use style="stroke:#000000;stroke-width:0.6;" x="281.875707" xlink:href="#m594f4818c2" y="320.401817"/>
      </g>
     </g>
    </g>
    <g id="xtick_26">
     <g id="line2d_26">
      <g>
       <use style="stroke:#000000;stroke-width:0.6;" x="293.237151" xlink:href="#m594f4818c2" y="320.401817"/>
      </g>
     </g>
    </g>
    <g id="text_6">
     <!-- $x$ -->
     <g transform="translate(318.279031 320.401817)scale(0.16 -0.16)">
      <defs>
       <path d="M 7.8125 2.875 
Q 9.578125 1.515625 12.796875 1.515625 
Q 15.921875 1.515625 18.3125 4.515625 
Q 20.703125 7.515625 21.578125 11.078125 
L 26.125 28.8125 
Q 27.203125 33.640625 27.203125 35.40625 
Q 27.203125 37.890625 25.8125 39.75 
Q 24.421875 41.609375 21.921875 41.609375 
Q 18.75 41.609375 15.96875 39.625 
Q 13.1875 37.640625 11.28125 34.59375 
Q 9.375 31.546875 8.59375 28.421875 
Q 8.40625 27.78125 7.8125 27.78125 
L 6.59375 27.78125 
Q 5.8125 27.78125 5.8125 28.71875 
L 5.8125 29 
Q 6.78125 32.71875 9.125 36.25 
Q 11.46875 39.796875 14.859375 41.984375 
Q 18.265625 44.1875 22.125 44.1875 
Q 25.78125 44.1875 28.734375 42.234375 
Q 31.6875 40.28125 32.90625 36.921875 
Q 34.625 39.984375 37.28125 42.078125 
Q 39.9375 44.1875 43.109375 44.1875 
Q 45.265625 44.1875 47.5 43.421875 
Q 49.75 42.671875 51.171875 41.109375 
Q 52.59375 39.546875 52.59375 37.203125 
Q 52.59375 34.671875 50.953125 32.828125 
Q 49.3125 31 46.78125 31 
Q 45.171875 31 44.09375 32.03125 
Q 43.015625 33.0625 43.015625 34.625 
Q 43.015625 36.71875 44.453125 38.296875 
Q 45.90625 39.890625 47.90625 40.1875 
Q 46.09375 41.609375 42.921875 41.609375 
Q 39.703125 41.609375 37.328125 38.625 
Q 34.96875 35.640625 33.984375 31.984375 
L 29.59375 14.3125 
Q 28.515625 10.296875 28.515625 7.71875 
Q 28.515625 5.171875 29.953125 3.34375 
Q 31.390625 1.515625 33.796875 1.515625 
Q 38.484375 1.515625 42.15625 5.640625 
Q 45.84375 9.765625 47.015625 14.703125 
Q 47.21875 15.28125 47.796875 15.28125 
L 49.03125 15.28125 
Q 49.421875 15.28125 49.65625 15.015625 
Q 49.90625 14.75 49.90625 14.40625 
Q 49.90625 14.3125 49.8125 14.109375 
Q 48.390625 8.15625 43.84375 3.515625 
Q 39.3125 -1.125 33.59375 -1.125 
Q 29.9375 -1.125 26.984375 0.84375 
Q 24.03125 2.828125 22.796875 6.203125 
Q 21.234375 3.265625 18.46875 1.0625 
Q 15.71875 -1.125 12.59375 -1.125 
Q 10.453125 -1.125 8.171875 -0.359375 
Q 5.90625 0.390625 4.484375 1.953125 
Q 3.078125 3.515625 3.078125 5.90625 
Q 3.078125 8.25 4.703125 10.171875 
Q 6.34375 12.109375 8.796875 12.109375 
Q 10.453125 12.109375 11.578125 11.109375 
Q 12.703125 10.109375 12.703125 8.5 
Q 12.703125 6.390625 11.296875 4.828125 
Q 9.90625 3.265625 7.8125 2.875 
z
" id="Cmmi10-120"/>
      </defs>
      <use transform="translate(0 0.8125)" xlink:href="#Cmmi10-120"/>
     </g>
    </g>
   </g>
   <g id="matplotlib.axis_2">
    <g id="ytick_1">
     <g id="line2d_27">
      <defs>
       <path d="M 0 0 
L -3.5 0 
" id="m140f7aaff8" style="stroke:#000000;stroke-width:0.8;"/>
      </defs>
      <g>
       <use style="stroke:#000000;stroke-width:0.8;" x="20.5625" xlink:href="#m140f7aaff8" y="320.401817"/>
      </g>
     </g>
    </g>
    <g id="ytick_2">
     <g id="line2d_28">
      <g>
       <use style="stroke:#000000;stroke-width:0.8;" x="20.5625" xlink:href="#m140f7aaff8" y="263.594598"/>
      </g>
     </g>
     <g id="text_7">
      <!-- 1 -->
      <g transform="translate(7.2 267.393816)scale(0.1 -0.1)">
       <use xlink:href="#DejaVuSans-49"/>
      </g>
     </g>
    </g>
    <g id="ytick_3">
     <g id="line2d_29">
      <g>
       <use style="stroke:#000000;stroke-width:0.8;" x="20.5625" xlink:href="#m140f7aaff8" y="206.787379"/>
      </g>
     </g>
     <g id="text_8">
      <!-- 2 -->
      <g transform="translate(7.2 210.586597)scale(0.1 -0.1)">
       <use xlink:href="#DejaVuSans-50"/>
      </g>
     </g>
    </g>
    <g id="ytick_4">
     <g id="line2d_30">
      <g>
       <use style="stroke:#000000;stroke-width:0.8;" x="20.5625" xlink:href="#m140f7aaff8" y="149.98016"/>
      </g>
     </g>
     <g id="text_9">
      <!-- 3 -->
      <g transform="translate(7.2 153.779379)scale(0.1 -0.1)">
       <use xlink:href="#DejaVuSans-51"/>
      </g>
     </g>
    </g>
    <g id="ytick_5">
     <g id="line2d_31">
      <g>
       <use style="stroke:#000000;stroke-width:0.8;" x="20.5625" xlink:href="#m140f7aaff8" y="93.172941"/>
      </g>
     </g>
     <g id="text_10">
      <!-- 4 -->
      <g transform="translate(7.2 96.97216)scale(0.1 -0.1)">
       <use xlink:href="#DejaVuSans-52"/>
      </g>
     </g>
    </g>
    <g id="ytick_6">
     <g id="line2d_32">
      <g>
       <use style="stroke:#000000;stroke-width:0.8;" x="20.5625" xlink:href="#m140f7aaff8" y="36.365722"/>
      </g>
     </g>
     <g id="text_11">
      <!-- 5 -->
      <g transform="translate(7.2 40.164941)scale(0.1 -0.1)">
       <use xlink:href="#DejaVuSans-53"/>
      </g>
     </g>
    </g>
    <g id="ytick_7">
     <g id="line2d_33">
      <defs>
       <path d="M 0 0 
L -2 0 
" id="m3f83706daa" style="stroke:#000000;stroke-width:0.6;"/>
      </defs>
      <g>
       <use style="stroke:#000000;stroke-width:0.6;" x="20.5625" xlink:href="#m3f83706daa" y="309.040373"/>
      </g>
     </g>
    </g>
    <g id="ytick_8">
     <g id="line2d_34">
      <g>
       <use style="stroke:#000000;stroke-width:0.6;" x="20.5625" xlink:href="#m3f83706daa" y="297.678929"/>
      </g>
     </g>
    </g>
    <g id="ytick_9">
     <g id="line2d_35">
      <g>
       <use style="stroke:#000000;stroke-width:0.6;" x="20.5625" xlink:href="#m3f83706daa" y="286.317485"/>
      </g>
     </g>
    </g>
    <g id="ytick_10">
     <g id="line2d_36">
      <g>
       <use style="stroke:#000000;stroke-width:0.6;" x="20.5625" xlink:href="#m3f83706daa" y="274.956041"/>
      </g>
     </g>
    </g>
    <g id="ytick_11">
     <g id="line2d_37">
      <g>
       <use style="stroke:#000000;stroke-width:0.6;" x="20.5625" xlink:href="#m3f83706daa" y="252.233154"/>
      </g>
     </g>
    </g>
    <g id="ytick_12">
     <g id="line2d_38">
      <g>
       <use style="stroke:#000000;stroke-width:0.6;" x="20.5625" xlink:href="#m3f83706daa" y="240.87171"/>
      </g>
     </g>
    </g>
    <g id="ytick_13">
     <g id="line2d_39">
      <g>
       <use style="stroke:#000000;stroke-width:0.6;" x="20.5625" xlink:href="#m3f83706daa" y="229.510266"/>
      </g>
     </g>
    </g>
    <g id="ytick_14">
     <g id="line2d_40">
      <g>
       <use style="stroke:#000000;stroke-width:0.6;" x="20.5625" xlink:href="#m3f83706daa" y="218.148822"/>
      </g>
     </g>
    </g>
    <g id="ytick_15">
     <g id="line2d_41">
      <g>
       <use style="stroke:#000000;stroke-width:0.6;" x="20.5625" xlink:href="#m3f83706daa" y="195.425935"/>
      </g>
     </g>
    </g>
    <g id="ytick_16">
     <g id="line2d_42">
      <g>
       <use style="stroke:#000000;stroke-width:0.6;" x="20.5625" xlink:href="#m3f83706daa" y="184.064491"/>
      </g>
     </g>
    </g>
    <g id="ytick_17">
     <g id="line2d_43">
      <g>
       <use style="stroke:#000000;stroke-width:0.6;" x="20.5625" xlink:href="#m3f83706daa" y="172.703047"/>
      </g>
     </g>
    </g>
    <g id="ytick_18">
     <g id="line2d_44">
      <g>
       <use style="stroke:#000000;stroke-width:0.6;" x="20.5625" xlink:href="#m3f83706daa" y="161.341604"/>
      </g>
     </g>
    </g>
    <g id="ytick_19">
     <g id="line2d_45">
      <g>
       <use style="stroke:#000000;stroke-width:0.6;" x="20.5625" xlink:href="#m3f83706daa" y="138.618716"/>
      </g>
     </g>
    </g>
    <g id="ytick_20">
     <g id="line2d_46">
      <g>
       <use style="stroke:#000000;stroke-width:0.6;" x="20.5625" xlink:href="#m3f83706daa" y="127.257272"/>
      </g>
     </g>
    </g>
    <g id="ytick_21">
     <g id="line2d_47">
      <g>
       <use style="stroke:#000000;stroke-width:0.6;" x="20.5625" xlink:href="#m3f83706daa" y="115.895828"/>
      </g>
     </g>
    </g>
    <g id="ytick_22">
     <g id="line2d_48">
      <g>
       <use style="stroke:#000000;stroke-width:0.6;" x="20.5625" xlink:href="#m3f83706daa" y="104.534385"/>
      </g>
     </g>
    </g>
    <g id="ytick_23">
     <g id="line2d_49">
      <g>
       <use style="stroke:#000000;stroke-width:0.6;" x="20.5625" xlink:href="#m3f83706daa" y="81.811497"/>
      </g>
     </g>
    </g>
    <g id="ytick_24">
     <g id="line2d_50">
      <g>
       <use style="stroke:#000000;stroke-width:0.6;" x="20.5625" xlink:href="#m3f83706daa" y="70.450053"/>
      </g>
     </g>
    </g>
    <g id="ytick_25">
     <g id="line2d_51">
      <g>
       <use style="stroke:#000000;stroke-width:0.6;" x="20.5625" xlink:href="#m3f83706daa" y="59.088609"/>
      </g>
     </g>
    </g>
    <g id="ytick_26">
     <g id="line2d_52">
      <g>
       <use style="stroke:#000000;stroke-width:0.6;" x="20.5625" xlink:href="#m3f83706daa" y="47.727166"/>
      </g>
     </g>
    </g>
    <g id="text_12">
     <!-- $y$ -->
     <g transform="translate(16.5625 19.325)scale(0.16 -0.16)">
      <defs>
       <path d="M 8.40625 -14.3125 
Q 10.5 -17.921875 15.71875 -17.921875 
Q 20.453125 -17.921875 23.921875 -14.59375 
Q 27.390625 -11.28125 29.515625 -6.5625 
Q 31.640625 -1.859375 32.8125 3.078125 
Q 28.375 -1.125 23.1875 -1.125 
Q 19.234375 -1.125 16.453125 0.234375 
Q 13.671875 1.609375 12.125 4.3125 
Q 10.59375 7.03125 10.59375 10.890625 
Q 10.59375 14.15625 11.46875 17.59375 
Q 12.359375 21.046875 13.9375 25.265625 
Q 15.53125 29.5 16.703125 32.625 
Q 18.015625 36.28125 18.015625 38.625 
Q 18.015625 41.609375 15.828125 41.609375 
Q 11.859375 41.609375 9.296875 37.53125 
Q 6.734375 33.453125 5.515625 28.421875 
Q 5.328125 27.78125 4.6875 27.78125 
L 3.515625 27.78125 
Q 2.6875 27.78125 2.6875 28.71875 
L 2.6875 29 
Q 4.296875 34.96875 7.609375 39.578125 
Q 10.9375 44.1875 16.015625 44.1875 
Q 19.578125 44.1875 22.046875 41.84375 
Q 24.515625 39.5 24.515625 35.890625 
Q 24.515625 34.03125 23.6875 31.984375 
Q 23.25 30.765625 21.6875 26.65625 
Q 20.125 22.5625 19.28125 19.875 
Q 18.453125 17.1875 17.921875 14.59375 
Q 17.390625 12.015625 17.390625 9.421875 
Q 17.390625 6.109375 18.796875 3.8125 
Q 20.21875 1.515625 23.296875 1.515625 
Q 29.5 1.515625 34.421875 9.078125 
L 42 39.890625 
Q 42.328125 41.21875 43.546875 42.15625 
Q 44.78125 43.109375 46.1875 43.109375 
Q 47.40625 43.109375 48.3125 42.328125 
Q 49.21875 41.546875 49.21875 40.28125 
Q 49.21875 39.703125 49.125 39.5 
L 39.203125 -0.296875 
Q 37.890625 -5.421875 34.375 -10.109375 
Q 30.859375 -14.796875 25.90625 -17.65625 
Q 20.953125 -20.515625 15.578125 -20.515625 
Q 12.984375 -20.515625 10.4375 -19.5 
Q 7.90625 -18.5 6.34375 -16.5 
Q 4.78125 -14.5 4.78125 -11.8125 
Q 4.78125 -9.078125 6.390625 -7.078125 
Q 8.015625 -5.078125 10.6875 -5.078125 
Q 12.3125 -5.078125 13.40625 -6.078125 
Q 14.5 -7.078125 14.5 -8.6875 
Q 14.5 -10.984375 12.78125 -12.6875 
Q 11.078125 -14.40625 8.796875 -14.40625 
Q 8.6875 -14.359375 8.59375 -14.328125 
Q 8.5 -14.3125 8.40625 -14.3125 
z
" id="Cmmi10-121"/>
      </defs>
      <use transform="translate(0 0.8125)" xlink:href="#Cmmi10-121"/>
     </g>
    </g>
   </g>
   <g id="line2d_53">
    <path clip-path="url(#pede8ba709a)" d="M 44.445155 -1 
L 45.697105 30.222505 
L 47.099154 60.075382 
L 48.541635 86.226019 
L 50.120906 110.581006 
L 51.529107 129.230229 
L 53.231056 148.630478 
L 54.929028 165.184827 
L 56.40732 177.723565 
L 58.013119 189.696702 
L 59.552785 199.815574 
L 61.434094 210.661189 
L 63.363822 220.333585 
L 65.127195 228.096076 
L 67.143492 235.914187 
L 69.220386 242.972734 
L 71.350324 249.330989 
L 73.456618 254.878508 
L 75.518012 259.701904 
L 77.725606 264.299738 
L 80.474204 269.329302 
L 82.954296 273.308898 
L 85.348425 276.725173 
L 88.316803 280.468368 
L 90.117395 282.509149 
L 93.118242 285.57875 
L 96.573563 288.672773 
L 99.984191 291.33936 
L 104.214431 294.204389 
L 108.882054 296.900248 
L 113.495111 299.175516 
L 117.77762 301.004442 
L 123.280953 303.027263 
L 127.719965 304.436934 
L 134.349913 306.243157 
L 140.361437 307.628471 
L 147.924141 309.100389 
L 154.484652 310.180526 
L 163.912656 311.480802 
L 173.252417 312.538788 
L 184.881976 313.612399 
L 198.133692 314.587943 
L 212.638335 315.432861 
L 230.989238 316.261737 
L 251.510812 316.964805 
L 277.173023 317.617865 
L 304.598595 318.129528 
L 304.598595 318.129528 
" style="fill:none;stroke:#0000ff;stroke-linecap:square;"/>
   </g>
   <g id="line2d_54">
    <path clip-path="url(#pede8ba709a)" d="M 77.369719 263.594598 
L 79.394258 267.437066 
L 81.834793 271.572313 
L 84.452473 275.491597 
L 87.116842 279.015403 
L 90.192116 282.590432 
L 92.930206 285.39755 
L 95.896212 288.099635 
L 98.799786 290.452768 
L 102.072688 292.809587 
L 105.669596 295.09258 
L 109.813607 297.38828 
L 112.798866 298.853854 
L 116.824931 300.618599 
L 121.472522 302.398937 
L 126.699705 304.128529 
L 132.628762 305.80491 
L 138.68995 307.264431 
L 145.985855 308.748387 
L 153.244051 309.98849 
L 160.582377 311.051395 
L 170.463467 312.243478 
L 182.177183 313.383241 
L 195.258333 314.394984 
L 210.438026 315.317031 
L 228.492021 316.161695 
L 248.352509 316.868836 
L 273.671538 317.540307 
L 304.598595 318.129528 
L 304.598595 318.129528 
" style="fill:none;stroke:#0000ff;stroke-linecap:square;"/>
   </g>
   <g id="patch_4">
    <path d="M 20.5625 326.082538 
L 20.5625 30.685 
" style="fill:none;stroke:#000000;stroke-linecap:square;stroke-linejoin:miter;stroke-width:0.8;"/>
   </g>
   <g id="patch_5">
    <path d="M 14.896337 320.401817 
L 310.279031 320.401817 
" style="fill:none;stroke:#000000;stroke-linecap:square;stroke-linejoin:miter;stroke-width:0.8;"/>
   </g>
  </g>
 </g>
 <defs>
  <clipPath id="pede8ba709a">
   <rect height="295.397538" width="295.382694" x="14.896337" y="30.685"/>
  </clipPath>
 </defs>
</svg>
