<?xml version="1.0" encoding="utf-8" standalone="no"?>
<!DOCTYPE svg PUBLIC "-//W3C//DTD SVG 1.1//EN"
  "http://www.w3.org/Graphics/SVG/1.1/DTD/svg11.dtd">
<!-- Created with matplotlib (https://matplotlib.org/) -->
<svg height="344.279942pt" version="1.1" viewBox="0 0 334.759031 344.279942" width="334.759031pt" xmlns="http://www.w3.org/2000/svg" xmlns:xlink="http://www.w3.org/1999/xlink">
 <metadata>
  <rdf:RDF xmlns:cc="http://creativecommons.org/ns#" xmlns:dc="http://purl.org/dc/elements/1.1/" xmlns:rdf="http://www.w3.org/1999/02/22-rdf-syntax-ns#">
   <cc:Work>
    <dc:type rdf:resource="http://purl.org/dc/dcmitype/StillImage"/>
    <dc:date>2024-07-30T12:55:35.226673</dc:date>
    <dc:format>image/svg+xml</dc:format>
    <dc:creator>
     <cc:Agent>
      <dc:title>Matplotlib v3.3.4, https://matplotlib.org/</dc:title>
     </cc:Agent>
    </dc:creator>
   </cc:Work>
  </rdf:RDF>
 </metadata>
 <defs>
  <style type="text/css">*{stroke-linecap:butt;stroke-linejoin:round;}</style>
 </defs>
 <g id="figure_1">
  <g id="patch_1">
   <path d="M 0 344.279942 
L 334.759031 344.279942 
L 334.759031 0 
L 0 0 
z
" style="fill:#ffffff;"/>
  </g>
  <g id="axes_1">
   <g id="patch_2">
    <path d="M 14.896337 326.082538 
L 310.279031 326.082538 
L 310.279031 30.685 
L 14.896337 30.685 
z
" style="fill:#ffffff;"/>
   </g>
   <g id="patch_3">
    <path clip-path="url(#pbf500b5c33)" d="M 77.369719 320.401817 
L 77.369719 263.594598 
L 78.438925 264.644051 
L 80.006167 266.114114 
L 80.33319 266.411138 
L 81.932907 267.81849 
L 83.046831 268.755907 
L 84.537195 269.959058 
L 85.352793 270.594045 
L 86.73704 271.63593 
L 87.748049 272.369759 
L 89.014706 273.258557 
L 90.087178 273.985778 
L 90.515676 274.2701 
L 92.019605 275.241015 
L 93.618128 276.229175 
L 94.800926 276.932952 
L 95.54404 277.363755 
L 97.25329 278.322968 
L 97.415413 278.411734 
L 98.895172 279.204957 
L 100.092053 279.824949 
L 100.806415 280.18618 
L 102.300342 280.921203 
L 103.579106 281.529351 
L 104.876719 282.127607 
L 105.387003 282.357855 
L 106.489607 282.846029 
L 108.423961 283.672856 
L 109.728411 284.210181 
L 110.623955 284.57006 
L 111.183421 284.791274 
L 112.8444 285.432228 
L 114.011317 285.868901 
L 114.57218 286.074925 
L 116.009167 286.591729 
L 116.875144 286.895727 
L 118.999876 287.618942 
L 119.619174 287.823899 
L 120.915327 288.244674 
L 121.415748 288.404234 
L 123.196131 288.959295 
L 123.670254 289.103878 
L 125.612356 289.682497 
L 127.012431 290.08653 
L 128.065521 290.383496 
L 128.252652 290.435659 
L 130.314001 290.998482 
L 130.953382 291.168785 
L 131.723587 291.371333 
L 133.745106 291.889837 
L 134.602172 292.104119 
L 135.650097 292.361783 
L 136.212398 292.498116 
L 137.418095 292.786022 
L 138.62979 293.069436 
L 140.583656 293.514389 
L 140.983423 293.603649 
L 142.994803 294.043902 
L 143.939139 294.245648 
L 145.084031 294.486137 
L 145.747593 294.623507 
L 147.185494 294.916239 
L 148.155464 295.109982 
L 149.098503 295.295542 
L 150.102664 295.49016 
L 151.629413 295.780346 
L 152.301271 295.905914 
L 154.224919 296.258455 
L 155.260128 296.444007 
L 156.473622 296.657916 
L 157.263684 296.795144 
L 158.921321 297.077968 
L 159.8931 297.240644 
L 160.440505 297.331284 
L 161.887235 297.567455 
L 162.578646 297.678625 
L 164.581081 297.994568 
L 165.373422 298.117171 
L 166.105052 298.229194 
L 167.713898 298.471613 
L 168.213554 298.545825 
L 169.358736 298.714036 
L 171.254886 298.986931 
L 172.139827 299.111956 
L 173.455825 299.295204 
L 174.444234 299.430776 
L 176.082681 299.651711 
L 176.347421 299.686974 
L 177.443407 299.83169 
L 178.655631 299.989417 
L 180.216647 300.188999 
L 181.701986 300.375315 
L 182.801823 300.511077 
L 183.732522 300.624531 
L 184.863241 300.760638 
L 185.915445 300.885623 
L 187.131866 301.028145 
L 188.251323 301.15748 
L 188.966969 301.23926 
L 190.522362 301.414627 
L 191.952577 301.573071 
L 193.134109 301.701984 
L 194.38229 301.836266 
L 195.199376 301.92313 
L 195.850845 301.991807 
L 197.479705 302.161306 
L 197.977176 302.212453 
L 200.099398 302.427461 
L 201.047667 302.521898 
L 201.717807 302.58804 
L 202.491139 302.663762 
L 204.600656 302.867083 
L 205.295069 302.932996 
L 205.992904 302.998737 
L 207.990004 303.184172 
L 209.104745 303.28597 
L 209.966497 303.363844 
L 211.427003 303.494219 
L 211.672552 303.515943 
L 213.210102 303.650712 
L 214.64981 303.774969 
L 215.231334 303.824638 
L 216.814134 303.958335 
L 217.949129 304.052887 
L 218.692952 304.114264 
L 220.526699 304.263627 
L 220.852767 304.2899 
L 222.565964 304.426545 
L 223.42804 304.494432 
L 224.780006 304.599743 
L 225.257944 304.636639 
L 226.837656 304.757373 
L 227.775533 304.828182 
L 229.315477 304.943066 
L 229.8131 304.979829 
L 232.014216 305.140365 
L 232.871913 305.202019 
L 233.458959 305.243931 
L 235.026179 305.354699 
L 236.076556 305.428036 
L 236.914285 305.486016 
L 238.269791 305.578886 
L 238.987922 305.62762 
L 240.560461 305.733226 
L 241.590212 305.801565 
L 243.464436 305.924328 
L 243.553515 305.930112 
L 245.342096 306.045264 
L 246.900986 306.144144 
L 247.718556 306.195459 
L 248.148216 306.222279 
L 250.159268 306.346479 
L 251.093706 306.403451 
L 252.138293 306.466594 
L 253.148585 306.527125 
L 254.207542 306.59001 
L 255.064162 306.640464 
L 256.445568 306.721055 
L 257.526635 306.783468 
L 259.491773 306.895476 
L 260.004384 306.924391 
L 260.879203 306.973453 
L 262.799032 307.079878 
L 263.254758 307.104894 
L 264.866035 307.192593 
L 265.918786 307.249269 
L 266.523576 307.28161 
L 268.471284 307.38469 
L 268.72307 307.397897 
L 270.723851 307.501902 
L 271.348267 307.53402 
L 272.544304 307.595098 
L 274.066725 307.672009 
L 274.729334 307.705195 
L 276.386048 307.787418 
L 276.728949 307.804304 
L 278.061469 307.869494 
L 279.313298 307.930125 
L 280.196988 307.972574 
L 281.368171 308.028389 
L 283.099026 308.109965 
L 283.749595 308.140349 
L 285.465701 308.219781 
L 286.066907 308.247366 
L 287.279523 308.302626 
L 288.619342 308.363101 
L 289.85314 308.418258 
L 291.049461 308.471259 
L 292.412055 308.531059 
L 292.95344 308.554653 
L 294.38301 308.616505 
L 295.943196 308.683275 
L 296.840276 308.721325 
L 298.201318 308.778586 
L 298.364861 308.785428 
L 300.391246 308.869548 
L 301.005151 308.894793 
L 302.292961 308.947393 
L 303.266594 308.986842 
L 304.598595 309.040373 
L 304.598595 320.401817 
z
" style="fill:#006400;opacity:0.5;"/>
   </g>
   <g id="matplotlib.axis_1">
    <g id="xtick_1">
     <g id="line2d_1">
      <defs>
       <path d="M 0 0 
L 0 3.5 
" id="m4d96843913" style="stroke:#000000;stroke-width:0.8;"/>
      </defs>
      <g>
       <use style="stroke:#000000;stroke-width:0.8;" x="20.5625" xlink:href="#m4d96843913" y="320.401817"/>
      </g>
     </g>
    </g>
    <g id="xtick_2">
     <g id="line2d_2">
      <g>
       <use style="stroke:#000000;stroke-width:0.8;" x="77.369719" xlink:href="#m4d96843913" y="320.401817"/>
      </g>
     </g>
     <g id="text_1">
      <!-- 1 -->
      <g transform="translate(74.188469 335.000254)scale(0.1 -0.1)">
       <defs>
        <path d="M 12.40625 8.296875 
L 28.515625 8.296875 
L 28.515625 63.921875 
L 10.984375 60.40625 
L 10.984375 69.390625 
L 28.421875 72.90625 
L 38.28125 72.90625 
L 38.28125 8.296875 
L 54.390625 8.296875 
L 54.390625 0 
L 12.40625 0 
z
" id="DejaVuSans-49"/>
       </defs>
       <use xlink:href="#DejaVuSans-49"/>
      </g>
     </g>
    </g>
    <g id="xtick_3">
     <g id="line2d_3">
      <g>
       <use style="stroke:#000000;stroke-width:0.8;" x="134.176938" xlink:href="#m4d96843913" y="320.401817"/>
      </g>
     </g>
     <g id="text_2">
      <!-- 2 -->
      <g transform="translate(130.995688 335.000254)scale(0.1 -0.1)">
       <defs>
        <path d="M 19.1875 8.296875 
L 53.609375 8.296875 
L 53.609375 0 
L 7.328125 0 
L 7.328125 8.296875 
Q 12.9375 14.109375 22.625 23.890625 
Q 32.328125 33.6875 34.8125 36.53125 
Q 39.546875 41.84375 41.421875 45.53125 
Q 43.3125 49.21875 43.3125 52.78125 
Q 43.3125 58.59375 39.234375 62.25 
Q 35.15625 65.921875 28.609375 65.921875 
Q 23.96875 65.921875 18.8125 64.3125 
Q 13.671875 62.703125 7.8125 59.421875 
L 7.8125 69.390625 
Q 13.765625 71.78125 18.9375 73 
Q 24.125 74.21875 28.421875 74.21875 
Q 39.75 74.21875 46.484375 68.546875 
Q 53.21875 62.890625 53.21875 53.421875 
Q 53.21875 48.921875 51.53125 44.890625 
Q 49.859375 40.875 45.40625 35.40625 
Q 44.1875 33.984375 37.640625 27.21875 
Q 31.109375 20.453125 19.1875 8.296875 
z
" id="DejaVuSans-50"/>
       </defs>
       <use xlink:href="#DejaVuSans-50"/>
      </g>
     </g>
    </g>
    <g id="xtick_4">
     <g id="line2d_4">
      <g>
       <use style="stroke:#000000;stroke-width:0.8;" x="190.984157" xlink:href="#m4d96843913" y="320.401817"/>
      </g>
     </g>
     <g id="text_3">
      <!-- 3 -->
      <g transform="translate(187.802907 335.000254)scale(0.1 -0.1)">
       <defs>
        <path d="M 40.578125 39.3125 
Q 47.65625 37.796875 51.625 33 
Q 55.609375 28.21875 55.609375 21.1875 
Q 55.609375 10.40625 48.1875 4.484375 
Q 40.765625 -1.421875 27.09375 -1.421875 
Q 22.515625 -1.421875 17.65625 -0.515625 
Q 12.796875 0.390625 7.625 2.203125 
L 7.625 11.71875 
Q 11.71875 9.328125 16.59375 8.109375 
Q 21.484375 6.890625 26.8125 6.890625 
Q 36.078125 6.890625 40.9375 10.546875 
Q 45.796875 14.203125 45.796875 21.1875 
Q 45.796875 27.640625 41.28125 31.265625 
Q 36.765625 34.90625 28.71875 34.90625 
L 20.21875 34.90625 
L 20.21875 43.015625 
L 29.109375 43.015625 
Q 36.375 43.015625 40.234375 45.921875 
Q 44.09375 48.828125 44.09375 54.296875 
Q 44.09375 59.90625 40.109375 62.90625 
Q 36.140625 65.921875 28.71875 65.921875 
Q 24.65625 65.921875 20.015625 65.03125 
Q 15.375 64.15625 9.8125 62.3125 
L 9.8125 71.09375 
Q 15.4375 72.65625 20.34375 73.4375 
Q 25.25 74.21875 29.59375 74.21875 
Q 40.828125 74.21875 47.359375 69.109375 
Q 53.90625 64.015625 53.90625 55.328125 
Q 53.90625 49.265625 50.4375 45.09375 
Q 46.96875 40.921875 40.578125 39.3125 
z
" id="DejaVuSans-51"/>
       </defs>
       <use xlink:href="#DejaVuSans-51"/>
      </g>
     </g>
    </g>
    <g id="xtick_5">
     <g id="line2d_5">
      <g>
       <use style="stroke:#000000;stroke-width:0.8;" x="247.791376" xlink:href="#m4d96843913" y="320.401817"/>
      </g>
     </g>
     <g id="text_4">
      <!-- 4 -->
      <g transform="translate(244.610126 335.000254)scale(0.1 -0.1)">
       <defs>
        <path d="M 37.796875 64.3125 
L 12.890625 25.390625 
L 37.796875 25.390625 
z
M 35.203125 72.90625 
L 47.609375 72.90625 
L 47.609375 25.390625 
L 58.015625 25.390625 
L 58.015625 17.1875 
L 47.609375 17.1875 
L 47.609375 0 
L 37.796875 0 
L 37.796875 17.1875 
L 4.890625 17.1875 
L 4.890625 26.703125 
z
" id="DejaVuSans-52"/>
       </defs>
       <use xlink:href="#DejaVuSans-52"/>
      </g>
     </g>
    </g>
    <g id="xtick_6">
     <g id="line2d_6">
      <g>
       <use style="stroke:#000000;stroke-width:0.8;" x="304.598595" xlink:href="#m4d96843913" y="320.401817"/>
      </g>
     </g>
     <g id="text_5">
      <!-- 5 -->
      <g transform="translate(301.417345 335.000254)scale(0.1 -0.1)">
       <defs>
        <path d="M 10.796875 72.90625 
L 49.515625 72.90625 
L 49.515625 64.59375 
L 19.828125 64.59375 
L 19.828125 46.734375 
Q 21.96875 47.46875 24.109375 47.828125 
Q 26.265625 48.1875 28.421875 48.1875 
Q 40.625 48.1875 47.75 41.5 
Q 54.890625 34.8125 54.890625 23.390625 
Q 54.890625 11.625 47.5625 5.09375 
Q 40.234375 -1.421875 26.90625 -1.421875 
Q 22.3125 -1.421875 17.546875 -0.640625 
Q 12.796875 0.140625 7.71875 1.703125 
L 7.71875 11.625 
Q 12.109375 9.234375 16.796875 8.0625 
Q 21.484375 6.890625 26.703125 6.890625 
Q 35.15625 6.890625 40.078125 11.328125 
Q 45.015625 15.765625 45.015625 23.390625 
Q 45.015625 31 40.078125 35.4375 
Q 35.15625 39.890625 26.703125 39.890625 
Q 22.75 39.890625 18.8125 39.015625 
Q 14.890625 38.140625 10.796875 36.28125 
z
" id="DejaVuSans-53"/>
       </defs>
       <use xlink:href="#DejaVuSans-53"/>
      </g>
     </g>
    </g>
    <g id="xtick_7">
     <g id="line2d_7">
      <defs>
       <path d="M 0 0 
L 0 2 
" id="m966464bea1" style="stroke:#000000;stroke-width:0.6;"/>
      </defs>
      <g>
       <use style="stroke:#000000;stroke-width:0.6;" x="31.923944" xlink:href="#m966464bea1" y="320.401817"/>
      </g>
     </g>
    </g>
    <g id="xtick_8">
     <g id="line2d_8">
      <g>
       <use style="stroke:#000000;stroke-width:0.6;" x="43.285388" xlink:href="#m966464bea1" y="320.401817"/>
      </g>
     </g>
    </g>
    <g id="xtick_9">
     <g id="line2d_9">
      <g>
       <use style="stroke:#000000;stroke-width:0.6;" x="54.646831" xlink:href="#m966464bea1" y="320.401817"/>
      </g>
     </g>
    </g>
    <g id="xtick_10">
     <g id="line2d_10">
      <g>
       <use style="stroke:#000000;stroke-width:0.6;" x="66.008275" xlink:href="#m966464bea1" y="320.401817"/>
      </g>
     </g>
    </g>
    <g id="xtick_11">
     <g id="line2d_11">
      <g>
       <use style="stroke:#000000;stroke-width:0.6;" x="88.731163" xlink:href="#m966464bea1" y="320.401817"/>
      </g>
     </g>
    </g>
    <g id="xtick_12">
     <g id="line2d_12">
      <g>
       <use style="stroke:#000000;stroke-width:0.6;" x="100.092607" xlink:href="#m966464bea1" y="320.401817"/>
      </g>
     </g>
    </g>
    <g id="xtick_13">
     <g id="line2d_13">
      <g>
       <use style="stroke:#000000;stroke-width:0.6;" x="111.45405" xlink:href="#m966464bea1" y="320.401817"/>
      </g>
     </g>
    </g>
    <g id="xtick_14">
     <g id="line2d_14">
      <g>
       <use style="stroke:#000000;stroke-width:0.6;" x="122.815494" xlink:href="#m966464bea1" y="320.401817"/>
      </g>
     </g>
    </g>
    <g id="xtick_15">
     <g id="line2d_15">
      <g>
       <use style="stroke:#000000;stroke-width:0.6;" x="145.538382" xlink:href="#m966464bea1" y="320.401817"/>
      </g>
     </g>
    </g>
    <g id="xtick_16">
     <g id="line2d_16">
      <g>
       <use style="stroke:#000000;stroke-width:0.6;" x="156.899825" xlink:href="#m966464bea1" y="320.401817"/>
      </g>
     </g>
    </g>
    <g id="xtick_17">
     <g id="line2d_17">
      <g>
       <use style="stroke:#000000;stroke-width:0.6;" x="168.261269" xlink:href="#m966464bea1" y="320.401817"/>
      </g>
     </g>
    </g>
    <g id="xtick_18">
     <g id="line2d_18">
      <g>
       <use style="stroke:#000000;stroke-width:0.6;" x="179.622713" xlink:href="#m966464bea1" y="320.401817"/>
      </g>
     </g>
    </g>
    <g id="xtick_19">
     <g id="line2d_19">
      <g>
       <use style="stroke:#000000;stroke-width:0.6;" x="202.345601" xlink:href="#m966464bea1" y="320.401817"/>
      </g>
     </g>
    </g>
    <g id="xtick_20">
     <g id="line2d_20">
      <g>
       <use style="stroke:#000000;stroke-width:0.6;" x="213.707044" xlink:href="#m966464bea1" y="320.401817"/>
      </g>
     </g>
    </g>
    <g id="xtick_21">
     <g id="line2d_21">
      <g>
       <use style="stroke:#000000;stroke-width:0.6;" x="225.068488" xlink:href="#m966464bea1" y="320.401817"/>
      </g>
     </g>
    </g>
    <g id="xtick_22">
     <g id="line2d_22">
      <g>
       <use style="stroke:#000000;stroke-width:0.6;" x="236.429932" xlink:href="#m966464bea1" y="320.401817"/>
      </g>
     </g>
    </g>
    <g id="xtick_23">
     <g id="line2d_23">
      <g>
       <use style="stroke:#000000;stroke-width:0.6;" x="259.15282" xlink:href="#m966464bea1" y="320.401817"/>
      </g>
     </g>
    </g>
    <g id="xtick_24">
     <g id="line2d_24">
      <g>
       <use style="stroke:#000000;stroke-width:0.6;" x="270.514263" xlink:href="#m966464bea1" y="320.401817"/>
      </g>
     </g>
    </g>
    <g id="xtick_25">
     <g id="line2d_25">
      <g>
       <use style="stroke:#000000;stroke-width:0.6;" x="281.875707" xlink:href="#m966464bea1" y="320.401817"/>
      </g>
     </g>
    </g>
    <g id="xtick_26">
     <g id="line2d_26">
      <g>
       <use style="stroke:#000000;stroke-width:0.6;" x="293.237151" xlink:href="#m966464bea1" y="320.401817"/>
      </g>
     </g>
    </g>
    <g id="text_6">
     <!-- $x$ -->
     <g transform="translate(318.279031 320.401817)scale(0.16 -0.16)">
      <defs>
       <path d="M 7.8125 2.875 
Q 9.578125 1.515625 12.796875 1.515625 
Q 15.921875 1.515625 18.3125 4.515625 
Q 20.703125 7.515625 21.578125 11.078125 
L 26.125 28.8125 
Q 27.203125 33.640625 27.203125 35.40625 
Q 27.203125 37.890625 25.8125 39.75 
Q 24.421875 41.609375 21.921875 41.609375 
Q 18.75 41.609375 15.96875 39.625 
Q 13.1875 37.640625 11.28125 34.59375 
Q 9.375 31.546875 8.59375 28.421875 
Q 8.40625 27.78125 7.8125 27.78125 
L 6.59375 27.78125 
Q 5.8125 27.78125 5.8125 28.71875 
L 5.8125 29 
Q 6.78125 32.71875 9.125 36.25 
Q 11.46875 39.796875 14.859375 41.984375 
Q 18.265625 44.1875 22.125 44.1875 
Q 25.78125 44.1875 28.734375 42.234375 
Q 31.6875 40.28125 32.90625 36.921875 
Q 34.625 39.984375 37.28125 42.078125 
Q 39.9375 44.1875 43.109375 44.1875 
Q 45.265625 44.1875 47.5 43.421875 
Q 49.75 42.671875 51.171875 41.109375 
Q 52.59375 39.546875 52.59375 37.203125 
Q 52.59375 34.671875 50.953125 32.828125 
Q 49.3125 31 46.78125 31 
Q 45.171875 31 44.09375 32.03125 
Q 43.015625 33.0625 43.015625 34.625 
Q 43.015625 36.71875 44.453125 38.296875 
Q 45.90625 39.890625 47.90625 40.1875 
Q 46.09375 41.609375 42.921875 41.609375 
Q 39.703125 41.609375 37.328125 38.625 
Q 34.96875 35.640625 33.984375 31.984375 
L 29.59375 14.3125 
Q 28.515625 10.296875 28.515625 7.71875 
Q 28.515625 5.171875 29.953125 3.34375 
Q 31.390625 1.515625 33.796875 1.515625 
Q 38.484375 1.515625 42.15625 5.640625 
Q 45.84375 9.765625 47.015625 14.703125 
Q 47.21875 15.28125 47.796875 15.28125 
L 49.03125 15.28125 
Q 49.421875 15.28125 49.65625 15.015625 
Q 49.90625 14.75 49.90625 14.40625 
Q 49.90625 14.3125 49.8125 14.109375 
Q 48.390625 8.15625 43.84375 3.515625 
Q 39.3125 -1.125 33.59375 -1.125 
Q 29.9375 -1.125 26.984375 0.84375 
Q 24.03125 2.828125 22.796875 6.203125 
Q 21.234375 3.265625 18.46875 1.0625 
Q 15.71875 -1.125 12.59375 -1.125 
Q 10.453125 -1.125 8.171875 -0.359375 
Q 5.90625 0.390625 4.484375 1.953125 
Q 3.078125 3.515625 3.078125 5.90625 
Q 3.078125 8.25 4.703125 10.171875 
Q 6.34375 12.109375 8.796875 12.109375 
Q 10.453125 12.109375 11.578125 11.109375 
Q 12.703125 10.109375 12.703125 8.5 
Q 12.703125 6.390625 11.296875 4.828125 
Q 9.90625 3.265625 7.8125 2.875 
z
" id="Cmmi10-120"/>
      </defs>
      <use transform="translate(0 0.8125)" xlink:href="#Cmmi10-120"/>
     </g>
    </g>
   </g>
   <g id="matplotlib.axis_2">
    <g id="ytick_1">
     <g id="line2d_27">
      <defs>
       <path d="M 0 0 
L -3.5 0 
" id="m270d880de2" style="stroke:#000000;stroke-width:0.8;"/>
      </defs>
      <g>
       <use style="stroke:#000000;stroke-width:0.8;" x="20.5625" xlink:href="#m270d880de2" y="320.401817"/>
      </g>
     </g>
    </g>
    <g id="ytick_2">
     <g id="line2d_28">
      <g>
       <use style="stroke:#000000;stroke-width:0.8;" x="20.5625" xlink:href="#m270d880de2" y="263.594598"/>
      </g>
     </g>
     <g id="text_7">
      <!-- 1 -->
      <g transform="translate(7.2 267.393816)scale(0.1 -0.1)">
       <use xlink:href="#DejaVuSans-49"/>
      </g>
     </g>
    </g>
    <g id="ytick_3">
     <g id="line2d_29">
      <g>
       <use style="stroke:#000000;stroke-width:0.8;" x="20.5625" xlink:href="#m270d880de2" y="206.787379"/>
      </g>
     </g>
     <g id="text_8">
      <!-- 2 -->
      <g transform="translate(7.2 210.586597)scale(0.1 -0.1)">
       <use xlink:href="#DejaVuSans-50"/>
      </g>
     </g>
    </g>
    <g id="ytick_4">
     <g id="line2d_30">
      <g>
       <use style="stroke:#000000;stroke-width:0.8;" x="20.5625" xlink:href="#m270d880de2" y="149.98016"/>
      </g>
     </g>
     <g id="text_9">
      <!-- 3 -->
      <g transform="translate(7.2 153.779379)scale(0.1 -0.1)">
       <use xlink:href="#DejaVuSans-51"/>
      </g>
     </g>
    </g>
    <g id="ytick_5">
     <g id="line2d_31">
      <g>
       <use style="stroke:#000000;stroke-width:0.8;" x="20.5625" xlink:href="#m270d880de2" y="93.172941"/>
      </g>
     </g>
     <g id="text_10">
      <!-- 4 -->
      <g transform="translate(7.2 96.97216)scale(0.1 -0.1)">
       <use xlink:href="#DejaVuSans-52"/>
      </g>
     </g>
    </g>
    <g id="ytick_6">
     <g id="line2d_32">
      <g>
       <use style="stroke:#000000;stroke-width:0.8;" x="20.5625" xlink:href="#m270d880de2" y="36.365722"/>
      </g>
     </g>
     <g id="text_11">
      <!-- 5 -->
      <g transform="translate(7.2 40.164941)scale(0.1 -0.1)">
       <use xlink:href="#DejaVuSans-53"/>
      </g>
     </g>
    </g>
    <g id="ytick_7">
     <g id="line2d_33">
      <defs>
       <path d="M 0 0 
L -2 0 
" id="m985d20140d" style="stroke:#000000;stroke-width:0.6;"/>
      </defs>
      <g>
       <use style="stroke:#000000;stroke-width:0.6;" x="20.5625" xlink:href="#m985d20140d" y="309.040373"/>
      </g>
     </g>
    </g>
    <g id="ytick_8">
     <g id="line2d_34">
      <g>
       <use style="stroke:#000000;stroke-width:0.6;" x="20.5625" xlink:href="#m985d20140d" y="297.678929"/>
      </g>
     </g>
    </g>
    <g id="ytick_9">
     <g id="line2d_35">
      <g>
       <use style="stroke:#000000;stroke-width:0.6;" x="20.5625" xlink:href="#m985d20140d" y="286.317485"/>
      </g>
     </g>
    </g>
    <g id="ytick_10">
     <g id="line2d_36">
      <g>
       <use style="stroke:#000000;stroke-width:0.6;" x="20.5625" xlink:href="#m985d20140d" y="274.956041"/>
      </g>
     </g>
    </g>
    <g id="ytick_11">
     <g id="line2d_37">
      <g>
       <use style="stroke:#000000;stroke-width:0.6;" x="20.5625" xlink:href="#m985d20140d" y="252.233154"/>
      </g>
     </g>
    </g>
    <g id="ytick_12">
     <g id="line2d_38">
      <g>
       <use style="stroke:#000000;stroke-width:0.6;" x="20.5625" xlink:href="#m985d20140d" y="240.87171"/>
      </g>
     </g>
    </g>
    <g id="ytick_13">
     <g id="line2d_39">
      <g>
       <use style="stroke:#000000;stroke-width:0.6;" x="20.5625" xlink:href="#m985d20140d" y="229.510266"/>
      </g>
     </g>
    </g>
    <g id="ytick_14">
     <g id="line2d_40">
      <g>
       <use style="stroke:#000000;stroke-width:0.6;" x="20.5625" xlink:href="#m985d20140d" y="218.148822"/>
      </g>
     </g>
    </g>
    <g id="ytick_15">
     <g id="line2d_41">
      <g>
       <use style="stroke:#000000;stroke-width:0.6;" x="20.5625" xlink:href="#m985d20140d" y="195.425935"/>
      </g>
     </g>
    </g>
    <g id="ytick_16">
     <g id="line2d_42">
      <g>
       <use style="stroke:#000000;stroke-width:0.6;" x="20.5625" xlink:href="#m985d20140d" y="184.064491"/>
      </g>
     </g>
    </g>
    <g id="ytick_17">
     <g id="line2d_43">
      <g>
       <use style="stroke:#000000;stroke-width:0.6;" x="20.5625" xlink:href="#m985d20140d" y="172.703047"/>
      </g>
     </g>
    </g>
    <g id="ytick_18">
     <g id="line2d_44">
      <g>
       <use style="stroke:#000000;stroke-width:0.6;" x="20.5625" xlink:href="#m985d20140d" y="161.341604"/>
      </g>
     </g>
    </g>
    <g id="ytick_19">
     <g id="line2d_45">
      <g>
       <use style="stroke:#000000;stroke-width:0.6;" x="20.5625" xlink:href="#m985d20140d" y="138.618716"/>
      </g>
     </g>
    </g>
    <g id="ytick_20">
     <g id="line2d_46">
      <g>
       <use style="stroke:#000000;stroke-width:0.6;" x="20.5625" xlink:href="#m985d20140d" y="127.257272"/>
      </g>
     </g>
    </g>
    <g id="ytick_21">
     <g id="line2d_47">
      <g>
       <use style="stroke:#000000;stroke-width:0.6;" x="20.5625" xlink:href="#m985d20140d" y="115.895828"/>
      </g>
     </g>
    </g>
    <g id="ytick_22">
     <g id="line2d_48">
      <g>
       <use style="stroke:#000000;stroke-width:0.6;" x="20.5625" xlink:href="#m985d20140d" y="104.534385"/>
      </g>
     </g>
    </g>
    <g id="ytick_23">
     <g id="line2d_49">
      <g>
       <use style="stroke:#000000;stroke-width:0.6;" x="20.5625" xlink:href="#m985d20140d" y="81.811497"/>
      </g>
     </g>
    </g>
    <g id="ytick_24">
     <g id="line2d_50">
      <g>
       <use style="stroke:#000000;stroke-width:0.6;" x="20.5625" xlink:href="#m985d20140d" y="70.450053"/>
      </g>
     </g>
    </g>
    <g id="ytick_25">
     <g id="line2d_51">
      <g>
       <use style="stroke:#000000;stroke-width:0.6;" x="20.5625" xlink:href="#m985d20140d" y="59.088609"/>
      </g>
     </g>
    </g>
    <g id="ytick_26">
     <g id="line2d_52">
      <g>
       <use style="stroke:#000000;stroke-width:0.6;" x="20.5625" xlink:href="#m985d20140d" y="47.727166"/>
      </g>
     </g>
    </g>
    <g id="text_12">
     <!-- $y$ -->
     <g transform="translate(16.5625 19.325)scale(0.16 -0.16)">
      <defs>
       <path d="M 8.40625 -14.3125 
Q 10.5 -17.921875 15.71875 -17.921875 
Q 20.453125 -17.921875 23.921875 -14.59375 
Q 27.390625 -11.28125 29.515625 -6.5625 
Q 31.640625 -1.859375 32.8125 3.078125 
Q 28.375 -1.125 23.1875 -1.125 
Q 19.234375 -1.125 16.453125 0.234375 
Q 13.671875 1.609375 12.125 4.3125 
Q 10.59375 7.03125 10.59375 10.890625 
Q 10.59375 14.15625 11.46875 17.59375 
Q 12.359375 21.046875 13.9375 25.265625 
Q 15.53125 29.5 16.703125 32.625 
Q 18.015625 36.28125 18.015625 38.625 
Q 18.015625 41.609375 15.828125 41.609375 
Q 11.859375 41.609375 9.296875 37.53125 
Q 6.734375 33.453125 5.515625 28.421875 
Q 5.328125 27.78125 4.6875 27.78125 
L 3.515625 27.78125 
Q 2.6875 27.78125 2.6875 28.71875 
L 2.6875 29 
Q 4.296875 34.96875 7.609375 39.578125 
Q 10.9375 44.1875 16.015625 44.1875 
Q 19.578125 44.1875 22.046875 41.84375 
Q 24.515625 39.5 24.515625 35.890625 
Q 24.515625 34.03125 23.6875 31.984375 
Q 23.25 30.765625 21.6875 26.65625 
Q 20.125 22.5625 19.28125 19.875 
Q 18.453125 17.1875 17.921875 14.59375 
Q 17.390625 12.015625 17.390625 9.421875 
Q 17.390625 6.109375 18.796875 3.8125 
Q 20.21875 1.515625 23.296875 1.515625 
Q 29.5 1.515625 34.421875 9.078125 
L 42 39.890625 
Q 42.328125 41.21875 43.546875 42.15625 
Q 44.78125 43.109375 46.1875 43.109375 
Q 47.40625 43.109375 48.3125 42.328125 
Q 49.21875 41.546875 49.21875 40.28125 
Q 49.21875 39.703125 49.125 39.5 
L 39.203125 -0.296875 
Q 37.890625 -5.421875 34.375 -10.109375 
Q 30.859375 -14.796875 25.90625 -17.65625 
Q 20.953125 -20.515625 15.578125 -20.515625 
Q 12.984375 -20.515625 10.4375 -19.5 
Q 7.90625 -18.5 6.34375 -16.5 
Q 4.78125 -14.5 4.78125 -11.8125 
Q 4.78125 -9.078125 6.390625 -7.078125 
Q 8.015625 -5.078125 10.6875 -5.078125 
Q 12.3125 -5.078125 13.40625 -6.078125 
Q 14.5 -7.078125 14.5 -8.6875 
Q 14.5 -10.984375 12.78125 -12.6875 
Q 11.078125 -14.40625 8.796875 -14.40625 
Q 8.6875 -14.359375 8.59375 -14.328125 
Q 8.5 -14.3125 8.40625 -14.3125 
z
" id="Cmmi10-121"/>
      </defs>
      <use transform="translate(0 0.8125)" xlink:href="#Cmmi10-121"/>
     </g>
    </g>
   </g>
   <g id="line2d_53">
    <path clip-path="url(#pbf500b5c33)" d="M 30.603172 -1 
L 31.606802 28.209513 
L 32.781792 56.306316 
L 33.997677 80.206975 
L 35.273658 101.040428 
L 36.61223 119.335504 
L 38.058381 135.954971 
L 39.57295 150.649907 
L 40.98666 162.399716 
L 42.706132 174.66872 
L 44.34952 184.737065 
L 46.074285 193.9089 
L 48.091153 203.176316 
L 50.072037 211.045302 
L 52.001466 217.756579 
L 54.329319 224.832846 
L 56.193548 229.833048 
L 58.223026 234.713685 
L 60.175361 238.936856 
L 62.036135 242.591899 
L 64.560314 247.055898 
L 67.101448 251.060754 
L 69.447782 254.388899 
L 71.425033 256.955112 
L 74.163379 260.196458 
L 76.692432 262.909138 
L 80.634604 266.682038 
L 84.136102 269.640809 
L 88.097606 272.61837 
L 90.433359 274.21575 
L 94.37255 276.680669 
L 97.323564 278.361491 
L 102.247698 280.895759 
L 107.196622 283.15252 
L 112.316225 285.230927 
L 118.477164 287.443933 
L 124.045608 289.217402 
L 130.71573 291.105716 
L 137.662703 292.843708 
L 145.5126 294.575025 
L 154.108003 296.237318 
L 163.841793 297.878952 
L 174.656763 299.459699 
L 187.08255 301.022408 
L 199.764514 302.393871 
L 215.572215 303.853615 
L 233.250693 305.229088 
L 252.106507 306.464681 
L 274.212205 307.67931 
L 298.454759 308.789186 
L 304.598595 309.040373 
L 304.598595 309.040373 
" style="fill:none;stroke:#0000ff;stroke-linecap:square;"/>
   </g>
   <g id="line2d_54">
    <path clip-path="url(#pbf500b5c33)" d="M 77.369719 263.594598 
L 80.33319 266.411138 
L 83.046831 268.755907 
L 86.73704 271.63593 
L 90.515676 274.2701 
L 94.800926 276.932952 
L 98.895172 279.204957 
L 103.579106 281.529351 
L 108.423961 283.672856 
L 114.011317 285.868901 
L 119.619174 287.823899 
L 125.612356 289.682497 
L 131.723587 291.371333 
L 138.62979 293.069436 
L 147.185494 294.916239 
L 155.260128 296.444007 
L 165.373422 298.117171 
L 176.347421 299.686974 
L 188.251323 301.15748 
L 201.717807 302.58804 
L 216.814134 303.958335 
L 233.458959 305.243931 
L 253.148585 306.527125 
L 274.729334 307.705195 
L 300.391246 308.869548 
L 304.598595 309.040373 
L 304.598595 309.040373 
" style="fill:none;stroke:#0000ff;stroke-linecap:square;"/>
   </g>
   <g id="patch_4">
    <path d="M 20.5625 326.082538 
L 20.5625 30.685 
" style="fill:none;stroke:#000000;stroke-linecap:square;stroke-linejoin:miter;stroke-width:0.8;"/>
   </g>
   <g id="patch_5">
    <path d="M 14.896337 320.401817 
L 310.279031 320.401817 
" style="fill:none;stroke:#000000;stroke-linecap:square;stroke-linejoin:miter;stroke-width:0.8;"/>
   </g>
  </g>
 </g>
 <defs>
  <clipPath id="pbf500b5c33">
   <rect height="295.397538" width="295.382694" x="14.896337" y="30.685"/>
  </clipPath>
 </defs>
</svg>
