<?xml version="1.0" encoding="utf-8" standalone="no"?>
<!DOCTYPE svg PUBLIC "-//W3C//DTD SVG 1.1//EN"
  "http://www.w3.org/Graphics/SVG/1.1/DTD/svg11.dtd">
<!-- Created with matplotlib (https://matplotlib.org/) -->
<svg height="344.279942pt" version="1.1" viewBox="0 0 334.759259 344.279942" width="334.759259pt" xmlns="http://www.w3.org/2000/svg" xmlns:xlink="http://www.w3.org/1999/xlink">
 <metadata>
  <rdf:RDF xmlns:cc="http://creativecommons.org/ns#" xmlns:dc="http://purl.org/dc/elements/1.1/" xmlns:rdf="http://www.w3.org/1999/02/22-rdf-syntax-ns#">
   <cc:Work>
    <dc:type rdf:resource="http://purl.org/dc/dcmitype/StillImage"/>
    <dc:date>2024-07-30T12:55:32.585017</dc:date>
    <dc:format>image/svg+xml</dc:format>
    <dc:creator>
     <cc:Agent>
      <dc:title>Matplotlib v3.3.4, https://matplotlib.org/</dc:title>
     </cc:Agent>
    </dc:creator>
   </cc:Work>
  </rdf:RDF>
 </metadata>
 <defs>
  <style type="text/css">*{stroke-linecap:butt;stroke-linejoin:round;}</style>
 </defs>
 <g id="figure_1">
  <g id="patch_1">
   <path d="M 0 344.279942 
L 334.759259 344.279942 
L 334.759259 0 
L 0 0 
z
" style="fill:#ffffff;"/>
  </g>
  <g id="axes_1">
   <g id="patch_2">
    <path d="M 14.88469 326.082538 
L 310.279259 326.082538 
L 310.279259 30.685 
L 14.88469 30.685 
z
" style="fill:#ffffff;"/>
   </g>
   <g id="patch_3">
    <path clip-path="url(#p6da0f6af1b)" d="M 20.565355 320.401817 
L 20.565355 -7693.242576 
L 20.570931 -4342.581375 
L 20.576508 -3297.233388 
L 20.582084 -2739.130996 
L 20.58766 -2378.869796 
L 20.593237 -2121.767334 
L 20.598813 -1926.440547 
L 20.60439 -1771.549675 
L 20.609966 -1644.827733 
L 20.615543 -1538.656145 
L 20.621119 -1448.020469 
L 20.626695 -1369.467432 
L 20.632272 -1300.530906 
L 20.637848 -1239.396414 
L 20.643425 -1184.695242 
L 20.649001 -1135.372848 
L 20.654578 -1090.601837 
L 20.660154 -1049.722696 
L 20.665731 -1012.202389 
L 20.671307 -977.604788 
L 20.676883 -945.569142 
L 20.68246 -915.79411 
L 20.688036 -888.025745 
L 20.693613 -862.048328 
L 20.699189 -837.677266 
L 20.704766 -814.75355 
L 20.710342 -793.139371 
L 20.715919 -772.714615 
L 20.721495 -753.374048 
L 20.727071 -735.025025 
L 20.732648 -717.585618 
L 20.738224 -700.983076 
L 20.743801 -685.152539 
L 20.757015 -650.395426 
L 20.77023 -619.010006 
L 20.783444 -590.484182 
L 20.796659 -564.408525 
L 20.809873 -540.451236 
L 20.823088 -518.340199 
L 20.836302 -497.849844 
L 20.849517 -478.791393 
L 20.862731 -461.005482 
L 20.875946 -444.356523 
L 20.88916 -428.728327 
L 20.902375 -414.020678 
L 20.915589 -400.146613 
L 20.928804 -387.030254 
L 20.942018 -374.605052 
L 20.955232 -362.812365 
L 20.968447 -351.600286 
L 20.981661 -340.922685 
L 20.994876 -330.738404 
L 21.00809 -321.01059 
L 21.021305 -311.706133 
L 21.034519 -302.795189 
L 21.047734 -294.25078 
L 21.060948 -286.048449 
L 21.074163 -278.165962 
L 21.087377 -270.58306 
L 21.100592 -263.281233 
L 21.113806 -256.243536 
L 21.127021 -249.454419 
L 21.140235 -242.899586 
L 21.15345 -236.565863 
L 21.166664 -230.441094 
L 21.173144 -227.510566 
L 21.179624 -224.626317 
L 21.186105 -221.787143 
L 21.192585 -218.991881 
L 21.199065 -216.239412 
L 21.205545 -213.528653 
L 21.212025 -210.858563 
L 21.218505 -208.228134 
L 21.224985 -205.636394 
L 21.231465 -203.082404 
L 21.237945 -200.565257 
L 21.244425 -198.084074 
L 21.250905 -195.638008 
L 21.257385 -193.226239 
L 21.263865 -190.847971 
L 21.270345 -188.502436 
L 21.276825 -186.188891 
L 21.283306 -183.906615 
L 21.289786 -181.65491 
L 21.296266 -179.433099 
L 21.302746 -177.240527 
L 21.309226 -175.076557 
L 21.315706 -172.940574 
L 21.322186 -170.831979 
L 21.328666 -168.750192 
L 21.335146 -166.69465 
L 21.341626 -164.664806 
L 21.348106 -162.660128 
L 21.354586 -160.680102 
L 21.361066 -158.724225 
L 21.367546 -156.792012 
L 21.374027 -154.882988 
L 21.380646 -152.956368 
L 21.387265 -151.052989 
L 21.393885 -149.172387 
L 21.400504 -147.314112 
L 21.407124 -145.477726 
L 21.413743 -143.662801 
L 21.420363 -141.868924 
L 21.426982 -140.095691 
L 21.433602 -138.342708 
L 21.440221 -136.609593 
L 21.44684 -134.895973 
L 21.45346 -133.201487 
L 21.460079 -131.52578 
L 21.466699 -129.868508 
L 21.473318 -128.229336 
L 21.479938 -126.607936 
L 21.486557 -125.003989 
L 21.493177 -123.417186 
L 21.499796 -121.847221 
L 21.506416 -120.293801 
L 21.513035 -118.756636 
L 21.519654 -117.235444 
L 21.526274 -115.729952 
L 21.532893 -114.23989 
L 21.539513 -112.764997 
L 21.546132 -111.305018 
L 21.552752 -109.859702 
L 21.559371 -108.428806 
L 21.565991 -107.012092 
L 21.57261 -105.609326 
L 21.579229 -104.220282 
L 21.585849 -102.844738 
L 21.601961 -99.551572 
L 21.618074 -96.334098 
L 21.634187 -93.189462 
L 21.650299 -90.114954 
L 21.666412 -87.108008 
L 21.682525 -84.166184 
L 21.698637 -81.287164 
L 21.71475 -78.468747 
L 21.730862 -75.708835 
L 21.746975 -73.005431 
L 21.763088 -70.356633 
L 21.7792 -67.760628 
L 21.795313 -65.215685 
L 21.811425 -62.72015 
L 21.827538 -60.272447 
L 21.843651 -57.871066 
L 21.859763 -55.514565 
L 21.875876 -53.201562 
L 21.891988 -50.930736 
L 21.908101 -48.70082 
L 21.924214 -46.510601 
L 21.940326 -44.358915 
L 21.956439 -42.244644 
L 21.972551 -40.166717 
L 21.988664 -38.124105 
L 22.004777 -36.115818 
L 22.020889 -34.140905 
L 22.037002 -32.198453 
L 22.053114 -30.287582 
L 22.069227 -28.407444 
L 22.08534 -26.557226 
L 22.101452 -24.736142 
L 22.113645 -23.376951 
L 22.125838 -22.033692 
L 22.138032 -20.706057 
L 22.150225 -19.393745 
L 22.162418 -18.096464 
L 22.174611 -16.813928 
L 22.186804 -15.545861 
L 22.198997 -14.291993 
L 22.21334 -12.834833 
L 22.227684 -11.396542 
L 22.242027 -9.976715 
L 22.25637 -8.57496 
L 22.270713 -7.190898 
L 22.285057 -5.824159 
L 22.2994 -4.474384 
L 22.313743 -3.141227 
L 22.328086 -1.824348 
L 22.34243 -0.523419 
L 22.356773 0.761879 
L 22.371116 2.031857 
L 22.385459 3.286817 
L 22.399803 4.527052 
L 22.414146 5.752849 
L 22.428489 6.964485 
L 22.438986 7.842364 
L 22.449483 8.712907 
L 22.459979 9.576217 
L 22.470476 10.432393 
L 22.480972 11.281532 
L 22.491469 12.123731 
L 22.501966 12.959084 
L 22.512462 13.787682 
L 22.522959 14.609617 
L 22.533456 15.424977 
L 22.543952 16.23385 
L 22.554449 17.03632 
L 22.564946 17.832472 
L 22.575442 18.622389 
L 22.585939 19.406151 
L 22.596436 20.183839 
L 22.606932 20.955529 
L 22.617429 21.721299 
L 22.627926 22.481224 
L 22.638422 23.235378 
L 22.659415 24.726662 
L 22.680409 26.195718 
L 22.701402 27.643092 
L 22.722395 29.069313 
L 22.743389 30.474891 
L 22.764382 31.860318 
L 22.786271 33.283896 
L 22.808159 34.686608 
L 22.830048 36.068961 
L 22.851937 37.431441 
L 22.873825 38.774521 
L 22.895714 40.098657 
L 22.917603 41.404289 
L 22.939492 42.691845 
L 22.96138 43.961738 
L 22.983269 45.214368 
L 23.005158 46.450123 
L 23.027046 47.669378 
L 23.048935 48.872497 
L 23.070824 50.059834 
L 23.092712 51.231729 
L 23.114601 52.388516 
L 23.138754 53.647789 
L 23.162906 54.889477 
L 23.187058 56.113986 
L 23.211211 57.321708 
L 23.235363 58.513022 
L 23.259516 59.688298 
L 23.283668 60.847892 
L 23.307821 61.992149 
L 23.327452 62.911128 
L 23.347083 63.820372 
L 23.366713 64.720051 
L 23.386344 65.610332 
L 23.405975 66.491378 
L 23.425606 67.363346 
L 23.445237 68.226393 
L 23.464868 69.080668 
L 23.484499 69.92632 
L 23.50413 70.763493 
L 23.523761 71.592327 
L 23.543392 72.41296 
L 23.563023 73.225526 
L 23.582654 74.030156 
L 23.602285 74.82698 
L 23.621916 75.616122 
L 23.641031 76.377262 
L 23.660146 77.131345 
L 23.679261 77.878481 
L 23.698376 78.618775 
L 23.717491 79.352331 
L 23.736606 80.07925 
L 23.755721 80.799633 
L 23.774837 81.513576 
L 23.793952 82.221174 
L 23.813067 82.922522 
L 23.832182 83.617711 
L 23.851297 84.30683 
L 23.870412 84.989967 
L 23.889527 85.667208 
L 23.908642 86.338638 
L 23.927757 87.004338 
L 23.966231 88.327196 
L 24.004706 89.627813 
L 24.04318 90.906804 
L 24.081654 92.164764 
L 24.120128 93.402261 
L 24.158603 94.619846 
L 24.197077 95.818045 
L 24.235551 96.997368 
L 24.260719 97.758844 
L 24.285887 98.512585 
L 24.311054 99.258723 
L 24.336222 99.997383 
L 24.36139 100.728692 
L 24.386558 101.452768 
L 24.411726 102.169732 
L 24.436894 102.879698 
L 24.462061 103.582779 
L 24.487229 104.279087 
L 24.512397 104.96873 
L 24.537565 105.651812 
L 24.562733 106.328437 
L 24.587901 106.998707 
L 24.613068 107.66272 
L 24.638236 108.320574 
L 24.679131 109.376606 
L 24.720025 110.417018 
L 24.760919 111.442192 
L 24.801814 112.452496 
L 24.837715 113.327454 
L 24.873615 114.19146 
L 24.909516 115.04474 
L 24.945417 115.887515 
L 24.981317 116.719998 
L 25.017218 117.542397 
L 25.053119 118.354914 
L 25.08902 119.157746 
L 25.117858 119.795766 
L 25.146697 120.427756 
L 25.175535 121.053811 
L 25.204374 121.674022 
L 25.262051 122.897274 
L 25.319729 124.098211 
L 25.370005 125.127369 
L 25.420281 126.140509 
L 25.470558 127.138041 
L 25.520834 128.120362 
L 25.57111 129.087855 
L 25.621387 130.04089 
L 25.671663 130.979822 
L 25.72194 131.904996 
L 25.785383 133.053352 
L 25.848827 134.180972 
L 25.89794 135.040038 
L 25.947053 135.887325 
L 25.996166 136.723097 
L 26.045278 137.547615 
L 26.094391 138.361127 
L 26.143504 139.163878 
L 26.192617 139.956102 
L 26.24173 140.738026 
L 26.29083 141.509673 
L 26.33993 142.271461 
L 26.38903 143.0236 
L 26.438131 143.766291 
L 26.487231 144.499731 
L 26.536331 145.224109 
L 26.585431 145.939612 
L 26.634531 146.646418 
L 26.698917 147.560377 
L 26.763302 148.460064 
L 26.816778 149.196713 
L 26.870253 149.923973 
L 26.923729 150.642044 
L 26.977204 151.351117 
L 27.03068 152.051378 
L 27.084155 152.743008 
L 27.137631 153.426184 
L 27.191106 154.101076 
L 27.256527 154.915705 
L 27.321949 155.718479 
L 27.38737 156.509683 
L 27.452791 157.289591 
L 27.539497 158.306288 
L 27.626202 159.304207 
L 27.712908 160.28392 
L 27.799614 161.245973 
L 27.867162 161.983562 
L 27.934711 162.710991 
L 28.037765 163.80173 
L 28.140819 164.870144 
L 28.243874 165.916985 
L 28.346928 166.942968 
L 28.454983 167.997079 
L 28.563038 169.029763 
L 28.642222 169.773336 
L 28.721405 170.506059 
L 28.800589 171.228191 
L 28.879773 171.939986 
L 28.942777 172.499114 
L 29.00578 173.051971 
L 29.090634 173.786859 
L 29.175488 174.510861 
L 29.260342 175.224241 
L 29.345196 175.927258 
L 29.419097 176.531285 
L 29.492999 177.127799 
L 29.5669 177.716954 
L 29.640802 178.2989 
L 29.747984 179.130408 
L 29.855166 179.947488 
L 29.962348 180.750553 
L 30.069531 181.539998 
L 30.130988 181.986666 
L 30.267221 182.96162 
L 30.403453 183.916257 
L 30.539686 184.851275 
L 30.675919 185.767336 
L 30.703801 185.952544 
L 30.828955 186.774567 
L 30.95411 187.581694 
L 31.079264 188.37437 
L 31.204419 189.153022 
L 31.317017 189.841906 
L 31.429615 190.520056 
L 31.585817 191.443562 
L 31.742019 192.347644 
L 31.848987 192.955905 
L 31.955954 193.55558 
L 32.04674 194.057948 
L 32.137525 194.554395 
L 32.248243 195.15199 
L 32.35896 195.741152 
L 32.469678 196.322078 
L 32.580396 196.894957 
L 32.7168 197.589956 
L 32.853205 198.273352 
L 33.019515 199.091343 
L 33.185825 199.893114 
L 33.332357 200.586515 
L 33.508194 201.403005 
L 33.684031 202.203026 
L 33.842783 202.911621 
L 33.992666 203.569064 
L 34.142548 204.215593 
L 34.315474 204.948349 
L 34.4884 205.667414 
L 34.67889 206.444171 
L 34.86938 207.205362 
L 35.079682 208.028257 
L 35.276141 208.780996 
L 35.472601 209.518807 
L 35.65069 210.175136 
L 35.828778 210.819947 
L 36.02913 211.532013 
L 36.186063 212.080169 
L 36.342995 212.620128 
L 36.503943 213.165603 
L 36.664892 213.702879 
L 36.804564 214.162644 
L 37.064767 215.003544 
L 37.2761 215.672014 
L 37.487434 216.327923 
L 37.67729 216.906783 
L 37.857661 217.447871 
L 38.038032 217.980561 
L 38.20546 218.467698 
L 38.372888 218.947949 
L 38.487678 219.27332 
L 38.773158 220.069124 
L 39.020584 220.743858 
L 39.34513 221.608609 
L 39.674855 222.464501 
L 39.854843 222.922427 
L 40.056339 223.427528 
L 40.257836 223.924859 
L 40.583869 224.713611 
L 40.852434 225.349002 
L 41.04175 225.789371 
L 41.231067 226.223676 
L 41.280746 226.336657 
L 41.481081 226.788165 
L 41.681415 227.233234 
L 41.851036 227.605145 
L 42.067039 228.072372 
L 42.283043 228.532612 
L 42.637224 229.272597 
L 42.739459 229.482892 
L 43.070548 230.154069 
L 43.431326 230.868772 
L 43.552324 231.104692 
L 43.794747 231.571811 
L 44.03717 232.031676 
L 44.206164 232.348056 
L 44.409025 232.723391 
L 44.741197 233.327746 
L 44.973859 233.743687 
L 45.394508 234.480806 
L 45.771165 235.12512 
L 45.834966 235.23283 
L 46.151656 235.761493 
L 46.551274 236.414754 
L 46.796282 236.807868 
L 46.984067 237.10546 
L 47.392058 237.74122 
L 47.606888 238.070187 
L 48.003492 238.66732 
L 48.278222 239.073424 
L 48.564991 239.49093 
L 48.743277 239.747278 
L 49.063208 240.201245 
L 49.409712 240.684372 
L 49.700886 241.083672 
L 50.054352 241.560427 
L 50.232877 241.797978 
L 50.672627 242.374081 
L 50.845398 242.596983 
L 51.018864 242.818871 
L 51.370139 243.262447 
L 51.564684 243.504861 
L 51.907581 243.926622 
L 52.320271 244.425141 
L 52.617054 244.777681 
L 52.93649 245.1517 
L 53.074698 245.311813 
L 53.37069 245.651307 
L 53.64576 245.962711 
L 54.048748 246.411983 
L 54.35654 246.749699 
L 54.461739 246.86407 
L 54.732803 247.156329 
L 55.227111 247.680434 
L 55.333549 247.791823 
L 55.74699 248.219692 
L 55.9918 248.469507 
L 56.386978 248.867347 
L 56.607727 249.08673 
L 56.86498 249.339862 
L 57.112315 249.580711 
L 57.483709 249.93781 
L 57.637187 250.08381 
L 57.906131 250.337479 
L 58.319122 250.721723 
L 58.430947 250.824681 
L 58.764624 251.129209 
L 59.17857 251.501494 
L 59.341256 251.646172 
L 59.722283 251.981489 
L 60.084933 252.296118 
L 60.201971 252.396734 
L 60.461498 252.618269 
L 60.780156 252.887339 
L 61.154517 253.199387 
L 61.285713 253.307726 
L 61.720932 253.663402 
L 61.974032 253.867662 
L 62.298533 254.126821 
L 62.465316 254.258847 
L 62.834366 254.548207 
L 62.97344 254.656269 
L 63.349209 254.945607 
L 63.624141 255.154898 
L 63.883951 255.350844 
L 64.209942 255.594223 
L 64.608462 255.888073 
L 64.870195 256.078902 
L 65.115887 256.256503 
L 65.477014 256.514898 
L 65.686461 256.663339 
L 66.025904 256.90173 
L 66.131066 256.975044 
L 66.648198 257.331907 
L 66.835882 257.459942 
L 67.231984 257.727617 
L 67.29578 257.77041 
L 67.599819 257.973157 
L 67.963214 258.21292 
L 68.295384 258.429682 
L 68.541134 258.588598 
L 68.870406 258.799622 
L 69.049083 258.913231 
L 69.488784 259.190154 
L 69.53876 259.221393 
L 70.079935 259.556631 
L 70.280919 259.679737 
L 70.407552 259.756919 
L 70.74228 259.959526 
L 70.992239 260.109505 
L 71.487825 260.403593 
L 71.555701 260.443538 
L 71.958139 260.678742 
L 72.25516 260.850571 
L 72.540718 261.014377 
L 72.876731 261.205407 
L 73.052719 261.304726 
L 73.277863 261.431061 
L 73.666399 261.647187 
L 74.067849 261.86802 
L 74.359539 262.026922 
L 74.457372 262.079929 
L 74.897824 262.316794 
L 75.102327 262.425794 
L 75.351016 262.557523 
L 75.539589 262.656812 
L 75.933384 262.862518 
L 76.264265 263.033671 
L 76.653227 263.232927 
L 76.934237 263.375597 
L 77.139249 263.479011 
L 77.369719 263.594598 
L 77.369719 320.401817 
z
" style="fill:#006400;opacity:0.5;"/>
   </g>
   <g id="matplotlib.axis_1">
    <g id="xtick_1">
     <g id="line2d_1">
      <defs>
       <path d="M 0 0 
L 0 3.5 
" id="mac888fb6d3" style="stroke:#000000;stroke-width:0.8;"/>
      </defs>
      <g>
       <use style="stroke:#000000;stroke-width:0.8;" x="20.5625" xlink:href="#mac888fb6d3" y="320.401817"/>
      </g>
     </g>
    </g>
    <g id="xtick_2">
     <g id="line2d_2">
      <g>
       <use style="stroke:#000000;stroke-width:0.8;" x="77.369719" xlink:href="#mac888fb6d3" y="320.401817"/>
      </g>
     </g>
     <g id="text_1">
      <!-- 1 -->
      <g transform="translate(74.188469 335.000254)scale(0.1 -0.1)">
       <defs>
        <path d="M 12.40625 8.296875 
L 28.515625 8.296875 
L 28.515625 63.921875 
L 10.984375 60.40625 
L 10.984375 69.390625 
L 28.421875 72.90625 
L 38.28125 72.90625 
L 38.28125 8.296875 
L 54.390625 8.296875 
L 54.390625 0 
L 12.40625 0 
z
" id="DejaVuSans-49"/>
       </defs>
       <use xlink:href="#DejaVuSans-49"/>
      </g>
     </g>
    </g>
    <g id="xtick_3">
     <g id="line2d_3">
      <g>
       <use style="stroke:#000000;stroke-width:0.8;" x="134.176938" xlink:href="#mac888fb6d3" y="320.401817"/>
      </g>
     </g>
     <g id="text_2">
      <!-- 2 -->
      <g transform="translate(130.995688 335.000254)scale(0.1 -0.1)">
       <defs>
        <path d="M 19.1875 8.296875 
L 53.609375 8.296875 
L 53.609375 0 
L 7.328125 0 
L 7.328125 8.296875 
Q 12.9375 14.109375 22.625 23.890625 
Q 32.328125 33.6875 34.8125 36.53125 
Q 39.546875 41.84375 41.421875 45.53125 
Q 43.3125 49.21875 43.3125 52.78125 
Q 43.3125 58.59375 39.234375 62.25 
Q 35.15625 65.921875 28.609375 65.921875 
Q 23.96875 65.921875 18.8125 64.3125 
Q 13.671875 62.703125 7.8125 59.421875 
L 7.8125 69.390625 
Q 13.765625 71.78125 18.9375 73 
Q 24.125 74.21875 28.421875 74.21875 
Q 39.75 74.21875 46.484375 68.546875 
Q 53.21875 62.890625 53.21875 53.421875 
Q 53.21875 48.921875 51.53125 44.890625 
Q 49.859375 40.875 45.40625 35.40625 
Q 44.1875 33.984375 37.640625 27.21875 
Q 31.109375 20.453125 19.1875 8.296875 
z
" id="DejaVuSans-50"/>
       </defs>
       <use xlink:href="#DejaVuSans-50"/>
      </g>
     </g>
    </g>
    <g id="xtick_4">
     <g id="line2d_4">
      <g>
       <use style="stroke:#000000;stroke-width:0.8;" x="190.984157" xlink:href="#mac888fb6d3" y="320.401817"/>
      </g>
     </g>
     <g id="text_3">
      <!-- 3 -->
      <g transform="translate(187.802907 335.000254)scale(0.1 -0.1)">
       <defs>
        <path d="M 40.578125 39.3125 
Q 47.65625 37.796875 51.625 33 
Q 55.609375 28.21875 55.609375 21.1875 
Q 55.609375 10.40625 48.1875 4.484375 
Q 40.765625 -1.421875 27.09375 -1.421875 
Q 22.515625 -1.421875 17.65625 -0.515625 
Q 12.796875 0.390625 7.625 2.203125 
L 7.625 11.71875 
Q 11.71875 9.328125 16.59375 8.109375 
Q 21.484375 6.890625 26.8125 6.890625 
Q 36.078125 6.890625 40.9375 10.546875 
Q 45.796875 14.203125 45.796875 21.1875 
Q 45.796875 27.640625 41.28125 31.265625 
Q 36.765625 34.90625 28.71875 34.90625 
L 20.21875 34.90625 
L 20.21875 43.015625 
L 29.109375 43.015625 
Q 36.375 43.015625 40.234375 45.921875 
Q 44.09375 48.828125 44.09375 54.296875 
Q 44.09375 59.90625 40.109375 62.90625 
Q 36.140625 65.921875 28.71875 65.921875 
Q 24.65625 65.921875 20.015625 65.03125 
Q 15.375 64.15625 9.8125 62.3125 
L 9.8125 71.09375 
Q 15.4375 72.65625 20.34375 73.4375 
Q 25.25 74.21875 29.59375 74.21875 
Q 40.828125 74.21875 47.359375 69.109375 
Q 53.90625 64.015625 53.90625 55.328125 
Q 53.90625 49.265625 50.4375 45.09375 
Q 46.96875 40.921875 40.578125 39.3125 
z
" id="DejaVuSans-51"/>
       </defs>
       <use xlink:href="#DejaVuSans-51"/>
      </g>
     </g>
    </g>
    <g id="xtick_5">
     <g id="line2d_5">
      <g>
       <use style="stroke:#000000;stroke-width:0.8;" x="247.791376" xlink:href="#mac888fb6d3" y="320.401817"/>
      </g>
     </g>
     <g id="text_4">
      <!-- 4 -->
      <g transform="translate(244.610126 335.000254)scale(0.1 -0.1)">
       <defs>
        <path d="M 37.796875 64.3125 
L 12.890625 25.390625 
L 37.796875 25.390625 
z
M 35.203125 72.90625 
L 47.609375 72.90625 
L 47.609375 25.390625 
L 58.015625 25.390625 
L 58.015625 17.1875 
L 47.609375 17.1875 
L 47.609375 0 
L 37.796875 0 
L 37.796875 17.1875 
L 4.890625 17.1875 
L 4.890625 26.703125 
z
" id="DejaVuSans-52"/>
       </defs>
       <use xlink:href="#DejaVuSans-52"/>
      </g>
     </g>
    </g>
    <g id="xtick_6">
     <g id="line2d_6">
      <g>
       <use style="stroke:#000000;stroke-width:0.8;" x="304.598595" xlink:href="#mac888fb6d3" y="320.401817"/>
      </g>
     </g>
     <g id="text_5">
      <!-- 5 -->
      <g transform="translate(301.417345 335.000254)scale(0.1 -0.1)">
       <defs>
        <path d="M 10.796875 72.90625 
L 49.515625 72.90625 
L 49.515625 64.59375 
L 19.828125 64.59375 
L 19.828125 46.734375 
Q 21.96875 47.46875 24.109375 47.828125 
Q 26.265625 48.1875 28.421875 48.1875 
Q 40.625 48.1875 47.75 41.5 
Q 54.890625 34.8125 54.890625 23.390625 
Q 54.890625 11.625 47.5625 5.09375 
Q 40.234375 -1.421875 26.90625 -1.421875 
Q 22.3125 -1.421875 17.546875 -0.640625 
Q 12.796875 0.140625 7.71875 1.703125 
L 7.71875 11.625 
Q 12.109375 9.234375 16.796875 8.0625 
Q 21.484375 6.890625 26.703125 6.890625 
Q 35.15625 6.890625 40.078125 11.328125 
Q 45.015625 15.765625 45.015625 23.390625 
Q 45.015625 31 40.078125 35.4375 
Q 35.15625 39.890625 26.703125 39.890625 
Q 22.75 39.890625 18.8125 39.015625 
Q 14.890625 38.140625 10.796875 36.28125 
z
" id="DejaVuSans-53"/>
       </defs>
       <use xlink:href="#DejaVuSans-53"/>
      </g>
     </g>
    </g>
    <g id="xtick_7">
     <g id="line2d_7">
      <defs>
       <path d="M 0 0 
L 0 2 
" id="mf1c97c6baf" style="stroke:#000000;stroke-width:0.6;"/>
      </defs>
      <g>
       <use style="stroke:#000000;stroke-width:0.6;" x="31.923944" xlink:href="#mf1c97c6baf" y="320.401817"/>
      </g>
     </g>
    </g>
    <g id="xtick_8">
     <g id="line2d_8">
      <g>
       <use style="stroke:#000000;stroke-width:0.6;" x="43.285388" xlink:href="#mf1c97c6baf" y="320.401817"/>
      </g>
     </g>
    </g>
    <g id="xtick_9">
     <g id="line2d_9">
      <g>
       <use style="stroke:#000000;stroke-width:0.6;" x="54.646831" xlink:href="#mf1c97c6baf" y="320.401817"/>
      </g>
     </g>
    </g>
    <g id="xtick_10">
     <g id="line2d_10">
      <g>
       <use style="stroke:#000000;stroke-width:0.6;" x="66.008275" xlink:href="#mf1c97c6baf" y="320.401817"/>
      </g>
     </g>
    </g>
    <g id="xtick_11">
     <g id="line2d_11">
      <g>
       <use style="stroke:#000000;stroke-width:0.6;" x="88.731163" xlink:href="#mf1c97c6baf" y="320.401817"/>
      </g>
     </g>
    </g>
    <g id="xtick_12">
     <g id="line2d_12">
      <g>
       <use style="stroke:#000000;stroke-width:0.6;" x="100.092607" xlink:href="#mf1c97c6baf" y="320.401817"/>
      </g>
     </g>
    </g>
    <g id="xtick_13">
     <g id="line2d_13">
      <g>
       <use style="stroke:#000000;stroke-width:0.6;" x="111.45405" xlink:href="#mf1c97c6baf" y="320.401817"/>
      </g>
     </g>
    </g>
    <g id="xtick_14">
     <g id="line2d_14">
      <g>
       <use style="stroke:#000000;stroke-width:0.6;" x="122.815494" xlink:href="#mf1c97c6baf" y="320.401817"/>
      </g>
     </g>
    </g>
    <g id="xtick_15">
     <g id="line2d_15">
      <g>
       <use style="stroke:#000000;stroke-width:0.6;" x="145.538382" xlink:href="#mf1c97c6baf" y="320.401817"/>
      </g>
     </g>
    </g>
    <g id="xtick_16">
     <g id="line2d_16">
      <g>
       <use style="stroke:#000000;stroke-width:0.6;" x="156.899825" xlink:href="#mf1c97c6baf" y="320.401817"/>
      </g>
     </g>
    </g>
    <g id="xtick_17">
     <g id="line2d_17">
      <g>
       <use style="stroke:#000000;stroke-width:0.6;" x="168.261269" xlink:href="#mf1c97c6baf" y="320.401817"/>
      </g>
     </g>
    </g>
    <g id="xtick_18">
     <g id="line2d_18">
      <g>
       <use style="stroke:#000000;stroke-width:0.6;" x="179.622713" xlink:href="#mf1c97c6baf" y="320.401817"/>
      </g>
     </g>
    </g>
    <g id="xtick_19">
     <g id="line2d_19">
      <g>
       <use style="stroke:#000000;stroke-width:0.6;" x="202.345601" xlink:href="#mf1c97c6baf" y="320.401817"/>
      </g>
     </g>
    </g>
    <g id="xtick_20">
     <g id="line2d_20">
      <g>
       <use style="stroke:#000000;stroke-width:0.6;" x="213.707044" xlink:href="#mf1c97c6baf" y="320.401817"/>
      </g>
     </g>
    </g>
    <g id="xtick_21">
     <g id="line2d_21">
      <g>
       <use style="stroke:#000000;stroke-width:0.6;" x="225.068488" xlink:href="#mf1c97c6baf" y="320.401817"/>
      </g>
     </g>
    </g>
    <g id="xtick_22">
     <g id="line2d_22">
      <g>
       <use style="stroke:#000000;stroke-width:0.6;" x="236.429932" xlink:href="#mf1c97c6baf" y="320.401817"/>
      </g>
     </g>
    </g>
    <g id="xtick_23">
     <g id="line2d_23">
      <g>
       <use style="stroke:#000000;stroke-width:0.6;" x="259.15282" xlink:href="#mf1c97c6baf" y="320.401817"/>
      </g>
     </g>
    </g>
    <g id="xtick_24">
     <g id="line2d_24">
      <g>
       <use style="stroke:#000000;stroke-width:0.6;" x="270.514263" xlink:href="#mf1c97c6baf" y="320.401817"/>
      </g>
     </g>
    </g>
    <g id="xtick_25">
     <g id="line2d_25">
      <g>
       <use style="stroke:#000000;stroke-width:0.6;" x="281.875707" xlink:href="#mf1c97c6baf" y="320.401817"/>
      </g>
     </g>
    </g>
    <g id="xtick_26">
     <g id="line2d_26">
      <g>
       <use style="stroke:#000000;stroke-width:0.6;" x="293.237151" xlink:href="#mf1c97c6baf" y="320.401817"/>
      </g>
     </g>
    </g>
    <g id="text_6">
     <!-- $x$ -->
     <g transform="translate(318.279259 320.401817)scale(0.16 -0.16)">
      <defs>
       <path d="M 7.8125 2.875 
Q 9.578125 1.515625 12.796875 1.515625 
Q 15.921875 1.515625 18.3125 4.515625 
Q 20.703125 7.515625 21.578125 11.078125 
L 26.125 28.8125 
Q 27.203125 33.640625 27.203125 35.40625 
Q 27.203125 37.890625 25.8125 39.75 
Q 24.421875 41.609375 21.921875 41.609375 
Q 18.75 41.609375 15.96875 39.625 
Q 13.1875 37.640625 11.28125 34.59375 
Q 9.375 31.546875 8.59375 28.421875 
Q 8.40625 27.78125 7.8125 27.78125 
L 6.59375 27.78125 
Q 5.8125 27.78125 5.8125 28.71875 
L 5.8125 29 
Q 6.78125 32.71875 9.125 36.25 
Q 11.46875 39.796875 14.859375 41.984375 
Q 18.265625 44.1875 22.125 44.1875 
Q 25.78125 44.1875 28.734375 42.234375 
Q 31.6875 40.28125 32.90625 36.921875 
Q 34.625 39.984375 37.28125 42.078125 
Q 39.9375 44.1875 43.109375 44.1875 
Q 45.265625 44.1875 47.5 43.421875 
Q 49.75 42.671875 51.171875 41.109375 
Q 52.59375 39.546875 52.59375 37.203125 
Q 52.59375 34.671875 50.953125 32.828125 
Q 49.3125 31 46.78125 31 
Q 45.171875 31 44.09375 32.03125 
Q 43.015625 33.0625 43.015625 34.625 
Q 43.015625 36.71875 44.453125 38.296875 
Q 45.90625 39.890625 47.90625 40.1875 
Q 46.09375 41.609375 42.921875 41.609375 
Q 39.703125 41.609375 37.328125 38.625 
Q 34.96875 35.640625 33.984375 31.984375 
L 29.59375 14.3125 
Q 28.515625 10.296875 28.515625 7.71875 
Q 28.515625 5.171875 29.953125 3.34375 
Q 31.390625 1.515625 33.796875 1.515625 
Q 38.484375 1.515625 42.15625 5.640625 
Q 45.84375 9.765625 47.015625 14.703125 
Q 47.21875 15.28125 47.796875 15.28125 
L 49.03125 15.28125 
Q 49.421875 15.28125 49.65625 15.015625 
Q 49.90625 14.75 49.90625 14.40625 
Q 49.90625 14.3125 49.8125 14.109375 
Q 48.390625 8.15625 43.84375 3.515625 
Q 39.3125 -1.125 33.59375 -1.125 
Q 29.9375 -1.125 26.984375 0.84375 
Q 24.03125 2.828125 22.796875 6.203125 
Q 21.234375 3.265625 18.46875 1.0625 
Q 15.71875 -1.125 12.59375 -1.125 
Q 10.453125 -1.125 8.171875 -0.359375 
Q 5.90625 0.390625 4.484375 1.953125 
Q 3.078125 3.515625 3.078125 5.90625 
Q 3.078125 8.25 4.703125 10.171875 
Q 6.34375 12.109375 8.796875 12.109375 
Q 10.453125 12.109375 11.578125 11.109375 
Q 12.703125 10.109375 12.703125 8.5 
Q 12.703125 6.390625 11.296875 4.828125 
Q 9.90625 3.265625 7.8125 2.875 
z
" id="Cmmi10-120"/>
      </defs>
      <use transform="translate(0 0.8125)" xlink:href="#Cmmi10-120"/>
     </g>
    </g>
   </g>
   <g id="matplotlib.axis_2">
    <g id="ytick_1">
     <g id="line2d_27">
      <defs>
       <path d="M 0 0 
L -3.5 0 
" id="m77e97dc948" style="stroke:#000000;stroke-width:0.8;"/>
      </defs>
      <g>
       <use style="stroke:#000000;stroke-width:0.8;" x="20.5625" xlink:href="#m77e97dc948" y="320.401817"/>
      </g>
     </g>
    </g>
    <g id="ytick_2">
     <g id="line2d_28">
      <g>
       <use style="stroke:#000000;stroke-width:0.8;" x="20.5625" xlink:href="#m77e97dc948" y="263.594598"/>
      </g>
     </g>
     <g id="text_7">
      <!-- 1 -->
      <g transform="translate(7.2 267.393816)scale(0.1 -0.1)">
       <use xlink:href="#DejaVuSans-49"/>
      </g>
     </g>
    </g>
    <g id="ytick_3">
     <g id="line2d_29">
      <g>
       <use style="stroke:#000000;stroke-width:0.8;" x="20.5625" xlink:href="#m77e97dc948" y="206.787379"/>
      </g>
     </g>
     <g id="text_8">
      <!-- 2 -->
      <g transform="translate(7.2 210.586597)scale(0.1 -0.1)">
       <use xlink:href="#DejaVuSans-50"/>
      </g>
     </g>
    </g>
    <g id="ytick_4">
     <g id="line2d_30">
      <g>
       <use style="stroke:#000000;stroke-width:0.8;" x="20.5625" xlink:href="#m77e97dc948" y="149.98016"/>
      </g>
     </g>
     <g id="text_9">
      <!-- 3 -->
      <g transform="translate(7.2 153.779379)scale(0.1 -0.1)">
       <use xlink:href="#DejaVuSans-51"/>
      </g>
     </g>
    </g>
    <g id="ytick_5">
     <g id="line2d_31">
      <g>
       <use style="stroke:#000000;stroke-width:0.8;" x="20.5625" xlink:href="#m77e97dc948" y="93.172941"/>
      </g>
     </g>
     <g id="text_10">
      <!-- 4 -->
      <g transform="translate(7.2 96.97216)scale(0.1 -0.1)">
       <use xlink:href="#DejaVuSans-52"/>
      </g>
     </g>
    </g>
    <g id="ytick_6">
     <g id="line2d_32">
      <g>
       <use style="stroke:#000000;stroke-width:0.8;" x="20.5625" xlink:href="#m77e97dc948" y="36.365722"/>
      </g>
     </g>
     <g id="text_11">
      <!-- 5 -->
      <g transform="translate(7.2 40.164941)scale(0.1 -0.1)">
       <use xlink:href="#DejaVuSans-53"/>
      </g>
     </g>
    </g>
    <g id="ytick_7">
     <g id="line2d_33">
      <defs>
       <path d="M 0 0 
L -2 0 
" id="m92a452f579" style="stroke:#000000;stroke-width:0.6;"/>
      </defs>
      <g>
       <use style="stroke:#000000;stroke-width:0.6;" x="20.5625" xlink:href="#m92a452f579" y="309.040373"/>
      </g>
     </g>
    </g>
    <g id="ytick_8">
     <g id="line2d_34">
      <g>
       <use style="stroke:#000000;stroke-width:0.6;" x="20.5625" xlink:href="#m92a452f579" y="297.678929"/>
      </g>
     </g>
    </g>
    <g id="ytick_9">
     <g id="line2d_35">
      <g>
       <use style="stroke:#000000;stroke-width:0.6;" x="20.5625" xlink:href="#m92a452f579" y="286.317485"/>
      </g>
     </g>
    </g>
    <g id="ytick_10">
     <g id="line2d_36">
      <g>
       <use style="stroke:#000000;stroke-width:0.6;" x="20.5625" xlink:href="#m92a452f579" y="274.956041"/>
      </g>
     </g>
    </g>
    <g id="ytick_11">
     <g id="line2d_37">
      <g>
       <use style="stroke:#000000;stroke-width:0.6;" x="20.5625" xlink:href="#m92a452f579" y="252.233154"/>
      </g>
     </g>
    </g>
    <g id="ytick_12">
     <g id="line2d_38">
      <g>
       <use style="stroke:#000000;stroke-width:0.6;" x="20.5625" xlink:href="#m92a452f579" y="240.87171"/>
      </g>
     </g>
    </g>
    <g id="ytick_13">
     <g id="line2d_39">
      <g>
       <use style="stroke:#000000;stroke-width:0.6;" x="20.5625" xlink:href="#m92a452f579" y="229.510266"/>
      </g>
     </g>
    </g>
    <g id="ytick_14">
     <g id="line2d_40">
      <g>
       <use style="stroke:#000000;stroke-width:0.6;" x="20.5625" xlink:href="#m92a452f579" y="218.148822"/>
      </g>
     </g>
    </g>
    <g id="ytick_15">
     <g id="line2d_41">
      <g>
       <use style="stroke:#000000;stroke-width:0.6;" x="20.5625" xlink:href="#m92a452f579" y="195.425935"/>
      </g>
     </g>
    </g>
    <g id="ytick_16">
     <g id="line2d_42">
      <g>
       <use style="stroke:#000000;stroke-width:0.6;" x="20.5625" xlink:href="#m92a452f579" y="184.064491"/>
      </g>
     </g>
    </g>
    <g id="ytick_17">
     <g id="line2d_43">
      <g>
       <use style="stroke:#000000;stroke-width:0.6;" x="20.5625" xlink:href="#m92a452f579" y="172.703047"/>
      </g>
     </g>
    </g>
    <g id="ytick_18">
     <g id="line2d_44">
      <g>
       <use style="stroke:#000000;stroke-width:0.6;" x="20.5625" xlink:href="#m92a452f579" y="161.341604"/>
      </g>
     </g>
    </g>
    <g id="ytick_19">
     <g id="line2d_45">
      <g>
       <use style="stroke:#000000;stroke-width:0.6;" x="20.5625" xlink:href="#m92a452f579" y="138.618716"/>
      </g>
     </g>
    </g>
    <g id="ytick_20">
     <g id="line2d_46">
      <g>
       <use style="stroke:#000000;stroke-width:0.6;" x="20.5625" xlink:href="#m92a452f579" y="127.257272"/>
      </g>
     </g>
    </g>
    <g id="ytick_21">
     <g id="line2d_47">
      <g>
       <use style="stroke:#000000;stroke-width:0.6;" x="20.5625" xlink:href="#m92a452f579" y="115.895828"/>
      </g>
     </g>
    </g>
    <g id="ytick_22">
     <g id="line2d_48">
      <g>
       <use style="stroke:#000000;stroke-width:0.6;" x="20.5625" xlink:href="#m92a452f579" y="104.534385"/>
      </g>
     </g>
    </g>
    <g id="ytick_23">
     <g id="line2d_49">
      <g>
       <use style="stroke:#000000;stroke-width:0.6;" x="20.5625" xlink:href="#m92a452f579" y="81.811497"/>
      </g>
     </g>
    </g>
    <g id="ytick_24">
     <g id="line2d_50">
      <g>
       <use style="stroke:#000000;stroke-width:0.6;" x="20.5625" xlink:href="#m92a452f579" y="70.450053"/>
      </g>
     </g>
    </g>
    <g id="ytick_25">
     <g id="line2d_51">
      <g>
       <use style="stroke:#000000;stroke-width:0.6;" x="20.5625" xlink:href="#m92a452f579" y="59.088609"/>
      </g>
     </g>
    </g>
    <g id="ytick_26">
     <g id="line2d_52">
      <g>
       <use style="stroke:#000000;stroke-width:0.6;" x="20.5625" xlink:href="#m92a452f579" y="47.727166"/>
      </g>
     </g>
    </g>
    <g id="text_12">
     <!-- $y$ -->
     <g transform="translate(16.5625 19.325)scale(0.16 -0.16)">
      <defs>
       <path d="M 8.40625 -14.3125 
Q 10.5 -17.921875 15.71875 -17.921875 
Q 20.453125 -17.921875 23.921875 -14.59375 
Q 27.390625 -11.28125 29.515625 -6.5625 
Q 31.640625 -1.859375 32.8125 3.078125 
Q 28.375 -1.125 23.1875 -1.125 
Q 19.234375 -1.125 16.453125 0.234375 
Q 13.671875 1.609375 12.125 4.3125 
Q 10.59375 7.03125 10.59375 10.890625 
Q 10.59375 14.15625 11.46875 17.59375 
Q 12.359375 21.046875 13.9375 25.265625 
Q 15.53125 29.5 16.703125 32.625 
Q 18.015625 36.28125 18.015625 38.625 
Q 18.015625 41.609375 15.828125 41.609375 
Q 11.859375 41.609375 9.296875 37.53125 
Q 6.734375 33.453125 5.515625 28.421875 
Q 5.328125 27.78125 4.6875 27.78125 
L 3.515625 27.78125 
Q 2.6875 27.78125 2.6875 28.71875 
L 2.6875 29 
Q 4.296875 34.96875 7.609375 39.578125 
Q 10.9375 44.1875 16.015625 44.1875 
Q 19.578125 44.1875 22.046875 41.84375 
Q 24.515625 39.5 24.515625 35.890625 
Q 24.515625 34.03125 23.6875 31.984375 
Q 23.25 30.765625 21.6875 26.65625 
Q 20.125 22.5625 19.28125 19.875 
Q 18.453125 17.1875 17.921875 14.59375 
Q 17.390625 12.015625 17.390625 9.421875 
Q 17.390625 6.109375 18.796875 3.8125 
Q 20.21875 1.515625 23.296875 1.515625 
Q 29.5 1.515625 34.421875 9.078125 
L 42 39.890625 
Q 42.328125 41.21875 43.546875 42.15625 
Q 44.78125 43.109375 46.1875 43.109375 
Q 47.40625 43.109375 48.3125 42.328125 
Q 49.21875 41.546875 49.21875 40.28125 
Q 49.21875 39.703125 49.125 39.5 
L 39.203125 -0.296875 
Q 37.890625 -5.421875 34.375 -10.109375 
Q 30.859375 -14.796875 25.90625 -17.65625 
Q 20.953125 -20.515625 15.578125 -20.515625 
Q 12.984375 -20.515625 10.4375 -19.5 
Q 7.90625 -18.5 6.34375 -16.5 
Q 4.78125 -14.5 4.78125 -11.8125 
Q 4.78125 -9.078125 6.390625 -7.078125 
Q 8.015625 -5.078125 10.6875 -5.078125 
Q 12.3125 -5.078125 13.40625 -6.078125 
Q 14.5 -7.078125 14.5 -8.6875 
Q 14.5 -10.984375 12.78125 -12.6875 
Q 11.078125 -14.40625 8.796875 -14.40625 
Q 8.6875 -14.359375 8.59375 -14.328125 
Q 8.5 -14.3125 8.40625 -14.3125 
z
" id="Cmmi10-121"/>
      </defs>
      <use transform="translate(0 0.8125)" xlink:href="#Cmmi10-121"/>
     </g>
    </g>
   </g>
   <g id="line2d_53">
    <path clip-path="url(#p6da0f6af1b)" d="M 22.337287 -1 
L 22.907691 40.815326 
L 23.554443 72.87135 
L 24.303371 99.03173 
L 25.085756 119.085151 
L 25.977813 136.412118 
L 26.957038 151.084756 
L 28.024885 163.666648 
L 29.216625 174.85802 
L 30.387835 183.807819 
L 31.672703 191.948802 
L 33.030597 199.145269 
L 34.534113 205.855266 
L 35.975071 211.34125 
L 37.677919 216.908685 
L 39.376288 221.690449 
L 41.21793 226.193732 
L 43.39928 230.805973 
L 45.346072 234.396888 
L 47.154619 237.373005 
L 49.631585 240.98918 
L 51.647507 243.607371 
L 53.808901 246.145574 
L 56.927748 249.401217 
L 60.232413 252.422833 
L 63.952255 255.402065 
L 66.85739 257.474565 
L 71.023442 260.128149 
L 75.537386 262.655655 
L 80.911551 265.286784 
L 86.018763 267.480616 
L 90.329402 269.141584 
L 96.130223 271.148314 
L 103.0628 273.263124 
L 110.625281 275.285606 
L 117.166152 276.839745 
L 125.674423 278.640008 
L 136.187961 280.583898 
L 146.943516 282.315904 
L 158.482994 283.94398 
L 172.305379 285.644108 
L 185.519337 287.065307 
L 201.692895 288.58845 
L 219.98423 290.082525 
L 240.857182 291.554642 
L 262.65088 292.883724 
L 289.623125 294.29943 
L 304.598595 294.996856 
L 304.598595 294.996856 
" style="fill:none;stroke:#0000ff;stroke-linecap:square;"/>
   </g>
   <g id="line2d_54">
    <path clip-path="url(#p6da0f6af1b)" d="M 22.337175 -1 
L 22.895714 40.098657 
L 23.543392 72.41296 
L 24.260719 97.758844 
L 25.053119 118.354914 
L 25.947053 135.887325 
L 26.923729 150.642044 
L 27.934711 162.710991 
L 29.090634 173.786859 
L 30.267221 182.96162 
L 31.585817 191.443562 
L 33.019515 199.091343 
L 34.4884 205.667414 
L 36.02913 211.532013 
L 37.67729 216.906783 
L 39.34513 221.608609 
L 41.280746 226.336657 
L 43.070548 230.154069 
L 44.973859 233.743687 
L 46.984067 237.10546 
L 49.409712 240.684372 
L 51.907581 243.926622 
L 54.461739 246.86407 
L 57.112315 249.580711 
L 60.084933 252.296118 
L 62.97344 254.656269 
L 66.131066 256.975044 
L 69.53876 259.221393 
L 73.277863 261.431061 
L 77.369719 263.594598 
L 77.369719 263.594598 
" style="fill:none;stroke:#0000ff;stroke-linecap:square;"/>
   </g>
   <g id="patch_4">
    <path d="M 20.5625 326.082538 
L 20.5625 30.685 
" style="fill:none;stroke:#000000;stroke-linecap:square;stroke-linejoin:miter;stroke-width:0.8;"/>
   </g>
   <g id="patch_5">
    <path d="M 14.88469 320.401817 
L 310.279259 320.401817 
" style="fill:none;stroke:#000000;stroke-linecap:square;stroke-linejoin:miter;stroke-width:0.8;"/>
   </g>
  </g>
 </g>
 <defs>
  <clipPath id="p6da0f6af1b">
   <rect height="295.397538" width="295.39457" x="14.88469" y="30.685"/>
  </clipPath>
 </defs>
</svg>
